<svg width="58" height="57" viewBox="0 0 58 57" fill="none" xmlns="http://www.w3.org/2000/svg">
<path d="M37.2231 25.65H31.4965V14.25C31.4965 13.4941 31.1948 12.7692 30.6579 12.2347C30.1209 11.7003 29.3926 11.4 28.6332 11.4C27.8738 11.4 27.1455 11.7003 26.6085 12.2347C26.0715 12.7692 25.7699 13.4941 25.7699 14.25V28.5C25.7699 29.2559 26.0715 29.9808 26.6085 30.5152C27.1455 31.0497 27.8738 31.35 28.6332 31.35H37.2231C37.9825 31.35 38.7108 31.0497 39.2478 30.5152C39.7848 29.9808 40.0865 29.2559 40.0865 28.5C40.0865 27.7441 39.7848 27.0192 39.2478 26.4847C38.7108 25.9503 37.9825 25.65 37.2231 25.65ZM28.6332 0C22.9701 0 17.4341 1.6715 12.7254 4.80311C8.01675 7.93473 4.34676 12.3858 2.17958 17.5935C0.0124063 22.8012 -0.554626 28.5316 0.550191 34.0601C1.65501 39.5885 4.38205 44.6667 8.38647 48.6525C12.3909 52.6383 17.4928 55.3527 23.0471 56.4524C28.6014 57.552 34.3586 56.9877 39.5906 54.8306C44.8227 52.6735 49.2945 49.0205 52.4408 44.3337C55.587 39.6469 57.2664 34.1368 57.2664 28.5C57.2579 20.9439 54.2385 13.6997 48.8706 8.35674C43.5026 3.01377 36.2246 0.00840345 28.6332 0ZM28.6332 51.3C24.1027 51.3 19.674 49.9628 15.907 47.4575C12.14 44.9522 9.20405 41.3913 7.4703 37.2252C5.73656 33.059 5.28294 28.4747 6.16679 24.0519C7.05064 19.6292 9.23228 15.5666 12.4358 12.378C15.6394 9.18933 19.7209 7.01784 24.1643 6.13809C28.6078 5.25835 33.2135 5.70987 37.3991 7.43554C41.5848 9.16122 45.1623 12.0836 47.6793 15.833C50.1963 19.5824 51.5397 23.9906 51.5397 28.5C51.5328 34.5448 49.1172 40.34 44.8229 44.6144C40.5286 48.8887 34.7062 51.2931 28.6332 51.3Z" fill="#0A0A14"/>
</svg>
