<svg width="24" height="25" viewBox="0 0 24 25" fill="none" xmlns="http://www.w3.org/2000/svg">
<path d="M23.4171 10.0691L22.274 9.43899L11.9868 3.71035H11.8611C11.791 3.68065 11.7183 3.65763 11.6439 3.6416H11.4267H11.221C11.1429 3.65764 11.0664 3.68065 10.9924 3.71035H10.8667L0.579454 9.43899C0.403545 9.53892 0.257228 9.68383 0.155431 9.85894C0.0536343 10.0341 0 10.2331 0 10.4358C0 10.6384 0.0536343 10.8375 0.155431 11.0126C0.257228 11.1877 0.403545 11.3326 0.579454 11.4326L3.42558 13.0137V18.4444C3.42558 19.356 3.78686 20.2303 4.42993 20.8749C5.07301 21.5195 5.94521 21.8816 6.85465 21.8816H15.9988C16.9083 21.8816 17.7805 21.5195 18.4236 20.8749C19.0666 20.2303 19.4279 19.356 19.4279 18.4444V13.0137L21.714 11.7304V15.0072C21.714 15.3111 21.8344 15.6025 22.0487 15.8174C22.2631 16.0322 22.5538 16.153 22.857 16.153C23.1601 16.153 23.4509 16.0322 23.6652 15.8174C23.8796 15.6025 24 15.3111 24 15.0072V11.0659C23.9997 10.8629 23.9455 10.6636 23.8431 10.4885C23.7406 10.3133 23.5936 10.1686 23.4171 10.0691ZM17.1419 18.4444C17.1419 18.7483 17.0214 19.0397 16.8071 19.2546C16.5927 19.4694 16.302 19.5901 15.9988 19.5901H6.85465C6.5515 19.5901 6.26077 19.4694 6.04641 19.2546C5.83205 19.0397 5.71163 18.7483 5.71163 18.4444V14.2854L10.8667 17.1497L11.0381 17.2185H11.141C11.2359 17.2305 11.3319 17.2305 11.4267 17.2185C11.5216 17.2305 11.6176 17.2305 11.7125 17.2185H11.8154C11.8761 17.2057 11.9341 17.1824 11.9868 17.1497L17.1419 14.2854V18.4444ZM11.4267 14.8468L3.49416 10.4243L11.4267 6.0018L19.3593 10.4243L11.4267 14.8468Z" fill="black"/>
</svg>
