<svg width="81" height="81" viewBox="0 0 81 81" fill="none" xmlns="http://www.w3.org/2000/svg">
<g opacity="0.15">
<path d="M41.8394 76.2525C44.36 74.6446 46.8881 73.0443 49.4087 71.4364C50.5497 70.711 51.7057 69.993 52.8168 69.2153C55.4568 67.3681 57.9326 65.2666 60.1326 62.9035C64.4878 58.2145 67.7989 52.6579 69.8944 46.6079C71.6022 41.6646 72.333 36.4521 72.333 31.2321C72.333 28.0014 72.333 24.7707 72.333 21.54C72.333 21.4503 72.333 21.368 72.333 21.2783C72.333 19.9397 71.4008 18.773 70.1405 18.3916C69.2307 18.1149 68.3284 17.8307 67.4558 17.4643C67.6945 17.5615 67.9331 17.6662 68.1717 17.7634C66.6131 17.0978 65.1515 16.2453 63.8091 15.2133C64.0105 15.3703 64.2118 15.5274 64.4132 15.6844C63.0857 14.6524 61.8926 13.4633 60.8634 12.1321C61.02 12.3341 61.1766 12.536 61.3332 12.7379C60.3041 11.3918 59.4465 9.91851 58.7828 8.35551C58.8797 8.59482 58.9841 8.83413 59.0811 9.07344C58.8574 8.53499 58.6486 7.98159 58.4696 7.42818C58.0669 6.16432 56.9408 5.22951 55.591 5.22951C54.5768 5.22951 53.5626 5.22951 52.5483 5.22951C50.1172 5.22951 47.6786 5.22951 45.2475 5.22951C42.3167 5.22951 39.3859 5.22951 36.4551 5.22951C33.9121 5.22951 31.3691 5.22951 28.8261 5.22951C27.5957 5.22951 26.3577 5.19212 25.1272 5.22951C25.1123 5.22951 25.0899 5.22951 25.075 5.22951C23.7178 5.22951 22.5991 6.16432 22.1964 7.42818C22.0175 7.98906 21.8161 8.53499 21.5849 9.07344C21.6819 8.83413 21.7863 8.59482 21.8832 8.35551C21.2195 9.91851 20.3619 11.3843 19.3328 12.7379C19.4894 12.536 19.646 12.3341 19.8026 12.1321C18.7735 13.4633 17.5803 14.6524 16.2528 15.6844C16.4542 15.5274 16.6555 15.3703 16.8569 15.2133C15.5146 16.2453 14.0454 17.0978 12.4943 17.7634C12.7329 17.6662 12.9716 17.5615 13.2102 17.4643C12.3302 17.8307 11.4353 18.1149 10.5255 18.3916C9.26519 18.773 8.33301 19.9397 8.33301 21.2783C8.33301 24.2846 8.33301 27.291 8.33301 30.2973C8.33301 31.8828 8.33301 33.4682 8.44487 35.0536C8.68351 38.2769 9.2279 41.4926 10.1303 44.5962C11.9201 50.7584 15.0224 56.4346 19.1389 61.333C22.3381 65.1395 26.1936 68.2206 30.3698 70.8755C33.1216 72.6255 35.8734 74.3754 38.6252 76.1254C38.6924 76.1702 38.7669 76.2151 38.8341 76.26C40.154 77.0976 42.1825 76.5816 42.9133 75.1831C43.6889 73.7024 43.2489 71.9898 41.8394 71.0924C40.4971 70.2398 39.1547 69.3873 37.8198 68.5347C36.1046 67.4429 34.3969 66.3585 32.6816 65.2666C31.481 64.5038 30.3102 63.6887 29.1766 62.8212C29.378 62.9782 29.5793 63.1353 29.7807 63.2923C26.9618 61.1011 24.4262 58.5585 22.2412 55.7316C22.3978 55.9335 22.5544 56.1354 22.711 56.3374C20.4887 53.4432 18.6392 50.2723 17.2149 46.907C17.3118 47.1463 17.4162 47.3856 17.5132 47.6249C16.0589 44.1624 15.0671 40.5279 14.5675 36.8036C14.6047 37.0653 14.642 37.3346 14.6719 37.5963C14.3512 35.1733 14.299 32.7503 14.299 30.3198C14.299 27.9566 14.299 25.5934 14.299 23.2302C14.299 22.587 14.299 21.9514 14.299 21.3082C13.5682 22.2729 12.8373 23.2302 12.1065 24.1949C14.6793 23.4171 17.1701 22.3851 19.3551 20.8072C21.9429 18.9375 24.1503 16.6342 25.7909 13.8821C26.6933 12.3714 27.4167 10.7262 27.9536 9.05101C26.9916 9.7839 26.037 10.5168 25.075 11.2497C26.0892 11.2497 27.1035 11.2497 28.1177 11.2497C30.5488 11.2497 32.9874 11.2497 35.4185 11.2497C38.3493 11.2497 41.2801 11.2497 44.2109 11.2497C46.7539 11.2497 49.2969 11.2497 51.8399 11.2497C53.0704 11.2497 54.3083 11.2796 55.5388 11.2497C55.5537 11.2497 55.5761 11.2497 55.591 11.2497C54.629 10.5168 53.6744 9.7839 52.7124 9.05101C54.5842 14.9066 58.835 19.9995 64.4132 22.6319C65.7555 23.2676 67.1352 23.7612 68.5595 24.1949C67.8287 23.2302 67.0979 22.2729 66.367 21.3082C66.367 22.9834 66.367 24.6586 66.367 26.3337C66.367 28.1959 66.367 30.058 66.367 31.9127C66.367 33.8122 66.2403 35.7117 65.9942 37.5963C66.0314 37.3346 66.0687 37.0653 66.0986 36.8036C65.5915 40.5204 64.5996 44.1624 63.1529 47.6249C63.2498 47.3856 63.3542 47.1463 63.4512 46.907C62.0268 50.2723 60.1773 53.4432 57.955 56.3374C58.1116 56.1354 58.2682 55.9335 58.4248 55.7316C56.2398 58.5585 53.7043 61.1011 50.8853 63.2923C51.0867 63.1353 51.288 62.9782 51.4894 62.8212C49.8189 64.115 48.044 65.2293 46.2692 66.366C44.3004 67.6224 42.3316 68.8713 40.3628 70.1276C39.8557 70.4492 39.3412 70.7783 38.8341 71.0998C38.1853 71.5112 37.6707 72.1319 37.4619 72.8872C37.268 73.6051 37.3575 74.5549 37.7602 75.1906C38.6103 76.5068 40.43 77.1499 41.8394 76.2525Z" fill="#0F1EFF"/>
<path d="M25.134 40.7973C27.6844 43.3549 30.2349 45.9126 32.7928 48.4777C33.1582 48.8441 33.5236 49.2106 33.8816 49.5695C35.0226 50.7137 36.9615 50.7137 38.1025 49.5695C40.0713 47.5952 42.0475 45.6134 44.0163 43.6391C47.1335 40.5131 50.2582 37.3796 53.3754 34.2536C54.0913 33.5357 54.8147 32.8103 55.5306 32.0923C56.6343 30.9855 56.7164 28.9514 55.5306 27.8595C54.3374 26.7602 52.488 26.6779 51.3097 27.8595C49.3409 29.8338 47.3647 31.8156 45.3959 33.79C42.2787 36.916 39.154 40.0494 36.0368 43.1754C35.3209 43.8934 34.5975 44.6188 33.8816 45.3367C35.2911 45.3367 36.6931 45.3367 38.1025 45.3367C35.5521 42.7791 33.0016 40.2214 30.4437 37.6563C30.0783 37.2899 29.7129 36.9234 29.3549 36.5645C28.2512 35.4577 26.2228 35.3754 25.134 36.5645C24.0377 37.761 23.9557 39.6082 25.134 40.7973Z" fill="#0F1EFF"/>
</g>
</svg>
