<svg width="43" height="42" viewBox="0 0 43 42" fill="none" xmlns="http://www.w3.org/2000/svg">
<path d="M40.7065 0.389342C39.1951 0.136344 37.6646 0.00611601 36.131 8.91419e-06C30.8983 -0.00416 25.7748 1.45401 21.3712 4.20071C16.9562 1.49008 11.8335 0.0676932 6.61141 0.102465C5.07775 0.108572 3.54729 0.2388 2.03588 0.491798C1.54081 0.574744 1.09248 0.826745 0.771624 1.20242C0.450773 1.57809 0.278486 2.05276 0.285789 2.54092V27.1304C0.281273 27.4315 0.345094 27.7298 0.472711 28.0042C0.600328 28.2786 0.788604 28.5223 1.02414 28.718C1.25968 28.9136 1.5367 29.0564 1.83547 29.1362C2.13425 29.216 2.44745 29.2308 2.75278 29.1795C5.77436 28.6711 8.87008 28.7555 11.8576 29.4276C14.8451 30.0998 17.664 31.3462 20.1482 33.0934L20.4013 33.2368H20.6332C20.867 33.3315 21.1179 33.3802 21.3712 33.3802C21.6245 33.3802 21.8753 33.3315 22.1092 33.2368H22.3411L22.5941 33.0934C25.061 31.3071 27.8718 30.0204 30.8599 29.3093C33.848 28.5983 36.9526 28.4775 39.9896 28.9541C40.2949 29.0053 40.6081 28.9905 40.9069 28.9108C41.2057 28.831 41.4827 28.6882 41.7182 28.4926C41.9538 28.2969 42.142 28.0532 42.2697 27.7788C42.3973 27.5044 42.4611 27.2061 42.4566 26.905V2.31552C42.4346 1.84863 42.2491 1.40307 41.9308 1.05272C41.6125 0.702377 41.1805 0.468309 40.7065 0.389342ZM19.2626 27.6222C15.3616 25.6278 11.0193 24.5869 6.61141 24.5895C5.91559 24.5895 5.21977 24.5895 4.50287 24.5895V4.09826C5.20513 4.05892 5.90914 4.05892 6.61141 4.09826C11.1097 4.09343 15.5099 5.37628 19.2626 7.78668V27.6222ZM38.2395 24.6715C37.5226 24.6715 36.8268 24.6715 36.131 24.6715C31.723 24.6688 27.3808 25.7097 23.4797 27.7042V7.78668C27.2325 5.37628 31.6326 4.09343 36.131 4.09826C36.8332 4.05892 37.5372 4.05892 38.2395 4.09826V24.6715ZM40.7065 33.1753C39.1951 32.9223 37.6646 32.7921 36.131 32.786C30.8983 32.7818 25.7748 34.24 21.3712 36.9867C16.9675 34.24 11.844 32.7818 6.61141 32.786C5.07775 32.7921 3.54729 32.9223 2.03588 33.1753C1.7614 33.2177 1.49825 33.3123 1.26154 33.4538C1.02484 33.5953 0.819252 33.7809 0.656611 33.9999C0.493969 34.2189 0.37748 34.467 0.313841 34.7299C0.250201 34.9928 0.240668 35.2653 0.285789 35.5318C0.392942 36.0639 0.712748 36.5331 1.17515 36.8365C1.63755 37.1399 2.20485 37.2529 2.75278 37.1506C5.77436 36.6422 8.87008 36.7266 11.8576 37.3987C14.8451 38.0709 17.664 39.3173 20.1482 41.0644C20.5053 41.3115 20.9328 41.4443 21.3712 41.4443C21.8096 41.4443 22.237 41.3115 22.5941 41.0644C25.0784 39.3173 27.8973 38.0709 30.8848 37.3987C33.8723 36.7266 36.968 36.6422 39.9896 37.1506C40.5375 37.2529 41.1048 37.1399 41.5672 36.8365C42.0296 36.5331 42.3494 36.0639 42.4566 35.5318C42.5017 35.2653 42.4922 34.9928 42.4285 34.7299C42.3649 34.467 42.2484 34.2189 42.0858 33.9999C41.9231 33.7809 41.7175 33.5953 41.4808 33.4538C41.2441 33.3123 40.981 33.2177 40.7065 33.1753Z" fill="white"/>
</svg>
