<svg width="42" height="43" viewBox="0 0 42 43" fill="none" xmlns="http://www.w3.org/2000/svg">
<path d="M38.8493 27.5165C38.3506 27.2688 37.7741 27.2293 37.2463 27.4065C36.7185 27.5838 36.2827 27.9633 36.0346 28.4617C34.7051 31.1466 32.682 33.4272 30.1748 35.0673C27.6676 36.7074 24.7675 37.6474 21.7749 37.7899C18.7823 37.9324 15.806 37.2722 13.1543 35.8777C10.5027 34.4832 8.27202 32.4051 6.69347 29.8587C5.11492 27.3123 4.24586 24.3902 4.17632 21.395C4.10678 18.3998 4.83928 15.4405 6.29796 12.8235C7.75663 10.2066 9.88842 8.02727 12.4725 6.51122C15.0566 4.99517 17.9991 4.19756 20.9951 4.201C24.1272 4.18744 27.1996 5.05724 29.8598 6.71057C32.52 8.3639 34.6601 10.7338 36.0346 13.5482C36.2853 14.0496 36.7249 14.4308 37.2567 14.6081C37.7885 14.7854 38.3689 14.7441 38.8703 14.4934C39.3716 14.2427 39.7529 13.8031 39.9302 13.2713C40.1074 12.7396 40.0662 12.1591 39.8155 11.6578C37.7079 7.41632 34.2287 4.01166 29.9426 1.99639C25.6565 -0.0188884 20.8151 -0.526491 16.2043 0.555969C11.5934 1.63843 7.48369 4.24741 4.54218 7.95946C1.60066 11.6715 0 16.2687 0 21.0049C0 25.7412 1.60066 30.3384 4.54218 34.0504C7.48369 37.7625 11.5934 40.3715 16.2043 41.4539C20.8151 42.5364 25.6565 42.0288 29.9426 40.0135C34.2287 37.9982 37.7079 34.5936 39.8155 30.3521C39.9407 30.103 40.015 29.8313 40.0341 29.5531C40.0532 29.2749 40.0167 28.9957 39.9268 28.7318C39.8368 28.4678 39.6952 28.2244 39.5102 28.0158C39.3252 27.8071 39.1005 27.6374 38.8493 27.5165ZM39.8995 18.9045H19.7558L24.5869 14.0943C24.7828 13.8985 24.9381 13.666 25.0441 13.4101C25.1501 13.1542 25.2046 12.8799 25.2046 12.603C25.2046 12.326 25.1501 12.0517 25.0441 11.7959C24.9381 11.54 24.7828 11.3075 24.5869 11.1116C24.3911 10.9158 24.1586 10.7604 23.9027 10.6544C23.6468 10.5484 23.3725 10.4939 23.0956 10.4939C22.8186 10.4939 22.5443 10.5484 22.2884 10.6544C22.0326 10.7604 21.8001 10.9158 21.6042 11.1116L13.2022 19.5136C13.011 19.7134 12.8611 19.9489 12.7611 20.2068C12.5511 20.7181 12.5511 21.2917 12.7611 21.8031C12.8611 22.061 13.011 22.2965 13.2022 22.4963L21.6042 30.8983C21.7995 31.0951 22.0318 31.2514 22.2878 31.3581C22.5437 31.4647 22.8183 31.5196 23.0956 31.5196C23.3729 31.5196 23.6474 31.4647 23.9034 31.3581C24.1593 31.2514 24.3916 31.0951 24.5869 30.8983C24.7838 30.703 24.9401 30.4707 25.0467 30.2147C25.1533 29.9588 25.2082 29.6842 25.2082 29.4069C25.2082 29.1296 25.1533 28.8551 25.0467 28.5991C24.9401 28.3432 24.7838 28.1108 24.5869 27.9156L19.7558 23.1054H39.8995C40.4566 23.1054 40.9909 22.8841 41.3848 22.4902C41.7787 22.0963 42 21.562 42 21.0049C42 20.4479 41.7787 19.9136 41.3848 19.5197C40.9909 19.1258 40.4566 18.9045 39.8995 18.9045Z" fill="black"/>
</svg>
