<svg width="13" height="14" viewBox="0 0 13 14" fill="none" xmlns="http://www.w3.org/2000/svg">
<path d="M8.29298 4.93692L5.56866 7.66759L4.52084 6.61978C4.46391 6.5533 4.39386 6.49931 4.31507 6.46119C4.23628 6.42307 4.15047 6.40165 4.06301 6.39828C3.97555 6.3949 3.88834 6.40963 3.80685 6.44156C3.72536 6.47349 3.65135 6.52191 3.58946 6.5838C3.52757 6.64569 3.47915 6.7197 3.44722 6.80119C3.41529 6.88268 3.40056 6.9699 3.40393 7.05735C3.40731 7.14481 3.42873 7.23062 3.46685 7.30941C3.50497 7.3882 3.55896 7.45825 3.62543 7.51518L5.11778 9.01388C5.17712 9.07273 5.24749 9.1193 5.32486 9.1509C5.40223 9.1825 5.48508 9.19852 5.56866 9.19804C5.73525 9.19734 5.8949 9.1312 6.01319 9.01388L9.18838 5.83868C9.24791 5.77964 9.29515 5.70941 9.32739 5.63202C9.35963 5.55464 9.37623 5.47163 9.37623 5.3878C9.37623 5.30397 9.35963 5.22096 9.32739 5.14358C9.29515 5.06619 9.24791 4.99596 9.18838 4.93692C9.0694 4.81864 8.90845 4.75226 8.74068 4.75226C8.57291 4.75226 8.41196 4.81864 8.29298 4.93692ZM6.56567 0.625C5.30968 0.625 4.08189 0.997444 3.03758 1.69524C1.99326 2.39303 1.17931 3.38482 0.698666 4.54521C0.218019 5.70559 0.0922601 6.98244 0.337292 8.2143C0.582323 9.44616 1.18714 10.5777 2.07526 11.4658C2.96338 12.3539 4.09491 12.9587 5.32677 13.2038C6.55863 13.4488 7.83548 13.323 8.99586 12.8424C10.1562 12.3618 11.148 11.5478 11.8458 10.5035C12.5436 9.45917 12.9161 8.23139 12.9161 6.9754C12.9161 6.14145 12.7518 5.31567 12.4327 4.54521C12.1135 3.77474 11.6458 3.07468 11.0561 2.48499C10.4664 1.8953 9.76633 1.42753 8.99586 1.1084C8.2254 0.789258 7.39962 0.625 6.56567 0.625ZM6.56567 12.0557C5.56088 12.0557 4.57865 11.7578 3.7432 11.1995C2.90774 10.6413 2.25658 9.84786 1.87207 8.91955C1.48755 7.99125 1.38694 6.96976 1.58297 5.98428C1.77899 4.99879 2.26285 4.09357 2.97334 3.38307C3.68384 2.67258 4.58906 2.18872 5.57455 1.9927C6.56003 1.79667 7.58152 1.89728 8.50982 2.2818C9.43813 2.66631 10.2316 3.31747 10.7898 4.15292C11.348 4.98838 11.646 5.97061 11.646 6.9754C11.646 8.32278 11.1107 9.61498 10.158 10.5677C9.20525 11.5205 7.91305 12.0557 6.56567 12.0557Z" fill="#0F1E32"/>
</svg>
