<svg width="33" height="33" viewBox="0 0 33 33" fill="none" xmlns="http://www.w3.org/2000/svg">
<path d="M19.7085 15.5742C20.2135 14.9482 20.4913 14.1718 20.4974 13.3701C20.4974 12.4085 20.1122 11.4863 19.4267 10.8063C18.7411 10.1264 17.8113 9.74438 16.8418 9.74438C15.8723 9.74438 14.9425 10.1264 14.2569 10.8063C13.5714 11.4863 13.1862 12.4085 13.1862 13.3701C13.1923 14.1718 13.4701 14.9482 13.9751 15.5742C12.9847 16.172 12.2077 17.0621 11.7529 18.1199C11.6893 18.2541 11.6536 18.3997 11.648 18.5479C11.6424 18.6961 11.6671 18.8439 11.7205 18.9824C11.7738 19.121 11.8549 19.2474 11.9587 19.3541C12.0625 19.4609 12.187 19.5457 12.3247 19.6036C12.4624 19.6615 12.6104 19.6912 12.7599 19.691C12.9095 19.6908 13.0574 19.6606 13.1949 19.6024C13.3324 19.5441 13.4567 19.4589 13.5602 19.3519C13.6637 19.2448 13.7444 19.1182 13.7974 18.9795C14.0527 18.3874 14.4769 17.8822 15.0177 17.5259C15.5585 17.1696 16.1925 16.9777 16.8418 16.9738C17.493 16.9755 18.1293 17.1664 18.6724 17.5229C19.2154 17.8793 19.6412 18.3857 19.8974 18.9795C19.9824 19.1787 20.1247 19.3486 20.3065 19.4682C20.4882 19.5877 20.7015 19.6515 20.9196 19.6517C21.0683 19.649 21.2151 19.6191 21.3529 19.5635C21.6239 19.4494 21.8381 19.2332 21.9485 18.9626C22.0589 18.6919 22.0565 18.3888 21.9418 18.1199C21.4841 17.0605 20.703 16.1702 19.7085 15.5742ZM16.8418 14.7697C16.5578 14.7697 16.2803 14.686 16.0443 14.5293C15.8084 14.3726 15.6247 14.1499 15.5165 13.8895C15.4084 13.6291 15.3807 13.3427 15.4369 13.0666C15.4931 12.7906 15.6307 12.5373 15.8323 12.3389C16.0338 12.1405 16.2903 12.006 16.569 11.9524C16.8478 11.8988 17.1363 11.9285 17.3981 12.0378C17.6598 12.1471 17.8828 12.331 18.039 12.5663C18.1951 12.8015 18.2773 13.0774 18.2751 13.3591C18.2722 13.7342 18.1199 14.093 17.8514 14.3572C17.5829 14.6214 17.22 14.7697 16.8418 14.7697ZM23.5085 5.3252H10.1751C9.29108 5.3252 8.44323 5.67352 7.81811 6.29354C7.19299 6.91355 6.8418 7.75448 6.8418 8.63131V20.7538C6.8418 21.6306 7.19299 22.4715 7.81811 23.0915C8.44323 23.7115 9.29108 24.0599 10.1751 24.0599H13.0529L16.0529 27.0464C16.1567 27.1485 16.2799 27.2293 16.4152 27.2842C16.5506 27.339 16.6956 27.3668 16.8418 27.366C17.1066 27.366 17.3628 27.2722 17.564 27.1015L21.1418 24.0599H23.5085C24.3925 24.0599 25.2404 23.7115 25.8655 23.0915C26.4906 22.4715 26.8418 21.6306 26.8418 20.7538V8.63131C26.8418 7.75448 26.4906 6.91355 25.8655 6.29354C25.2404 5.67352 24.3925 5.3252 23.5085 5.3252ZM24.6196 20.7538C24.6196 21.046 24.5025 21.3263 24.2941 21.533C24.0858 21.7397 23.8032 21.8558 23.5085 21.8558H20.7307C20.4659 21.8558 20.2097 21.9496 20.0085 22.1203L16.8974 24.7652L14.2974 22.1754C14.1935 22.0732 14.0704 21.9924 13.935 21.9376C13.7997 21.8828 13.6547 21.855 13.5085 21.8558H10.1751C9.88045 21.8558 9.59783 21.7397 9.38946 21.533C9.18108 21.3263 9.06402 21.046 9.06402 20.7538V8.63131C9.06402 8.33904 9.18108 8.05873 9.38946 7.85206C9.59783 7.64538 9.88045 7.52927 10.1751 7.52927H23.5085C23.8032 7.52927 24.0858 7.64538 24.2941 7.85206C24.5025 8.05873 24.6196 8.33904 24.6196 8.63131V20.7538Z" fill="black"/>
</svg>
