<svg width="23" height="19" viewBox="0 0 23 19" fill="none" xmlns="http://www.w3.org/2000/svg">
<path d="M19.4812 1.35705C19.8598 0.996629 20.3635 0.797372 20.8862 0.801327C21.4089 0.805282 21.9097 1.01214 22.2827 1.37825C22.6558 1.74436 22.8721 2.24109 22.8859 2.76362C22.8997 3.28615 22.71 3.79361 22.3568 4.17893L11.6337 17.5896C11.4493 17.7882 11.2267 17.9475 10.9793 18.0582C10.732 18.1688 10.4648 18.2284 10.1938 18.2334C9.92289 18.2384 9.65371 18.1888 9.40239 18.0874C9.15107 17.986 8.92278 17.8349 8.73117 17.6433L1.62004 10.5322C1.42201 10.3476 1.26317 10.1251 1.15301 9.87787C1.04284 9.63063 0.983604 9.36372 0.978829 9.09308C0.974054 8.82244 1.02384 8.55361 1.12522 8.30263C1.22659 8.05165 1.37748 7.82366 1.56888 7.63226C1.76028 7.44086 1.98827 7.28997 2.23925 7.1886C2.49023 7.08722 2.75906 7.03744 3.0297 7.04221C3.30034 7.04699 3.56724 7.10623 3.81449 7.21639C4.06174 7.32656 4.28426 7.48539 4.46879 7.68343L10.0964 13.3084L19.4301 1.41618C19.4469 1.39549 19.4649 1.37575 19.4839 1.35705H19.4812Z" fill="black"/>
</svg>
