<svg width="42" height="42" viewBox="0 0 42 42" fill="none" xmlns="http://www.w3.org/2000/svg">
<path d="M40.5335 16.9681C39.9434 16.2596 39.205 15.6893 38.3703 15.2974C37.5357 14.9056 36.6252 14.7016 35.7031 14.7001H26.1263L27.3024 11.6971C27.7916 10.3822 27.9545 8.96834 27.7772 7.57671C27.5998 6.18508 27.0875 4.85723 26.2842 3.70707C25.4809 2.55691 24.4105 1.61876 23.1649 0.973112C21.9193 0.327462 20.5357 -0.00642479 19.1327 9.36414e-05C18.7287 0.000936499 18.3335 0.118271 17.9945 0.338031C17.6555 0.55779 17.3871 0.870646 17.2215 1.23909L11.236 14.7001H6.30055C4.62954 14.7001 3.02697 15.3638 1.84539 16.5453C0.663806 17.7268 0 19.3292 0 21V35.7C0 37.3709 0.663806 38.9733 1.84539 40.1548C3.02697 41.3363 4.62954 42 6.30055 42H33.0359C34.5098 41.9995 35.9369 41.4823 37.0689 40.5385C38.2009 39.5946 38.9661 38.2837 39.2314 36.834L41.8986 22.134C42.0636 21.2255 42.0269 20.2919 41.7909 19.3992C41.555 18.5065 41.1258 17.6765 40.5335 16.9681ZM10.5009 37.8H6.30055C5.74355 37.8 5.20936 37.5788 4.8155 37.1849C4.42163 36.7911 4.20037 36.257 4.20037 35.7V21C4.20037 20.4431 4.42163 19.909 4.8155 19.5151C5.20936 19.1213 5.74355 18.9001 6.30055 18.9001H10.5009V37.8ZM37.8033 21.378L35.1361 36.078C35.0466 36.5672 34.7864 37.0088 34.4018 37.3242C34.0172 37.6395 33.5332 37.8081 33.0359 37.8H14.7013V17.2411L20.4138 4.38908C21.0018 4.5605 21.5479 4.85194 22.0176 5.24501C22.4873 5.63808 22.8704 6.12424 23.1427 6.67281C23.4151 7.22139 23.5707 7.82046 23.5999 8.43221C23.629 9.04396 23.531 9.6551 23.312 10.2271L22.1989 13.2301C21.9618 13.8648 21.8817 14.5475 21.9655 15.2199C22.0494 15.8923 22.2947 16.5344 22.6806 17.0914C23.0664 17.6484 23.5813 18.1039 24.1813 18.4188C24.7813 18.7338 25.4486 18.8989 26.1263 18.9001H35.7031C36.0116 18.8996 36.3165 18.967 36.596 19.0977C36.8755 19.2284 37.1228 19.419 37.3202 19.656C37.5226 19.8898 37.6708 20.1654 37.7543 20.4631C37.8378 20.7607 37.8545 21.0732 37.8033 21.378Z" fill="black"/>
</svg>
