<svg width="170" height="20" viewBox="0 0 170 20" fill="none" xmlns="http://www.w3.org/2000/svg">
<g clip-path="url(#clip0_7419_89510)">
<path d="M10.754 19.7391H0V1.11646H10.754V4.34951H3.96008V8.43795H10.2817V11.671H3.96008V16.4771H10.754V19.7391Z" fill="white"/>
<path d="M35.4805 16.8974C36.1635 16.8974 36.9773 16.7451 37.9365 16.4479V19.3403C36.9628 19.7752 35.7712 19.9927 34.3615 19.9927C32.8066 19.9927 31.6658 19.6012 30.9609 18.8111C30.2561 18.021 29.8928 16.8466 29.8928 15.2736V8.41603H28.0254V6.77051L30.1689 5.47294L31.2952 2.4646H33.7875V5.49468H37.7839V8.41603H33.7875V15.2808C33.7875 15.8318 33.9401 16.2377 34.2525 16.5059C34.565 16.7741 34.9719 16.8974 35.4878 16.8974H35.4805Z" fill="white"/>
<path d="M47.2808 20C44.9847 20 43.1827 19.3694 41.8893 18.1008C40.5959 16.8322 39.9492 15.0417 39.9492 12.722C39.9492 10.4023 40.545 8.48861 41.744 7.18379C42.9429 5.87897 44.5923 5.22656 46.7068 5.22656C48.8212 5.22656 50.2963 5.79923 51.4225 6.94458C52.5488 8.08992 53.1083 9.67745 53.1083 11.6999V13.5847H43.902C43.9456 14.6865 44.2726 15.5491 44.883 16.1726C45.4933 16.796 46.358 17.1004 47.4625 17.1004C48.3199 17.1004 49.1337 17.0134 49.9039 16.8322C50.6741 16.651 51.4734 16.3683 52.3018 15.9768V18.9852C51.6187 19.3259 50.8921 19.5796 50.1146 19.7463C49.3371 19.913 48.3925 19.9928 47.2808 19.9928V20ZM46.7286 7.99568C45.9002 7.99568 45.2535 8.25665 44.7885 8.77857C44.3235 9.3005 44.0546 10.0399 43.982 11.004H49.4461C49.4316 10.0471 49.1773 9.3005 48.6905 8.77857C48.2036 8.25665 47.5497 7.99568 46.7213 7.99568H46.7286Z" fill="white"/>
<path d="M69.4573 19.7391H65.5626V11.4245C65.5626 10.3951 65.3809 9.62671 65.0103 9.11203C64.6398 8.59735 64.0585 8.34363 63.2592 8.34363C62.1693 8.34363 61.3845 8.70608 60.8977 9.43098C60.4108 10.1559 60.1711 11.3592 60.1711 13.041V19.7463H56.2764V5.49478H59.2555L59.7787 7.31428H59.9967C60.4326 6.62562 61.0285 6.10369 61.7914 5.75574C62.5544 5.40779 63.419 5.22656 64.3927 5.22656C66.0567 5.22656 67.3137 5.676 68.1711 6.56763C69.0285 7.45926 69.4645 8.75683 69.4645 10.4458V19.7318L69.4573 19.7391Z" fill="white"/>
<path d="M83.4302 15.5129C83.4302 16.9772 82.9215 18.0863 81.9043 18.8547C80.887 19.6231 79.3611 20 77.3411 20C76.302 20 75.4155 19.9275 74.6816 19.7898C73.9478 19.6521 73.2647 19.4419 72.6253 19.1736V15.9623C73.3519 16.303 74.1657 16.5858 75.074 16.8177C75.9823 17.0497 76.7816 17.1584 77.4719 17.1584C78.8888 17.1584 79.5936 16.7525 79.5936 15.9333C79.5936 15.6289 79.4991 15.3824 79.3102 15.1867C79.1213 14.991 78.8016 14.7807 78.3365 14.5343C77.8715 14.2878 77.2611 14.0124 76.4982 13.6861C75.401 13.2295 74.5945 12.8018 74.0786 12.4103C73.5627 12.0189 73.1921 11.5694 72.9523 11.0693C72.7125 10.5691 72.6035 9.93841 72.6035 9.19902C72.6035 7.93044 73.0976 6.95183 74.0786 6.26317C75.0595 5.57451 76.4546 5.22656 78.2639 5.22656C80.0732 5.22656 81.6572 5.60351 83.2848 6.35016L82.1077 9.15552C81.3956 8.85106 80.7271 8.59735 80.1022 8.40163C79.4773 8.2059 78.8452 8.11167 78.1985 8.11167C77.0504 8.11167 76.4764 8.42337 76.4764 9.03954C76.4764 9.38749 76.6581 9.69195 77.0286 9.94566C77.3992 10.1994 78.213 10.5763 79.4628 11.0765C80.5818 11.5259 81.3956 11.9464 81.9188 12.3378C82.4419 12.7293 82.8198 13.1787 83.0668 13.6861C83.3139 14.1936 83.4374 14.8025 83.4374 15.5056L83.4302 15.5129Z" fill="white"/>
<path d="M90.3693 19.7389H86.4746V5.49463H90.3693V19.7389Z" fill="white"/>
<path d="M107.431 12.5916C107.431 14.9113 106.821 16.7236 105.593 18.0356C104.365 19.3477 102.657 20.0001 100.47 20.0001C99.0966 20.0001 97.8905 19.7029 96.8441 19.1012C95.7978 18.4996 94.9912 17.6442 94.4317 16.5206C93.8723 15.397 93.5889 14.0922 93.5889 12.5989C93.5889 10.2719 94.1992 8.45969 95.4127 7.16937C96.6261 5.87905 98.341 5.23389 100.55 5.23389C101.923 5.23389 103.129 5.5311 104.176 6.12551C105.222 6.71993 106.029 7.57531 106.588 8.68441C107.148 9.79351 107.431 11.0983 107.431 12.5989V12.5916ZM97.5562 12.5916C97.5562 14.0052 97.7887 15.0708 98.2538 15.7884C98.7188 16.5061 99.4745 16.8685 100.521 16.8685C101.567 16.8685 102.308 16.5061 102.759 15.7884C103.209 15.0708 103.442 14.0052 103.442 12.5844C103.442 11.1636 103.209 10.1197 102.752 9.40931C102.294 8.69891 101.538 8.35096 100.492 8.35096C99.4454 8.35096 98.7043 8.69891 98.2465 9.40206C97.7887 10.1052 97.5562 11.1636 97.5562 12.5844V12.5916Z" fill="white"/>
<path d="M123.83 19.7391H119.936V11.4245C119.936 10.3951 119.754 9.62671 119.383 9.11203C119.013 8.59735 118.432 8.34363 117.632 8.34363C116.542 8.34363 115.758 8.70608 115.271 9.43098C114.784 10.1559 114.544 11.3592 114.544 13.041V19.7463H110.649V5.49478H113.629L114.152 7.31428H114.37C114.806 6.62562 115.402 6.10369 116.164 5.75574C116.927 5.40779 117.792 5.22656 118.766 5.22656C120.43 5.22656 121.687 5.676 122.544 6.56763C123.402 7.45926 123.838 8.75683 123.838 10.4458V19.7318L123.83 19.7391Z" fill="white"/>
<path d="M140.027 18.253C140.405 18.253 140.761 18.224 141.11 18.1733C141.459 18.1225 141.735 18.0573 141.938 17.9993V19.6158C141.706 19.7246 141.371 19.8188 140.921 19.8913C140.47 19.9638 140.071 20 139.715 20C137.004 20 135.653 18.5792 135.653 15.7304V7.42301H133.647V6.4009L135.653 5.52377L136.547 2.54443H137.775V5.77749H141.836V7.42301H137.775V15.6434C137.775 16.4843 137.978 17.1294 138.378 17.5789C138.777 18.0283 139.33 18.253 140.027 18.253Z" fill="white"/>
<path d="M153.346 19.7391L152.925 17.7529H152.823C152.126 18.63 151.428 19.2172 150.738 19.5289C150.047 19.8406 149.175 19.9928 148.136 19.9928C146.749 19.9928 145.659 19.6376 144.874 18.92C144.089 18.2023 143.689 17.1947 143.689 15.8754C143.689 13.0555 145.949 11.5767 150.469 11.439L152.845 11.3593V10.4894C152.845 9.3948 152.605 8.58291 152.133 8.06098C151.66 7.53905 150.905 7.27809 149.866 7.27809C148.696 7.27809 147.381 7.63329 145.906 8.35094L145.252 6.73442C145.942 6.35747 146.698 6.06751 147.519 5.85729C148.34 5.64707 149.161 5.53833 149.989 5.53833C151.66 5.53833 152.896 5.90803 153.702 6.64743C154.509 7.38683 154.908 8.56841 154.908 10.1994V19.7319H153.339L153.346 19.7391ZM148.558 18.2458C149.88 18.2458 150.912 17.8834 151.668 17.1657C152.423 16.4481 152.801 15.4332 152.801 14.1356V12.8743L150.68 12.9613C148.994 13.0193 147.78 13.2803 147.032 13.7442C146.283 14.2081 145.913 14.9258 145.913 15.9044C145.913 16.6656 146.145 17.2527 146.61 17.6514C147.076 18.0501 147.722 18.2531 148.558 18.2531V18.2458Z" fill="white"/>
<path d="M27.3205 5.48755H22.9027L19.6692 9.99643L22.9027 5.48755L12.6719 19.7391H17.0897L27.3205 5.48755L23.2006 11.2288L27.3205 5.48755Z" fill="white"/>
<path d="M90.1805 0H86.6709V3.50127H90.1805V0Z" fill="white"/>
<path d="M17.6204 5.53833H12.7012V10.4459H17.6204V5.53833Z" fill="white"/>
<path d="M27.3645 15.1143H22.8086V19.6594H27.3645V15.1143Z" fill="white"/>
<path d="M132.572 14.8386H127.652V19.7462H132.572V14.8386Z" fill="white"/>
<path d="M162.436 12.8019L157.568 5.98779H159.98L163.671 11.3376L167.348 5.98779H169.739L164.87 12.8019L169.993 19.9494H167.595L163.671 14.2951L159.711 19.9494H157.313L162.436 12.8019Z" fill="white"/>
</g>
<defs>
<clipPath id="clip0_7419_89510">
<rect width="170" height="20" fill="white"/>
</clipPath>
</defs>
</svg>
