<svg width="81" height="81" viewBox="0 0 81 81" fill="none" xmlns="http://www.w3.org/2000/svg">
<g opacity="0.15">
<path d="M48.0199 37.6595H41.6199V24.5305C41.6199 23.66 41.2828 22.8251 40.6827 22.2096C40.0826 21.594 39.2686 21.2482 38.4199 21.2482C37.5712 21.2482 36.7573 21.594 36.1572 22.2096C35.5571 22.8251 35.2199 23.66 35.2199 24.5305V40.9418C35.2199 41.8123 35.5571 42.6472 36.1572 43.2627C36.7573 43.8783 37.5712 44.2241 38.4199 44.2241H48.0199C48.8686 44.2241 49.6826 43.8783 50.2827 43.2627C50.8828 42.6472 51.2199 41.8123 51.2199 40.9418C51.2199 40.0713 50.8828 39.2364 50.2827 38.6209C49.6826 38.0053 48.8686 37.6595 48.0199 37.6595ZM38.4199 8.11914C32.0909 8.11914 25.9041 10.0442 20.6417 13.6508C15.3793 17.2574 11.2778 22.3836 8.85579 28.3811C6.43379 34.3787 5.80008 40.9782 7.03481 47.3452C8.26953 53.7122 11.3172 59.5606 15.7925 64.1509C20.2678 68.7413 25.9697 71.8673 32.177 73.1338C38.3844 74.4002 44.8186 73.7503 50.6658 71.266C56.513 68.7817 61.5107 64.5747 65.0269 59.1771C68.5432 53.7794 70.4199 47.4335 70.4199 40.9418C70.4105 32.2397 67.036 23.8967 61.0369 17.7434C55.0378 11.59 46.904 8.12882 38.4199 8.11914ZM38.4199 67.1999C33.3567 67.1999 28.4072 65.6599 24.1973 62.7746C19.9874 59.8893 16.7062 55.7884 14.7686 50.9903C12.831 46.1923 12.3241 40.9127 13.3118 35.8191C14.2996 30.7255 16.7378 26.0468 20.318 22.3745C23.8982 18.7022 28.4597 16.2014 33.4256 15.1882C38.3915 14.175 43.5388 14.695 48.2166 16.6825C52.8944 18.6699 56.8926 22.0354 59.7055 26.3536C62.5185 30.6717 64.0199 35.7484 64.0199 40.9418C64.0122 47.9034 61.3125 54.5777 56.5133 59.5003C51.714 64.4229 45.2071 67.192 38.4199 67.1999Z" fill="#0F1EFF"/>
</g>
</svg>
