<svg width="60" height="57" viewBox="0 0 60 57" fill="none" xmlns="http://www.w3.org/2000/svg">
<path d="M23.7403 31.6667H35.645C36.4344 31.6667 37.1914 31.333 37.7495 30.7392C38.3076 30.1453 38.6212 29.3399 38.6212 28.5C38.6212 27.6601 38.3076 26.8547 37.7495 26.2608C37.1914 25.667 36.4344 25.3333 35.645 25.3333H23.7403C22.9509 25.3333 22.1939 25.667 21.6358 26.2608C21.0776 26.8547 20.7641 27.6601 20.7641 28.5C20.7641 29.3399 21.0776 30.1453 21.6358 30.7392C22.1939 31.333 22.9509 31.6667 23.7403 31.6667ZM50.526 0H8.85932C6.76544 0.0172848 4.74389 0.817042 3.14803 2.25947C1.55218 3.70189 0.483553 5.69521 0.128967 7.89099C-0.22562 10.0868 0.156389 12.3453 1.20821 14.2718C2.26004 16.1982 3.91476 17.6701 5.88313 18.43V47.5C5.88313 50.0196 6.82381 52.4359 8.49824 54.2175C10.1727 55.9991 12.4437 57 14.8117 57H44.5736C46.9416 57 49.2126 55.9991 50.887 54.2175C52.5615 52.4359 53.5022 50.0196 53.5022 47.5V18.43C55.4705 17.6701 57.1252 16.1982 58.1771 14.2718C59.2289 12.3453 59.6109 10.0868 59.2563 7.89099C58.9017 5.69521 57.8331 3.70189 56.2373 2.25947C54.6414 0.817042 52.6198 0.0172848 50.526 0ZM47.5498 47.5C47.5498 48.3399 47.2362 49.1453 46.6781 49.7392C46.1199 50.333 45.3629 50.6667 44.5736 50.6667H14.8117C14.0224 50.6667 13.2654 50.333 12.7072 49.7392C12.1491 49.1453 11.8355 48.3399 11.8355 47.5V19H47.5498V47.5ZM50.526 12.6667H8.85932C8.06998 12.6667 7.31298 12.333 6.75483 11.7392C6.19669 11.1453 5.88313 10.3399 5.88313 9.5C5.88313 8.66015 6.19669 7.85469 6.75483 7.26083C7.31298 6.66696 8.06998 6.33333 8.85932 6.33333H50.526C51.3153 6.33333 52.0723 6.66696 52.6305 7.26083C53.1886 7.85469 53.5022 8.66015 53.5022 9.5C53.5022 10.3399 53.1886 11.1453 52.6305 11.7392C52.0723 12.333 51.3153 12.6667 50.526 12.6667Z" fill="#0A0A14"/>
</svg>
