<svg width="30" height="28" viewBox="0 0 30 28" fill="none" xmlns="http://www.w3.org/2000/svg">
<path d="M23.3981 27.9928C23.1626 27.9937 22.9304 27.9382 22.7209 27.8307L15.2136 23.8979L7.70626 27.8307C7.46249 27.959 7.18764 28.0163 6.91295 27.996C6.63827 27.9758 6.37478 27.8788 6.15244 27.7161C5.93009 27.5535 5.7578 27.3317 5.65516 27.0759C5.55253 26.8202 5.52365 26.5407 5.57183 26.2694L7.04385 17.9765L0.979106 12.0845C0.789888 11.8956 0.65566 11.6586 0.590826 11.3991C0.525992 11.1396 0.533001 10.8674 0.611099 10.6115C0.696418 10.3498 0.85336 10.1171 1.06412 9.9401C1.27487 9.76305 1.531 9.64867 1.80344 9.60992L10.194 8.38734L13.8888 0.830926C14.0093 0.581887 14.1975 0.371858 14.4318 0.224901C14.6661 0.0779433 14.9371 0 15.2136 0C15.4901 0 15.7611 0.0779433 15.9954 0.224901C16.2297 0.371858 16.4179 0.581887 16.5384 0.830926L20.2774 8.37261L28.6679 9.59519C28.9404 9.63394 29.1965 9.74832 29.4072 9.92537C29.618 10.1024 29.7749 10.335 29.8603 10.5968C29.9384 10.8526 29.9454 11.1249 29.8805 11.3844C29.8157 11.6439 29.6815 11.8809 29.4922 12.0698L23.4275 17.9617L24.8995 26.2546C24.9521 26.5308 24.9246 26.8162 24.8202 27.0772C24.7159 27.3382 24.5391 27.5639 24.3107 27.7276C24.0442 27.9146 23.7232 28.0078 23.3981 27.9928Z" fill="#FFB800"/>
</svg>
