<svg width="70" height="73" viewBox="0 0 70 73" fill="none" xmlns="http://www.w3.org/2000/svg">
<path d="M32.1117 2.3491C33.7908 0.98342 36.2092 0.98342 37.8883 2.3491C39.1479 3.37355 40.8622 3.6519 42.3795 3.07417C44.3836 2.31108 46.6485 3.05193 47.8142 4.85191L47.8764 4.94795C48.7592 6.31094 50.2961 7.1064 51.9186 7.04003C54.0569 6.95255 55.9722 8.35376 56.5362 10.4182L56.5815 10.5842C57.0116 12.1586 58.2296 13.396 59.797 13.851C61.8645 14.4512 63.2575 16.3824 63.1747 18.5336L63.1684 18.6973C63.1051 20.3412 63.8882 21.903 65.2434 22.8357C67.0375 24.0703 67.7753 26.3582 67.0407 28.4084L67.0092 28.4963C66.45 30.0571 66.7208 31.7949 67.7284 33.1115C69.069 34.863 69.069 37.2958 67.7284 39.0473C66.7208 40.3639 66.45 42.1017 67.0092 43.6625L67.0407 43.7504C67.7753 45.8006 67.0375 48.0885 65.2434 49.3231C63.8882 50.2558 63.1051 51.8176 63.1684 53.4615L63.1747 53.6252C63.2575 55.7764 61.8645 57.7076 59.797 58.3078C58.2296 58.7628 57.0116 60.0002 56.5815 61.5746L56.5362 61.7406C55.9722 63.805 54.0569 65.2063 51.9186 65.1188C50.2961 65.0524 48.7592 65.8479 47.8764 67.2109L47.8142 67.3069C46.6485 69.1069 44.3836 69.8477 42.3795 69.0846C40.8622 68.5069 39.1479 68.7853 37.8883 69.8097C36.2092 71.1754 33.7908 71.1754 32.1117 69.8097C30.8521 68.7853 29.1378 68.5069 27.6205 69.0846C25.6164 69.8477 23.3515 69.1069 22.1858 67.3069L22.1236 67.2109C21.2408 65.8479 19.7039 65.0524 18.0814 65.1188C15.9431 65.2063 14.0278 63.805 13.4638 61.7406L13.4185 61.5746C12.9884 60.0002 11.7704 58.7628 10.203 58.3078C8.13553 57.7076 6.74253 55.7764 6.82535 53.6252L6.83165 53.4615C6.89493 51.8176 6.11183 50.2558 4.7566 49.3231C2.96255 48.0885 2.22467 45.8006 2.95929 43.7504L2.99081 43.6625C3.55004 42.1017 3.27921 40.3639 2.27157 39.0473C0.930985 37.2958 0.930985 34.863 2.27157 33.1115C3.27921 31.7949 3.55004 30.0571 2.99081 28.4964L2.9593 28.4084C2.22467 26.3582 2.96255 24.0703 4.7566 22.8357C6.11183 21.903 6.89493 20.3412 6.83165 18.6973L6.82535 18.5336C6.74253 16.3824 8.13553 14.4512 10.203 13.851C11.7704 13.396 12.9884 12.1586 13.4185 10.5842L13.4638 10.4182C14.0278 8.35376 15.9431 6.95255 18.0814 7.04003C19.7039 7.1064 21.2408 6.31094 22.1236 4.94795L22.1858 4.85191C23.3515 3.05193 25.6164 2.31108 27.6205 3.07417C29.1378 3.6519 30.8521 3.37355 32.1117 2.3491Z" fill="#0F1EFF"/>
<path d="M51.7954 14.2421L51.7954 14.2421C52.3562 16.2948 53.9441 17.9082 55.9877 18.5014C56.9193 18.7718 57.547 19.642 57.5096 20.6113L57.5041 20.7549C57.4222 22.8819 58.4355 24.9027 60.189 26.1095C61.0152 26.678 61.3549 27.7316 61.0167 28.6757L61.0166 28.6757L60.989 28.7528C60.989 28.7528 60.989 28.7529 60.989 28.7529C60.2694 30.7612 60.6179 32.9973 61.9145 34.6914C62.5414 35.5104 62.5414 36.6481 61.9145 37.4672C60.6179 39.1612 60.2694 41.3974 60.989 43.4057C60.989 43.4057 60.989 43.4057 60.989 43.4057L61.0166 43.4828L61.0167 43.4828C61.3549 44.4269 61.0152 45.4805 60.189 46.049C58.4355 47.2558 57.4222 49.2766 57.5041 51.4037L57.5096 51.5472C57.547 52.5165 56.9193 53.3867 55.9877 53.6571C53.9441 54.2503 52.3562 55.8637 51.7954 57.9164L51.7556 58.062C51.5065 58.9738 50.6606 59.5927 49.7162 59.5541C47.5863 59.4669 45.5687 60.5112 44.41 62.3004L44.3554 62.3846C43.8456 63.1719 42.855 63.4959 41.9785 63.1621C39.9778 62.4003 37.7222 62.768 36.0652 64.1156C35.3274 64.7158 34.2597 64.7158 33.5219 64.1156C31.8649 62.768 29.6093 62.4003 27.6086 63.1621C26.7321 63.4959 25.7415 63.1719 25.2317 62.3846L25.1771 62.3004C24.0184 60.5112 22.0008 59.4669 19.8709 59.5541C18.9265 59.5927 18.0806 58.9738 17.8315 58.062L17.7917 57.9164L15.8624 58.4435L17.7917 57.9164C17.2309 55.8637 15.643 54.2503 13.5994 53.6571C12.6678 53.3867 12.0401 52.5165 12.0775 51.5472L12.083 51.4037C12.1649 49.2766 11.1516 47.2558 9.39809 46.049C8.57195 45.4805 8.23217 44.4269 8.57045 43.4828L8.5981 43.4057C9.3177 41.3974 8.9692 39.1612 7.67261 37.4671C7.04571 36.6481 7.04572 35.5104 7.67261 34.6914C8.9692 32.9973 9.3177 30.7611 8.5981 28.7528L8.57046 28.6757L6.70324 29.3447L8.57046 28.6757C8.23217 27.7316 8.57195 26.678 9.39809 26.1095C11.1516 24.9027 12.1649 22.8819 12.083 20.7548L12.0775 20.6113C12.0401 19.642 12.6678 18.7718 13.5994 18.5014C15.643 17.9082 17.2309 16.2948 17.7917 14.2421L17.7917 14.2421L17.8315 14.0965C18.0806 13.1847 18.9265 12.5658 19.8709 12.6045C22.0008 12.6916 24.0184 11.6474 25.1771 9.85816L23.4984 8.77097L25.1771 9.85815L25.2317 9.7739C25.7415 8.98667 26.7321 8.66265 27.6086 8.9964C29.6093 9.75818 31.8649 9.39053 33.5219 8.0429L32.2599 6.49128L33.5219 8.0429C34.2597 7.44278 35.3274 7.44277 36.0652 8.0429C37.7222 9.39053 39.9778 9.75818 41.9785 8.9964C42.855 8.66265 43.8456 8.98667 44.3554 9.77391L44.41 9.85816L46.0887 8.77097L44.41 9.85816C45.5687 11.6474 47.5863 12.6916 49.7162 12.6045C50.6606 12.5658 51.5065 13.1847 51.7556 14.0965C51.7556 14.0965 51.7556 14.0965 51.7556 14.0965L51.7954 14.2421Z" fill="white" stroke="#0F1E32" stroke-width="4"/>
</svg>
