<svg width="30" height="30" viewBox="0 0 30 30" fill="none" xmlns="http://www.w3.org/2000/svg">
<path d="M2.50104 17.5001L21.4839 17.5001L13.2305 25.7183C12.7595 26.1887 12.495 26.8266 12.495 27.4918C12.495 28.157 12.7595 28.795 13.2305 29.2654C13.7015 29.7357 14.3402 30 15.0062 30C15.6723 30 16.311 29.7357 16.782 29.2654L29.2872 16.7757C29.5149 16.5381 29.6934 16.258 29.8124 15.9513C30.0625 15.3432 30.0625 14.6611 29.8124 14.0529C29.6934 13.7463 29.5149 13.4662 29.2872 13.2286L16.782 0.73889C16.5495 0.504763 16.2729 0.318926 15.9681 0.192108C15.6633 0.0652905 15.3364 1.90735e-06 15.0062 1.90735e-06C14.6761 1.90735e-06 14.3492 0.0652905 14.0444 0.192108C13.7396 0.318926 13.463 0.504763 13.2305 0.73889C12.9961 0.971107 12.81 1.24738 12.683 1.55178C12.5561 1.85617 12.4907 2.18267 12.4907 2.51243C12.4907 2.84218 12.5561 3.16868 12.683 3.47308C12.81 3.77747 12.9961 4.05375 13.2305 4.28596L21.4839 12.5042L2.50104 12.5042C1.83772 12.5042 1.20157 12.7674 0.732536 13.2358C0.2635 13.7043 0 14.3396 0 15.0021C0 15.6646 0.2635 16.3 0.732536 16.7684C1.20157 17.2369 1.83772 17.5001 2.50104 17.5001Z" fill="#0F1E32"/>
</svg>
