<svg width="16" height="16" viewBox="0 0 16 16" fill="none" xmlns="http://www.w3.org/2000/svg">
<path d="M12.1713 2.72643L12.8505 2.53517L12.1713 2.72643C12.3353 3.30863 12.7903 3.76363 13.3725 3.92758C13.5176 3.96844 13.6157 4.1035 13.6097 4.25413C13.5857 4.8585 13.8778 5.43183 14.3809 5.76767C14.5063 5.85136 14.5579 6.01014 14.5056 6.15154C14.2961 6.71892 14.3967 7.35447 14.7714 7.82932C14.8647 7.94766 14.8647 8.1146 14.7714 8.23295C14.3967 8.7078 14.2961 9.34334 14.5056 9.91072C14.5579 10.0521 14.5063 10.2109 14.3809 10.2946C13.8778 10.6304 13.5857 11.2038 13.6097 11.8081C13.6157 11.9588 13.5176 12.0938 13.3725 12.1347L13.5637 12.8139L13.3725 12.1347C12.7903 12.2986 12.3353 12.7536 12.1713 13.3358L12.8505 13.5271L12.1713 13.3358C12.1304 13.4809 11.9954 13.5791 11.8448 13.5731C11.2404 13.5491 10.6671 13.8412 10.3312 14.3443C10.2475 14.4696 10.0887 14.5212 9.94734 14.469C9.37996 14.2594 8.74442 14.3601 8.26957 14.7347C8.15122 14.8281 7.98428 14.8281 7.86594 14.7347C7.39109 14.3601 6.75554 14.2594 6.18816 14.469C6.04676 14.5212 5.88799 14.4696 5.80429 14.3443C5.46845 13.8412 4.89512 13.5491 4.29075 13.5731C4.14012 13.5791 4.00506 13.4809 3.9642 13.3358C3.80025 12.7536 3.34525 12.2986 2.76305 12.1347L2.57179 12.8139L2.76305 12.1347C2.61795 12.0938 2.51982 11.9588 2.5258 11.8081C2.54978 11.2038 2.25766 10.6304 1.75461 10.2946L1.37574 10.8621L1.75461 10.2946C1.62924 10.2109 1.57765 10.0521 1.62988 9.91072C1.83945 9.34334 1.73879 8.7078 1.36415 8.23295C1.27078 8.1146 1.27078 7.94766 1.36415 7.82932C1.73879 7.35447 1.83945 6.71892 1.62988 6.15154C1.57765 6.01014 1.62924 5.85136 1.75461 5.76767C2.25766 5.43183 2.54978 4.8585 2.5258 4.25413C2.51982 4.1035 2.61795 3.96844 2.76305 3.92758C3.34525 3.76363 3.80025 3.30863 3.9642 2.72643C4.00506 2.58133 4.14012 2.4832 4.29075 2.48918C4.89512 2.51316 5.46845 2.22104 5.80429 1.71799C5.88799 1.59262 6.04676 1.54103 6.18816 1.59326C6.75554 1.80283 7.39109 1.70217 7.86594 1.32753C7.98428 1.23416 8.15122 1.23416 8.26957 1.32753C8.74442 1.70217 9.37996 1.80283 9.94734 1.59326C10.0887 1.54103 10.2475 1.59262 10.3312 1.71799L10.8987 1.33911L10.3312 1.71799C10.6671 2.22103 11.2404 2.51316 11.8448 2.48918C11.9954 2.4832 12.1304 2.58133 12.1713 2.72643Z" fill="#EBC328" stroke="#EBC328" stroke-width="1.4112"/>
<g clip-path="url(#clip0_7015_10410)">
<path d="M7.42179 9.9709H8.71538V11.2645H7.42179V9.9709ZM7.42179 4.7965H8.71538V8.6773H7.42179V4.7965ZM8.06212 1.5625C4.49178 1.5625 1.60059 4.46016 1.60059 8.0305C1.60059 11.6008 4.49178 14.4985 8.06212 14.4985C11.6389 14.4985 14.5366 11.6008 14.5366 8.0305C14.5366 4.46016 11.6389 1.5625 8.06212 1.5625ZM8.06859 13.2049C5.20973 13.2049 2.89419 10.8894 2.89419 8.0305C2.89419 5.17164 5.20973 2.8561 8.06859 2.8561C10.9274 2.8561 13.243 5.17164 13.243 8.0305C13.243 10.8894 10.9274 13.2049 8.06859 13.2049Z" fill="black"/>
</g>
<defs>
<clipPath id="clip0_7015_10410">
<rect width="15.5232" height="15.5232" fill="white" transform="translate(0.306152 0.269531)"/>
</clipPath>
</defs>
</svg>
