<svg width="52" height="53" viewBox="0 0 52 53" fill="none" xmlns="http://www.w3.org/2000/svg">
<path d="M44.1996 0H11.1C9.27516 0.000619844 7.50833 0.653248 6.10687 1.84433C4.70541 3.03542 3.75804 4.68957 3.42957 6.51899L0.127407 25.0689C-0.0783454 26.2149 -0.0344646 27.393 0.255944 28.5197C0.546352 29.6465 1.07619 30.6944 1.80796 31.5894C2.53974 32.4844 3.45557 33.2045 4.49064 33.6988C5.52571 34.1931 6.65472 34.4495 7.79779 34.4499H19.6544L18.1983 38.2394C17.5927 39.8986 17.391 41.6828 17.6105 43.4389C17.8301 45.195 18.4643 46.8706 19.4589 48.322C20.4534 49.7734 21.7786 50.9573 23.3207 51.772C24.8628 52.5868 26.5758 53.0081 28.3128 52.9999C28.813 52.9988 29.3022 52.8508 29.7219 52.5734C30.1416 52.2961 30.4739 51.9013 30.6789 51.4364L38.0893 34.4499H44.1996C46.2684 34.4499 48.2525 33.6123 49.7153 32.1214C51.1782 30.6305 52 28.6084 52 26.4999V7.94998C52 5.84152 51.1782 3.81941 49.7153 2.3285C48.2525 0.837585 46.2684 0 44.1996 0ZM33.7991 31.2434L26.7267 47.4614C26.0031 47.2382 25.332 46.8665 24.7546 46.3689C24.1773 45.8714 23.7061 45.2587 23.3699 44.5685C23.0338 43.8783 22.8398 43.1253 22.8 42.3559C22.7602 41.5864 22.8754 40.8168 23.1386 40.0944L24.5166 36.3049C24.8103 35.5039 24.9094 34.6425 24.8056 33.794C24.7017 32.9455 24.398 32.1352 23.9203 31.4323C23.4426 30.7293 22.8052 30.1546 22.0623 29.7572C21.3195 29.3598 20.4934 29.1514 19.6544 29.1499H7.79779C7.4158 29.1506 7.03837 29.0654 6.69234 28.9005C6.3463 28.7356 6.04016 28.4951 5.79569 28.1959C5.54521 27.9009 5.36173 27.5532 5.25836 27.1776C5.15498 26.8019 5.13425 26.4077 5.19766 26.0229L8.49983 7.47298C8.61058 6.85565 8.93271 6.29841 9.40886 5.90048C9.88501 5.50254 10.4843 5.28975 11.1 5.29999H33.7991V31.2434ZM46.7997 26.4999C46.7997 27.2028 46.5258 27.8768 46.0382 28.3738C45.5506 28.8707 44.8892 29.1499 44.1996 29.1499H38.9993V5.29999H44.1996C44.8892 5.29999 45.5506 5.57918 46.0382 6.07615C46.5258 6.57312 46.7997 7.24716 46.7997 7.94998V26.4999Z" fill="#FF2841"/>
</svg>
