<svg width="81" height="81" viewBox="0 0 81 81" fill="none" xmlns="http://www.w3.org/2000/svg">
<path opacity="0.15" d="M44.1004 53.9012H24.9004C24.0517 53.9012 23.2378 54.2424 22.6377 54.8496C22.0376 55.4568 21.7004 56.2804 21.7004 57.1391C21.7004 57.9979 22.0376 58.8215 22.6377 59.4287C23.2378 60.0359 24.0517 60.3771 24.9004 60.3771H44.1004C44.9491 60.3771 45.763 60.0359 46.3631 59.4287C46.9633 58.8215 47.3004 57.9979 47.3004 57.1391C47.3004 56.2804 46.9633 55.4568 46.3631 54.8496C45.763 54.2424 44.9491 53.9012 44.1004 53.9012ZM31.3004 34.4738H37.7004C38.5491 34.4738 39.363 34.1326 39.9631 33.5254C40.5633 32.9182 40.9004 32.0946 40.9004 31.2359C40.9004 30.3771 40.5633 29.5535 39.9631 28.9463C39.363 28.3391 38.5491 27.998 37.7004 27.998H31.3004C30.4517 27.998 29.6378 28.3391 29.0377 28.9463C28.4376 29.5535 28.1004 30.3771 28.1004 31.2359C28.1004 32.0946 28.4376 32.9182 29.0377 33.5254C29.6378 34.1326 30.4517 34.4738 31.3004 34.4738ZM69.7004 40.9496H60.1004V11.8084C60.1026 11.2378 59.9558 10.6768 59.6749 10.1821C59.3939 9.68746 58.9887 9.27669 58.5004 8.99142C58.0139 8.70723 57.4621 8.55762 56.9004 8.55762C56.3387 8.55762 55.7869 8.70723 55.3004 8.99142L45.7004 14.5606L36.1004 8.99142C35.6139 8.70723 35.0621 8.55762 34.5004 8.55762C33.9387 8.55762 33.3869 8.70723 32.9004 8.99142L23.3004 14.5606L13.7004 8.99142C13.214 8.70723 12.6621 8.55762 12.1004 8.55762C11.5387 8.55762 10.9869 8.70723 10.5004 8.99142C10.0121 9.27669 9.60692 9.68746 9.32595 10.1821C9.04498 10.6768 8.89818 11.2378 8.90042 11.8084V63.615C8.90042 66.1912 9.91184 68.6619 11.7122 70.4836C13.5125 72.3053 15.9543 73.3287 18.5004 73.3287H63.3004C65.8465 73.3287 68.2883 72.3053 70.0886 70.4836C71.889 68.6619 72.9004 66.1912 72.9004 63.615V44.1875C72.9004 43.3288 72.5633 42.5052 71.9631 41.898C71.363 41.2907 70.5491 40.9496 69.7004 40.9496ZM18.5004 66.8529C17.6517 66.8529 16.8378 66.5117 16.2377 65.9045C15.6376 65.2973 15.3004 64.4737 15.3004 63.615V17.41L21.7004 21.1012C22.1943 21.3622 22.7432 21.4985 23.3004 21.4985C23.8576 21.4985 24.4065 21.3622 24.9004 21.1012L34.5004 15.532L44.1004 21.1012C44.5943 21.3622 45.1432 21.4985 45.7004 21.4985C46.2576 21.4985 46.8065 21.3622 47.3004 21.1012L53.7004 17.41V63.615C53.7091 64.7196 53.9039 65.8146 54.2764 66.8529H18.5004ZM66.5004 63.615C66.5004 64.4737 66.1633 65.2973 65.5631 65.9045C64.963 66.5117 64.1491 66.8529 63.3004 66.8529C62.4517 66.8529 61.6378 66.5117 61.0377 65.9045C60.4375 65.2973 60.1004 64.4737 60.1004 63.615V47.4254H66.5004V63.615ZM44.1004 40.9496H24.9004C24.0517 40.9496 23.2378 41.2907 22.6377 41.898C22.0376 42.5052 21.7004 43.3288 21.7004 44.1875C21.7004 45.0463 22.0376 45.8698 22.6377 46.4771C23.2378 47.0843 24.0517 47.4254 24.9004 47.4254H44.1004C44.9491 47.4254 45.763 47.0843 46.3631 46.4771C46.9633 45.8698 47.3004 45.0463 47.3004 44.1875C47.3004 43.3288 46.9633 42.5052 46.3631 41.898C45.763 41.2907 44.9491 40.9496 44.1004 40.9496Z" fill="#0F1EFF"/>
</svg>
