<svg width="43" height="42" viewBox="0 0 43 42" fill="none" xmlns="http://www.w3.org/2000/svg">
<path d="M21.498 8.4C20.9411 8.4 20.4069 8.62125 20.0131 9.01508C19.6193 9.4089 19.398 9.94305 19.398 10.5V31.5C19.398 32.057 19.6193 32.5911 20.0131 32.9849C20.4069 33.3787 20.9411 33.6 21.498 33.6C22.055 33.6 22.5891 33.3787 22.983 32.9849C23.3768 32.5911 23.598 32.057 23.598 31.5V10.5C23.598 9.94305 23.3768 9.4089 22.983 9.01508C22.5891 8.62125 22.055 8.4 21.498 8.4ZM10.998 21C10.4411 21 9.90695 21.2213 9.51312 21.6151C9.1193 22.0089 8.89805 22.543 8.89805 23.1V31.5C8.89805 32.057 9.1193 32.5911 9.51312 32.9849C9.90695 33.3787 10.4411 33.6 10.998 33.6C11.555 33.6 12.0891 33.3787 12.483 32.9849C12.8768 32.5911 13.098 32.057 13.098 31.5V23.1C13.098 22.543 12.8768 22.0089 12.483 21.6151C12.0891 21.2213 11.555 21 10.998 21ZM31.998 16.8C31.4411 16.8 30.9069 17.0212 30.5131 17.4151C30.1193 17.8089 29.898 18.343 29.898 18.9V31.5C29.898 32.057 30.1193 32.5911 30.5131 32.9849C30.9069 33.3787 31.4411 33.6 31.998 33.6C32.555 33.6 33.0891 33.3787 33.483 32.9849C33.8768 32.5911 34.098 32.057 34.098 31.5V18.9C34.098 18.343 33.8768 17.8089 33.483 17.4151C33.0891 17.0212 32.555 16.8 31.998 16.8ZM36.198 0H6.79805C5.12718 0 3.52475 0.663748 2.34327 1.84523C1.1618 3.02671 0.498047 4.62914 0.498047 6.3V35.7C0.498047 37.3709 1.1618 38.9733 2.34327 40.1548C3.52475 41.3363 5.12718 42 6.79805 42H36.198C37.8689 42 39.4713 41.3363 40.6528 40.1548C41.8343 38.9733 42.498 37.3709 42.498 35.7V6.3C42.498 4.62914 41.8343 3.02671 40.6528 1.84523C39.4713 0.663748 37.8689 0 36.198 0ZM38.298 35.7C38.298 36.257 38.0768 36.7911 37.683 37.1849C37.2891 37.5788 36.755 37.8 36.198 37.8H6.79805C6.24109 37.8 5.70695 37.5788 5.31312 37.1849C4.9193 36.7911 4.69805 36.257 4.69805 35.7V6.3C4.69805 5.74304 4.9193 5.2089 5.31312 4.81508C5.70695 4.42125 6.24109 4.2 6.79805 4.2H36.198C36.755 4.2 37.2891 4.42125 37.683 4.81508C38.0768 5.2089 38.298 5.74304 38.298 6.3V35.7Z" fill="white"/>
</svg>
