<svg width="141" height="61" viewBox="0 0 141 61" fill="none" xmlns="http://www.w3.org/2000/svg">
<path d="M16.304 3.384V1.016H0.528V23H3.056V12.984H14.992V10.616H3.056V3.384H16.304ZM21.116 3.448C21.98 3.448 22.684 2.712 22.684 1.848C22.684 1.016 21.98 0.279999 21.116 0.279999C20.22 0.279999 19.516 1.016 19.516 1.848C19.516 2.712 20.22 3.448 21.116 3.448ZM19.9 23H22.3V6.456H19.9V23ZM27.1195 23H29.5195V0.631998H27.1195V23ZM41.8255 21.24C38.5615 21.24 36.2895 18.872 35.9375 15.64H49.4735C49.4735 9.848 46.6255 6.072 41.6335 6.072C37.1855 6.072 33.4735 9.752 33.4735 14.68C33.4735 19.768 37.4415 23.384 41.8575 23.384C44.1615 23.384 47.0735 22.392 48.5135 20.824L47.0415 19.256C46.0175 20.376 43.7775 21.24 41.8255 21.24ZM41.7295 8.216C45.0255 8.216 46.7855 10.52 47.1055 13.496H35.9695C36.4175 10.296 38.7855 8.216 41.7295 8.216ZM61.1128 23.352C66.2328 23.352 68.8568 20.504 68.8568 17.016C68.8568 13.144 65.8488 11.64 61.6568 10.648C57.9128 9.752 55.7368 8.952 55.7368 6.68C55.7368 4.664 57.7208 2.872 60.4408 2.872C62.7448 2.872 64.9208 3.928 66.7448 5.688L68.2808 3.736C66.2648 1.88 63.8328 0.599998 60.5688 0.599998C56.3448 0.599998 53.2088 3.352 53.2088 6.872C53.2088 10.68 55.9928 12.056 60.4088 13.08C64.2488 13.976 66.3288 14.904 66.3288 17.24C66.3288 19.224 64.6008 21.08 61.2088 21.08C58.1368 21.08 55.8648 19.768 54.0088 17.912L52.4408 19.864C54.6488 22.04 57.4968 23.352 61.1128 23.352ZM90.9138 6.072C88.4178 6.072 86.2418 7.448 85.5698 9.592C84.6738 7.448 82.7218 6.072 80.2258 6.072C78.0498 6.072 76.2578 7.16 75.4258 8.888V6.456H73.0258V23H75.4258V12.472C75.4258 9.976 77.2818 8.216 79.9058 8.216C82.1458 8.216 83.7138 10.104 83.7138 12.792V23H86.1138V12.472C86.1138 9.976 87.9698 8.216 90.5938 8.216C92.8338 8.216 94.4018 10.104 94.4018 12.792V23H96.8018V12.472C96.8018 8.728 94.3698 6.072 90.9138 6.072ZM108.371 6.072C106.771 6.072 104.787 6.488 102.419 7.672L103.379 9.624C104.883 8.856 106.547 8.12 108.211 8.12C111.795 8.12 112.691 10.68 112.691 12.92V13.528C110.995 12.984 109.107 12.6 107.315 12.6C103.763 12.6 100.819 14.808 100.819 18.104C100.819 21.368 103.379 23.384 106.867 23.384C109.043 23.384 111.507 22.36 112.691 20.408V23H115.091V12.92C115.091 8.92 112.883 6.072 108.371 6.072ZM107.283 21.272C104.947 21.272 103.155 20.056 103.155 18.008C103.155 16.024 105.235 14.616 107.699 14.616C109.491 14.616 111.187 14.872 112.691 15.288V17.816C112.051 20.152 109.459 21.272 107.283 21.272ZM122.619 9.688V6.456H120.219V23H122.619V13.752C122.619 10.52 125.275 8.216 129.019 8.216V6.072C125.979 6.072 123.611 7.48 122.619 9.688ZM139.602 20.568C139.25 20.952 138.61 21.24 137.874 21.24C136.914 21.24 136.082 20.376 136.082 19.16V8.6H140.146V6.456H136.082V1.912H133.682V6.456H131.09V8.6H133.682V19.16C133.682 21.624 135.346 23.384 137.714 23.384C138.834 23.384 139.922 23 140.786 22.328L139.602 20.568ZM16.816 36.664V33.016H0.272V55H16.816V51.352H4.272V45.624H15.632V41.976H4.272V36.664H16.816ZM35.687 55L29.479 46.52L35.399 38.456H31.143L27.367 43.608L23.591 38.456H19.303L25.223 46.552L19.015 55H23.271L27.335 49.464L31.367 55H35.687ZM48.2165 38.072C45.7525 38.072 43.7685 39.192 42.4565 41.08V38.456H38.5525V60.504H42.4565V52.376C43.7685 54.264 45.7525 55.384 48.2165 55.384C52.6005 55.384 55.8005 51.8 55.8005 46.712C55.8005 41.656 52.6005 38.072 48.2165 38.072ZM47.1605 52.056C44.4085 52.056 42.4885 49.816 42.4885 46.712C42.4885 43.608 44.4085 41.4 47.1605 41.4C49.9445 41.4 51.9285 43.608 51.9285 46.712C51.9285 49.816 49.9445 52.056 47.1605 52.056ZM67.0435 51.928C64.6755 51.928 62.9475 50.328 62.4675 48.056H74.9475C74.9475 41.944 71.9715 38.072 66.8515 38.072C62.1475 38.072 58.4355 41.72 58.4355 46.68C58.4355 51.768 62.3395 55.384 67.0755 55.384C69.4755 55.384 72.3555 54.36 73.7955 52.824L71.3315 50.264C70.4035 51.224 68.5795 51.928 67.0435 51.928ZM67.0115 41.528C69.3475 41.528 70.7555 43 71.2035 45.08H62.4995C63.0755 42.904 64.8355 41.528 67.0115 41.528ZM82.3315 41.656V38.456H78.4275V55H82.3315V46.648C82.3315 43.512 84.6995 41.4 88.2515 41.4V38.072C85.5315 38.072 83.3875 39.448 82.3315 41.656ZM99.4 51.448C99.048 51.8 98.44 52.056 97.768 52.056C96.84 52.056 96.136 51.256 96.136 50.136V41.688H99.88V38.456H96.136V33.912H92.328V38.456H89.928V41.688H92.328V50.616C92.328 53.4 94.248 55.384 97 55.384C98.248 55.384 99.592 54.872 100.52 54.072L99.4 51.448Z" fill="white"/>
</svg>
