<svg width="43" height="45" viewBox="0 0 43 45" fill="none" xmlns="http://www.w3.org/2000/svg">
<path d="M27.6639 20.925C28.7301 19.6469 29.3168 18.0618 29.3295 16.425C29.3295 14.4617 28.5164 12.5789 27.0689 11.1906C25.6215 9.80239 23.6584 9.02249 21.6114 9.02249C19.5644 9.02249 17.6013 9.80239 16.1539 11.1906C14.7065 12.5789 13.8933 14.4617 13.8933 16.425C13.906 18.0618 14.4927 19.6469 15.5589 20.925C13.4678 22.1455 11.8272 23.9629 10.8671 26.1225C10.7327 26.3965 10.6573 26.6937 10.6456 26.9963C10.6338 27.2989 10.6858 27.6007 10.7985 27.8835C10.9113 28.1664 11.0823 28.4245 11.3015 28.6424C11.5208 28.8603 11.7836 29.0336 12.0743 29.1518C12.3649 29.2699 12.6775 29.3306 12.9932 29.3302C13.3089 29.3298 13.6213 29.2682 13.9116 29.1492C14.202 29.0303 14.4643 28.8563 14.6828 28.6378C14.9014 28.4192 15.0717 28.1606 15.1836 27.8775C15.7227 26.6687 16.6183 25.6372 17.7602 24.9097C18.9021 24.1822 20.2406 23.7905 21.6114 23.7825C22.9862 23.7861 24.3299 24.1758 25.4763 24.9035C26.6228 25.6313 27.522 26.6652 28.0627 27.8775C28.2423 28.2842 28.5427 28.6312 28.9265 28.8752C29.3103 29.1193 29.7605 29.2496 30.221 29.25C30.5349 29.2444 30.845 29.1833 31.1359 29.07C31.708 28.8369 32.1602 28.3956 32.3934 27.8429C32.6265 27.2903 32.6214 26.6715 32.3792 26.1225C31.4129 23.9596 29.7637 22.1419 27.6639 20.925ZM21.6114 19.2825C21.0119 19.2825 20.4259 19.1117 19.9277 18.7917C19.4296 18.4718 19.0417 18.0171 18.8134 17.4855C18.585 16.9538 18.5265 16.369 18.6451 15.8054C18.7638 15.2418 19.0544 14.7247 19.48 14.3196C19.9056 13.9146 20.447 13.64 21.0355 13.5305C21.6241 13.4211 22.2333 13.4818 22.7859 13.7049C23.3384 13.9281 23.8094 14.3036 24.1391 14.7839C24.4688 15.2641 24.6423 15.8275 24.6377 16.4025C24.6315 17.1684 24.3099 17.9009 23.743 18.4403C23.1762 18.9798 22.41 19.2825 21.6114 19.2825ZM35.687 0H7.53584C5.6693 0 3.87921 0.711158 2.55937 1.97703C1.23953 3.2429 0.498047 4.95978 0.498047 6.74999V31.5C0.498047 33.2902 1.23953 35.0071 2.55937 36.2729C3.87921 37.5388 5.6693 38.25 7.53584 38.25H13.6118L19.9458 44.3475C20.165 44.556 20.425 44.721 20.7108 44.8329C20.9966 44.9449 21.3027 45.0017 21.6114 45C22.1706 45 22.7113 44.8085 23.1363 44.46L30.6902 38.25H35.687C37.5535 38.25 39.3436 37.5388 40.6635 36.2729C41.9833 35.0071 42.7248 33.2902 42.7248 31.5V6.74999C42.7248 4.95978 41.9833 3.2429 40.6635 1.97703C39.3436 0.711158 37.5535 0 35.687 0ZM38.0329 31.5C38.0329 32.0967 37.7858 32.669 37.3458 33.091C36.9059 33.5129 36.3092 33.75 35.687 33.75H29.8222C29.263 33.7499 28.7223 33.9414 28.2973 34.29L21.7287 39.69L16.2392 34.4025C16.02 34.1939 15.7601 34.029 15.4742 33.917C15.1884 33.805 14.8824 33.7483 14.5736 33.75H7.53584C6.91366 33.75 6.31696 33.5129 5.87702 33.091C5.43707 32.669 5.18991 32.0967 5.18991 31.5V6.74999C5.18991 6.15326 5.43707 5.58096 5.87702 5.15901C6.31696 4.73705 6.91366 4.5 7.53584 4.5H35.687C36.3092 4.5 36.9059 4.73705 37.3458 5.15901C37.7858 5.58096 38.0329 6.15326 38.0329 6.74999V31.5Z" fill="white"/>
</svg>
