<svg width="235" height="28" viewBox="0 0 235 28" fill="none" xmlns="http://www.w3.org/2000/svg">
<g clip-path="url(#clip0_7569_22358)">
<path d="M15.3 27.2291H0.5V1.53906H15.3V5.99906H5.95V11.6391H14.65V16.0991H5.95V22.7291H15.3V27.2291Z" fill="#4217BC"/>
<path d="M49.3303 23.3104C50.2703 23.3104 51.3903 23.1004 52.7103 22.6904V26.6804C51.3703 27.2804 49.7303 27.5804 47.7903 27.5804C45.6503 27.5804 44.0803 27.0404 43.1103 25.9504C42.1403 24.8604 41.6403 23.2404 41.6403 21.0704V11.6104H39.0703V9.34039L42.0203 7.55039L43.5703 3.40039H47.0003V7.58039H52.5003V11.6104H47.0003V21.0804C47.0003 21.8404 47.2103 22.4004 47.6403 22.7704C48.0703 23.1404 48.6303 23.3104 49.3403 23.3104H49.3303Z" fill="#4217BC"/>
<path d="M65.5705 27.5909C62.4105 27.5909 59.9305 26.7209 58.1505 24.9709C56.3705 23.2209 55.4805 20.7509 55.4805 17.5509C55.4805 14.3509 56.3005 11.7109 57.9505 9.91094C59.6005 8.11094 61.8705 7.21094 64.7805 7.21094C67.6905 7.21094 69.7205 8.00094 71.2705 9.58094C72.8205 11.1609 73.5905 13.3509 73.5905 16.1409V18.7409H60.9205C60.9805 20.2609 61.4305 21.4509 62.2705 22.3109C63.1105 23.1709 64.3005 23.5909 65.8205 23.5909C67.0005 23.5909 68.1205 23.4709 69.1805 23.2209C70.2405 22.9709 71.3405 22.5809 72.4805 22.0409V26.1909C71.5405 26.6609 70.5405 27.0109 69.4705 27.2409C68.4005 27.4709 67.1005 27.5809 65.5705 27.5809V27.5909ZM64.8105 11.0309C63.6705 11.0309 62.7805 11.3909 62.1405 12.1109C61.5005 12.8309 61.1305 13.8509 61.0305 15.1809H68.5505C68.5305 13.8609 68.1805 12.8309 67.5105 12.1109C66.8405 11.3909 65.9405 11.0309 64.8005 11.0309H64.8105Z" fill="#4217BC"/>
<path d="M96.0902 27.2309H90.7302V15.7609C90.7302 14.3409 90.4802 13.2809 89.9702 12.5709C89.4602 11.8609 88.6602 11.5109 87.5602 11.5109C86.0602 11.5109 84.9802 12.0109 84.3102 13.0109C83.6402 14.0109 83.3102 15.6709 83.3102 17.9909V27.2409H77.9502V7.58094H82.0502L82.7702 10.0909H83.0702C83.6702 9.14094 84.4902 8.42094 85.5402 7.94094C86.5902 7.46094 87.7802 7.21094 89.1202 7.21094C91.4102 7.21094 93.1402 7.83094 94.3202 9.06094C95.5002 10.2909 96.1002 12.0809 96.1002 14.4109V27.2209L96.0902 27.2309Z" fill="#4217BC"/>
<path d="M115.32 21.4009C115.32 23.4209 114.62 24.9509 113.22 26.0109C111.82 27.0709 109.72 27.5909 106.94 27.5909C105.51 27.5909 104.29 27.4909 103.28 27.3009C102.27 27.1109 101.33 26.8209 100.45 26.4509V22.0209C101.45 22.4909 102.57 22.8809 103.82 23.2009C105.07 23.5209 106.17 23.6709 107.12 23.6709C109.07 23.6709 110.04 23.1109 110.04 21.9809C110.04 21.5609 109.91 21.2209 109.65 20.9509C109.39 20.6809 108.95 20.3909 108.31 20.0509C107.67 19.7109 106.83 19.3309 105.78 18.8809C104.27 18.2509 103.16 17.6609 102.45 17.1209C101.74 16.5809 101.23 15.9609 100.9 15.2709C100.57 14.5809 100.42 13.7109 100.42 12.6909C100.42 10.9409 101.1 9.59094 102.45 8.64094C103.8 7.69094 105.72 7.21094 108.21 7.21094C110.7 7.21094 112.88 7.73094 115.12 8.76094L113.5 12.6309C112.52 12.2109 111.6 11.8609 110.74 11.5909C109.88 11.3209 109.01 11.1909 108.12 11.1909C106.54 11.1909 105.75 11.6209 105.75 12.4709C105.75 12.9509 106 13.3709 106.51 13.7209C107.02 14.0709 108.14 14.5909 109.86 15.2809C111.4 15.9009 112.52 16.4809 113.24 17.0209C113.96 17.5609 114.48 18.1809 114.82 18.8809C115.16 19.5809 115.33 20.4209 115.33 21.3909L115.32 21.4009Z" fill="#4217BC"/>
<path d="M124.87 27.2301H119.51V7.58008H124.87V27.2301Z" fill="#4217BC"/>
<path d="M148.35 17.3707C148.35 20.5707 147.51 23.0707 145.82 24.8807C144.13 26.6907 141.78 27.5907 138.77 27.5907C136.88 27.5907 135.22 27.1807 133.78 26.3507C132.34 25.5207 131.23 24.3407 130.46 22.7907C129.69 21.2407 129.3 19.4407 129.3 17.3807C129.3 14.1707 130.14 11.6707 131.81 9.8907C133.48 8.1107 135.84 7.2207 138.88 7.2207C140.77 7.2207 142.43 7.6307 143.87 8.4507C145.31 9.2707 146.42 10.4507 147.19 11.9807C147.96 13.5107 148.35 15.3107 148.35 17.3807V17.3707ZM134.76 17.3707C134.76 19.3207 135.08 20.7907 135.72 21.7807C136.36 22.7707 137.4 23.2707 138.84 23.2707C140.28 23.2707 141.3 22.7707 141.92 21.7807C142.54 20.7907 142.86 19.3207 142.86 17.3607C142.86 15.4007 142.54 13.9607 141.91 12.9807C141.28 12.0007 140.24 11.5207 138.8 11.5207C137.36 11.5207 136.34 12.0007 135.71 12.9707C135.08 13.9407 134.76 15.4007 134.76 17.3607V17.3707Z" fill="#4217BC"/>
<path d="M170.92 27.2309H165.56V15.7609C165.56 14.3409 165.31 13.2809 164.8 12.5709C164.29 11.8609 163.49 11.5109 162.39 11.5109C160.89 11.5109 159.81 12.0109 159.14 13.0109C158.47 14.0109 158.14 15.6709 158.14 17.9909V27.2409H152.78V7.58094H156.88L157.6 10.0909H157.9C158.5 9.14094 159.32 8.42094 160.37 7.94094C161.42 7.46094 162.61 7.21094 163.95 7.21094C166.24 7.21094 167.97 7.83094 169.15 9.06094C170.33 10.2909 170.93 12.0809 170.93 14.4109V27.2209L170.92 27.2309Z" fill="#4217BC"/>
<path d="M193.21 25.1798C193.73 25.1798 194.22 25.1398 194.7 25.0698C195.18 24.9998 195.56 24.9098 195.84 24.8298V27.0598C195.52 27.2098 195.06 27.3398 194.44 27.4398C193.82 27.5398 193.27 27.5898 192.78 27.5898C189.05 27.5898 187.19 25.6298 187.19 21.6998V10.2398H184.43V8.82977L187.19 7.61977L188.42 3.50977H190.11V7.96977H195.7V10.2398H190.11V21.5798C190.11 22.7398 190.39 23.6298 190.94 24.2498C191.49 24.8698 192.25 25.1798 193.21 25.1798Z" fill="#4217BC"/>
<path d="M211.54 27.2306L210.96 24.4906H210.82C209.86 25.7006 208.9 26.5106 207.95 26.9406C207 27.3706 205.8 27.5806 204.37 27.5806C202.46 27.5806 200.96 27.0906 199.88 26.1006C198.8 25.1106 198.25 23.7206 198.25 21.9006C198.25 18.0106 201.36 15.9706 207.58 15.7806L210.85 15.6706V14.4706C210.85 12.9606 210.52 11.8406 209.87 11.1206C209.22 10.4006 208.18 10.0406 206.75 10.0406C205.14 10.0406 203.33 10.5306 201.3 11.5206L200.4 9.29063C201.35 8.77063 202.39 8.37063 203.52 8.08063C204.65 7.79063 205.78 7.64062 206.92 7.64062C209.22 7.64062 210.92 8.15063 212.03 9.17063C213.14 10.1906 213.69 11.8206 213.69 14.0706V27.2206H211.53L211.54 27.2306ZM204.95 25.1706C206.77 25.1706 208.19 24.6706 209.23 23.6806C210.27 22.6906 210.79 21.2906 210.79 19.5006V17.7606L207.87 17.8806C205.55 17.9606 203.88 18.3206 202.85 18.9606C201.82 19.6006 201.31 20.5906 201.31 21.9406C201.31 22.9906 201.63 23.8006 202.27 24.3506C202.91 24.9006 203.8 25.1806 204.95 25.1806V25.1706Z" fill="#4217BC"/>
<path d="M38.1004 7.57031H32.0204L27.5704 13.7903L32.0204 7.57031L17.9404 27.2303H24.0204L38.1004 7.57031L32.4304 15.4903L38.1004 7.57031Z" fill="#4217BC"/>
<path d="M124.61 0H119.78V4.83H124.61V0Z" fill="#4217BC"/>
<path d="M24.7505 7.64062H17.9805V14.4106H24.7505V7.64062Z" fill="#4217BC"/>
<path d="M38.1596 20.8496H31.8896V27.1196H38.1596V20.8496Z" fill="#4217BC"/>
<path d="M182.95 20.4707H176.18V27.2407H182.95V20.4707Z" fill="#4217BC"/>
<path d="M224.05 17.6598L217.35 8.25977H220.67L225.75 15.6398L230.81 8.25977H234.1L227.4 17.6598L234.45 27.5198H231.15L225.75 19.7198L220.3 27.5198H217L224.05 17.6598Z" fill="#4217BC"/>
</g>
<defs>
<clipPath id="clip0_7569_22358">
<rect width="233.96" height="27.59" fill="white" transform="translate(0.5)"/>
</clipPath>
</defs>
</svg>
