<svg width="24" height="25" viewBox="0 0 24 25" fill="none" xmlns="http://www.w3.org/2000/svg">
<path d="M14.7233 12.0267C15.2031 11.4303 15.4671 10.6906 15.4728 9.92671C15.4728 9.01052 15.1069 8.13186 14.4556 7.48401C13.8044 6.83617 12.921 6.47222 12 6.47222C11.079 6.47222 10.1956 6.83617 9.54437 7.48401C8.8931 8.13186 8.52722 9.01052 8.52722 9.92671C8.53294 10.6906 8.79693 11.4303 9.27667 12.0267C8.33577 12.5963 7.59759 13.4444 7.16556 14.4522C7.10509 14.5801 7.07119 14.7188 7.06589 14.86C7.06059 15.0012 7.084 15.142 7.13472 15.274C7.18544 15.406 7.26242 15.5265 7.36105 15.6282C7.45969 15.7299 7.57794 15.8107 7.70874 15.8659C7.83953 15.921 7.98017 15.9493 8.12223 15.9491C8.26428 15.9489 8.40484 15.9202 8.53547 15.8647C8.66611 15.8092 8.78413 15.728 8.88247 15.626C8.98081 15.524 9.05744 15.4034 9.10778 15.2712C9.35038 14.7071 9.75332 14.2257 10.2671 13.8863C10.7809 13.5468 11.3832 13.3639 12 13.3602C12.6186 13.3619 13.2232 13.5438 13.739 13.8834C14.2549 14.223 14.6595 14.7055 14.9028 15.2712C14.9836 15.461 15.1188 15.6229 15.2914 15.7368C15.4641 15.8507 15.6667 15.9115 15.8739 15.9117C16.0151 15.9091 16.1547 15.8806 16.2856 15.8277C16.543 15.7189 16.7465 15.513 16.8514 15.2551C16.9562 14.9972 16.954 14.7084 16.845 14.4522C16.4102 13.4429 15.6682 12.5946 14.7233 12.0267ZM12 11.2602C11.7302 11.2602 11.4666 11.1805 11.2424 11.0312C11.0183 10.8819 10.8437 10.6697 10.741 10.4216C10.6383 10.1735 10.6119 9.90061 10.6653 9.63758C10.7187 9.37455 10.8495 9.13322 11.041 8.94422C11.2324 8.75521 11.4761 8.62704 11.7409 8.57597C12.0057 8.5249 12.2798 8.55323 12.5284 8.65736C12.7771 8.76149 12.989 8.93673 13.1373 9.16085C13.2857 9.38498 13.3638 9.64788 13.3617 9.91621C13.3589 10.2736 13.2142 10.6155 12.9591 10.8672C12.7041 11.119 12.3593 11.2602 12 11.2602ZM18.3333 2.26172H5.66667C4.82681 2.26172 4.02136 2.59359 3.4275 3.18433C2.83363 3.77507 2.5 4.57628 2.5 5.41172V16.9617C2.5 17.7971 2.83363 18.5984 3.4275 19.1891C4.02136 19.7798 4.82681 20.1117 5.66667 20.1117H8.40056L11.2506 22.9572C11.3492 23.0545 11.4662 23.1315 11.5948 23.1838C11.7234 23.236 11.8611 23.2625 12 23.2617C12.2516 23.2617 12.4949 23.1724 12.6861 23.0097L16.085 20.1117H18.3333C19.1732 20.1117 19.9786 19.7798 20.5725 19.1891C21.1664 18.5984 21.5 17.7971 21.5 16.9617V5.41172C21.5 4.57628 21.1664 3.77507 20.5725 3.18433C19.9786 2.59359 19.1732 2.26172 18.3333 2.26172ZM19.3889 16.9617C19.3889 17.2402 19.2777 17.5073 19.0797 17.7042C18.8818 17.9011 18.6133 18.0117 18.3333 18.0117H15.6944C15.4429 18.0117 15.1995 18.1011 15.0083 18.2637L12.0528 20.7837L9.58278 18.3162C9.48415 18.2189 9.36717 18.1419 9.23857 18.0896C9.10996 18.0374 8.97225 18.0109 8.83333 18.0117H5.66667C5.38672 18.0117 5.11823 17.9011 4.92028 17.7042C4.72232 17.5073 4.61111 17.2402 4.61111 16.9617V5.41172C4.61111 5.13324 4.72232 4.86617 4.92028 4.66925C5.11823 4.47234 5.38672 4.36172 5.66667 4.36172H18.3333C18.6133 4.36172 18.8818 4.47234 19.0797 4.66925C19.2777 4.86617 19.3889 5.13324 19.3889 5.41172V16.9617Z" fill="black"/>
</svg>
