<svg width="43" height="42" viewBox="0 0 43 42" fill="none" xmlns="http://www.w3.org/2000/svg">
<path d="M40.138 0H2.53106C1.91469 0 1.32356 0.243375 0.887723 0.676584C0.451883 1.10979 0.207031 1.69735 0.207031 2.31V39.69C0.207031 39.9934 0.267144 40.2937 0.383937 40.574C0.500731 40.8543 0.671917 41.1089 0.887723 41.3234C1.10353 41.5379 1.35973 41.7081 1.64169 41.8242C1.92365 41.9402 2.22586 42 2.53106 42H22.7712V25.725H17.2781V19.425H22.7712V14.7C22.6574 13.5907 22.7892 12.4701 23.1572 11.4167C23.5253 10.3634 24.1208 9.40284 24.9018 8.60246C25.6829 7.80208 26.6307 7.18125 27.6788 6.7835C28.7268 6.38575 29.8497 6.22073 30.9687 6.3C32.6131 6.28994 34.2567 6.37408 35.8914 6.552V12.222H32.5321C29.87 12.222 29.363 13.482 29.363 15.309V19.362H35.7012L34.8773 25.662H29.363V42H40.138C40.4432 42 40.7454 41.9402 41.0274 41.8242C41.3093 41.7081 41.5655 41.5379 41.7813 41.3234C41.9972 41.1089 42.1683 40.8543 42.2851 40.574C42.4019 40.2937 42.462 39.9934 42.462 39.69V2.31C42.462 2.00665 42.4019 1.70626 42.2851 1.426C42.1683 1.14574 41.9972 0.891087 41.7813 0.676584C41.5655 0.46208 41.3093 0.291927 41.0274 0.175838C40.7454 0.0597501 40.4432 0 40.138 0Z" fill="white"/>
</svg>
