<svg width="43" height="47" viewBox="0 0 43 47" fill="none" xmlns="http://www.w3.org/2000/svg">
<path d="M22.4554 46.7259C24.1095 45.6684 25.7686 44.6157 27.4228 43.5581C28.1715 43.081 28.9301 42.6088 29.6593 42.0972C31.3918 40.8823 33.0166 39.5 34.4603 37.9457C37.3183 34.8615 39.4913 31.2067 40.8665 27.2273C41.9872 23.9759 42.4668 20.5474 42.4668 17.114C42.4668 14.989 42.4668 12.8641 42.4668 10.7391C42.4668 10.6801 42.4668 10.626 42.4668 10.5669C42.4668 9.68645 41.8551 8.9191 41.028 8.66823C40.4309 8.48623 39.8387 8.29931 39.2661 8.05829C39.4228 8.12223 39.5794 8.1911 39.736 8.25504C38.7131 7.81726 37.7539 7.2565 36.873 6.57769C37.0051 6.68099 37.1373 6.78429 37.2694 6.88758C36.3983 6.20877 35.6152 5.42666 34.9399 4.5511C35.0427 4.68391 35.1454 4.81672 35.2482 4.94953C34.5728 4.06412 34.01 3.09509 33.5745 2.06704C33.6381 2.22445 33.7066 2.38185 33.7702 2.53926C33.6234 2.18509 33.4864 1.82109 33.3689 1.45709C33.1046 0.625796 32.3657 0.0109309 31.4798 0.0109309C30.8143 0.0109309 30.1487 0.0109309 29.4831 0.0109309C27.8877 0.0109309 26.2874 0.0109309 24.6919 0.0109309C22.7686 0.0109309 20.8453 0.0109309 18.9219 0.0109309C17.2531 0.0109309 15.5843 0.0109309 13.9154 0.0109309C13.1079 0.0109309 12.2955 -0.0136637 11.488 0.0109309C11.4782 0.0109309 11.4635 0.0109309 11.4537 0.0109309C10.563 0.0109309 9.82895 0.625796 9.56468 1.45709C9.44722 1.82601 9.31509 2.18509 9.16337 2.53926C9.22699 2.38185 9.29551 2.22445 9.35913 2.06704C8.92357 3.09509 8.36076 4.0592 7.68539 4.94953C7.78817 4.81672 7.89094 4.68391 7.99371 4.5511C7.31835 5.42666 6.53531 6.20877 5.66419 6.88758C5.79632 6.78429 5.92846 6.68099 6.0606 6.57769C5.17968 7.2565 4.21557 7.81726 3.19763 8.25504C3.35424 8.1911 3.51084 8.12223 3.66745 8.05829C3.08996 8.29931 2.50269 8.48623 1.90562 8.66823C1.07854 8.9191 0.466797 9.68645 0.466797 10.5669C0.466797 12.5443 0.466797 14.5217 0.466797 16.4992C0.466797 17.542 0.466797 18.5848 0.540206 19.6276C0.696813 21.7476 1.05407 23.8628 1.64624 25.9041C2.82079 29.9573 4.85668 33.6908 7.55815 36.9127C9.65766 39.4164 12.1878 41.443 14.9285 43.1892C16.7343 44.3402 18.5402 45.4913 20.3461 46.6423C20.3901 46.6718 20.4391 46.7013 20.4831 46.7308C21.3493 47.2818 22.6805 46.9424 23.1601 46.0225C23.6691 45.0486 23.3803 43.9221 22.4554 43.3319C21.5745 42.7711 20.6936 42.2104 19.8175 41.6496C18.6919 40.9314 17.5712 40.2182 16.4456 39.5C15.6577 38.9983 14.8893 38.4621 14.1454 37.8915C14.2776 37.9948 14.4097 38.0981 14.5418 38.2014C12.6919 36.7602 11.028 35.0878 9.59404 33.2284C9.69681 33.3612 9.79959 33.494 9.90236 33.6268C8.44396 31.7232 7.23026 29.6376 6.29551 27.4241C6.35913 27.5815 6.42765 27.7389 6.49127 27.8963C5.53694 25.6188 4.88605 23.2282 4.55815 20.7786C4.58262 20.9508 4.60709 21.1279 4.62667 21.3C4.41623 19.7063 4.38197 18.1126 4.38197 16.5139C4.38197 14.9595 4.38197 13.4052 4.38197 11.8508C4.38197 11.4277 4.38197 11.0096 4.38197 10.5866C3.90236 11.2212 3.42275 11.8508 2.94314 12.4853C4.63156 11.9737 6.26614 11.2949 7.70008 10.257C9.39828 9.02731 10.8469 7.51229 11.9236 5.70212C12.5157 4.7085 12.9905 3.62634 13.3428 2.5245C12.7115 3.00655 12.0851 3.48861 11.4537 3.97066C12.1193 3.97066 12.7849 3.97066 13.4505 3.97066C15.0459 3.97066 16.6462 3.97066 18.2417 3.97066C20.165 3.97066 22.0883 3.97066 24.0117 3.97066C25.6805 3.97066 27.3493 3.97066 29.0182 3.97066C29.8257 3.97066 30.6381 3.99034 31.4456 3.97066C31.4554 3.97066 31.4701 3.97066 31.4798 3.97066C30.8485 3.48861 30.2221 3.00655 29.5908 2.5245C30.8192 6.37602 33.6087 9.7258 37.2694 11.4573C38.1503 11.8754 39.0557 12.2 39.9905 12.4853C39.5108 11.8508 39.0312 11.2212 38.5516 10.5866C38.5516 11.6885 38.5516 12.7903 38.5516 13.8921C38.5516 15.1169 38.5516 16.3417 38.5516 17.5616C38.5516 18.811 38.4684 20.0605 38.3069 21.3C38.3314 21.1279 38.3559 20.9508 38.3754 20.7786C38.0427 23.2233 37.3918 25.6188 36.4423 27.8963C36.506 27.7389 36.5745 27.5815 36.6381 27.4241C35.7033 29.6376 34.4896 31.7232 33.0312 33.6268C33.134 33.494 33.2368 33.3612 33.3396 33.2284C31.9056 35.0878 30.2417 36.7602 28.3918 38.2014C28.5239 38.0981 28.656 37.9948 28.7882 37.8915C27.6919 38.7425 26.5272 39.4754 25.3624 40.2231C24.0704 41.0495 22.7784 41.871 21.4864 42.6973C21.1536 42.9088 20.8159 43.1253 20.4831 43.3368C20.0573 43.6073 19.7197 44.0156 19.5826 44.5124C19.4554 44.9846 19.5141 45.6093 19.7784 46.0274C20.3363 46.8932 21.5304 47.3162 22.4554 46.7259Z" fill="white"/>
<path d="M11.4935 23.4055C13.1673 25.0878 14.841 26.7701 16.5196 28.4573C16.7594 28.6983 16.9992 28.9393 17.2341 29.1754C17.9829 29.928 19.2554 29.928 20.0041 29.1754C21.2961 27.8768 22.593 26.5733 23.885 25.2747C25.9307 23.2186 27.9813 21.1576 30.027 19.1015C30.4968 18.6293 30.9715 18.1521 31.4413 17.6799C32.1656 16.9519 32.2195 15.614 31.4413 14.8958C30.6583 14.1727 29.4446 14.1186 28.6713 14.8958C27.3793 16.1944 26.0824 17.4979 24.7904 18.7965C22.7447 20.8526 20.6942 22.9136 18.6485 24.9697C18.1787 25.442 17.704 25.9191 17.2341 26.3913C18.1591 26.3913 19.0792 26.3913 20.0041 26.3913C18.3304 24.709 16.6567 23.0268 14.978 21.3396C14.7382 21.0986 14.4984 20.8575 14.2635 20.6214C13.5392 19.8934 12.208 19.8393 11.4935 20.6214C10.7741 21.4084 10.7203 22.6234 11.4935 23.4055Z" fill="white"/>
</svg>
