<svg width="29" height="35" viewBox="0 0 29 35" fill="none" xmlns="http://www.w3.org/2000/svg">
<path d="M14.9834 33.89C16.1105 33.1367 17.2409 32.3868 18.368 31.6335C18.8782 31.2936 19.3951 30.9572 19.8919 30.5928C21.0724 29.7274 22.1795 28.7428 23.1632 27.6355C25.1106 25.4386 26.5912 22.8351 27.5282 20.0005C28.2918 17.6844 28.6186 15.2421 28.6186 12.7964C28.6186 11.2827 28.6186 9.76901 28.6186 8.25531C28.6186 8.21327 28.6186 8.17472 28.6186 8.13268C28.6186 7.50547 28.2018 6.95886 27.6382 6.78016C27.2314 6.65052 26.8279 6.51737 26.4378 6.34567C26.5445 6.39123 26.6512 6.44028 26.7579 6.48583C26.061 6.17398 25.4074 5.77454 24.8071 5.29099C24.8972 5.36458 24.9872 5.43816 25.0772 5.51174C24.4837 5.0282 23.9501 4.47108 23.49 3.84738C23.56 3.94198 23.63 4.03659 23.7001 4.1312C23.2399 3.50049 22.8564 2.81022 22.5596 2.0779C22.603 2.19002 22.6497 2.30215 22.693 2.41427C22.593 2.16199 22.4996 1.9027 22.4196 1.64341C22.2395 1.05125 21.736 0.613255 21.1324 0.613255C20.6789 0.613255 20.2254 0.613255 19.7719 0.613255C18.6848 0.613255 17.5944 0.613255 16.5073 0.613255C15.1968 0.613255 13.8863 0.613255 12.5758 0.613255C11.4387 0.613255 10.3016 0.613255 9.16449 0.613255C8.61428 0.613255 8.06073 0.595736 7.51052 0.613255C7.50385 0.613255 7.49385 0.613255 7.48718 0.613255C6.88028 0.613255 6.38009 1.05125 6.20002 1.64341C6.11999 1.9062 6.02995 2.16199 5.92658 2.41427C5.96993 2.30215 6.01661 2.19002 6.05996 2.0779C5.76318 2.81022 5.3797 3.49698 4.91953 4.1312C4.98955 4.03659 5.05958 3.94198 5.12961 3.84738C4.66943 4.47108 4.13589 5.0282 3.54233 5.51174C3.63237 5.43816 3.7224 5.36458 3.81244 5.29099C3.21221 5.77454 2.55529 6.17398 1.86169 6.48583C1.9684 6.44028 2.0751 6.39123 2.18181 6.34567C1.78833 6.51737 1.38817 6.65052 0.981352 6.78016C0.417803 6.95886 0.000976562 7.50547 0.000976562 8.13268C0.000976562 9.54125 0.000976562 10.9498 0.000976562 12.3584C0.000976562 13.1012 0.000976562 13.8441 0.0509957 14.5869C0.157703 16.0971 0.40113 17.6038 0.804618 19.0579C1.60492 21.9451 2.99212 24.6046 4.83283 26.8997C6.26337 28.6832 7.98737 30.1268 9.85475 31.3707C11.0852 32.1906 12.3157 33.0105 13.5462 33.8305C13.5762 33.8515 13.6095 33.8725 13.6395 33.8935C14.2298 34.286 15.1368 34.0442 15.4636 33.389C15.8104 32.6952 15.6136 31.8928 14.9834 31.4723C14.3832 31.0729 13.7829 30.6734 13.186 30.274C12.4191 29.7624 11.6554 29.2543 10.8885 28.7428C10.3516 28.3854 9.82807 28.0034 9.32121 27.597C9.41125 27.6706 9.50128 27.7441 9.59132 27.8177C8.33083 26.7911 7.19707 25.5997 6.22003 24.2753C6.29005 24.3699 6.36008 24.4645 6.43011 24.5591C5.43639 23.2031 4.60941 21.7174 3.9725 20.1406C4.01585 20.2528 4.06253 20.3649 4.10588 20.477C3.45563 18.8547 3.01213 17.1518 2.78871 15.4068C2.80538 15.5295 2.82206 15.6556 2.8354 15.7782C2.69201 14.643 2.66866 13.5077 2.66866 12.3689C2.66866 11.2617 2.66866 10.1544 2.66866 9.0472C2.66866 8.74586 2.66866 8.44803 2.66866 8.14669C2.34187 8.5987 2.01508 9.0472 1.68829 9.49921C2.83873 9.1348 3.95249 8.65126 4.92953 7.91193C6.08664 7.03595 7.07369 5.95674 7.8073 4.6673C8.21079 3.9595 8.53425 3.18864 8.77434 2.40376C8.34417 2.74715 7.91734 3.09053 7.48718 3.43391C7.94068 3.43391 8.39419 3.43391 8.8477 3.43391C9.93478 3.43391 11.0252 3.43391 12.1123 3.43391C13.4228 3.43391 14.7333 3.43391 16.0438 3.43391C17.1809 3.43391 18.318 3.43391 19.4551 3.43391C20.0053 3.43391 20.5589 3.44793 21.1091 3.43391C21.1157 3.43391 21.1257 3.43391 21.1324 3.43391C20.7022 3.09053 20.2754 2.74715 19.8452 2.40376C20.6822 5.14733 22.583 7.53351 25.0772 8.76689C25.6775 9.06472 26.2944 9.29598 26.9313 9.49921C26.6045 9.0472 26.2777 8.5987 25.9509 8.14669C25.9509 8.93157 25.9509 9.71645 25.9509 10.5013C25.9509 11.3738 25.9509 12.2463 25.9509 13.1153C25.9509 14.0053 25.8942 14.8953 25.7842 15.7782C25.8009 15.6556 25.8175 15.5295 25.8309 15.4068C25.6041 17.1483 25.1606 18.8547 24.5137 20.477C24.557 20.3649 24.6037 20.2528 24.6471 20.1406C24.0102 21.7174 23.1832 23.2031 22.1895 24.5591C22.2595 24.4645 22.3295 24.3699 22.3996 24.2753C21.4225 25.5997 20.2887 26.7911 19.0283 27.8177C19.1183 27.7441 19.2083 27.6706 19.2984 27.597C18.5514 28.2032 17.7578 28.7252 16.9641 29.2578C16.0838 29.8465 15.2035 30.4317 14.3231 31.0203C14.0964 31.171 13.8663 31.3252 13.6395 31.4758C13.3494 31.6685 13.1193 31.9594 13.026 32.3133C12.9393 32.6496 12.9793 33.0946 13.1594 33.3925C13.5395 34.0092 14.3531 34.3105 14.9834 33.89Z" fill="black"/>
<path d="M7.51336 17.2771C8.65379 18.4755 9.79423 19.6738 10.938 20.8757C11.1014 21.0474 11.2648 21.2191 11.4249 21.3872C11.935 21.9233 12.802 21.9233 13.3122 21.3872C14.1926 20.4622 15.0763 19.5337 15.9566 18.6086C17.3505 17.144 18.7477 15.6758 20.1415 14.2112C20.4616 13.8748 20.7851 13.5349 21.1052 13.1986C21.5987 12.68 21.6354 11.7269 21.1052 11.2153C20.5717 10.7003 19.7447 10.6617 19.2178 11.2153C18.3375 12.1404 17.4538 13.0689 16.5735 13.994C15.1796 15.4586 13.7824 16.9267 12.3886 18.3914C12.0684 18.7278 11.745 19.0676 11.4249 19.404C12.0551 19.404 12.682 19.404 13.3122 19.404C12.1718 18.2057 11.0314 17.0073 9.8876 15.8055C9.7242 15.6338 9.56081 15.4621 9.40074 15.2939C8.90722 14.7753 8.00021 14.7368 7.51336 15.2939C7.02317 15.8545 6.98649 16.72 7.51336 17.2771Z" fill="black"/>
</svg>
