<svg width="43" height="52" viewBox="0 0 43 52" fill="none" xmlns="http://www.w3.org/2000/svg">
<path d="M13.623 20.8H16.248C16.9442 20.8 17.6119 20.5261 18.1042 20.0385C18.5965 19.5509 18.873 18.8896 18.873 18.2C18.873 17.5104 18.5965 16.8491 18.1042 16.3615C17.6119 15.8739 16.9442 15.6 16.248 15.6H13.623C12.9269 15.6 12.2592 15.8739 11.7669 16.3615C11.2746 16.8491 10.998 17.5104 10.998 18.2C10.998 18.8896 11.2746 19.5509 11.7669 20.0385C12.2592 20.5261 12.9269 20.8 13.623 20.8ZM13.623 26C12.9269 26 12.2592 26.2739 11.7669 26.7615C11.2746 27.2491 10.998 27.9104 10.998 28.6C10.998 29.2896 11.2746 29.9509 11.7669 30.4385C12.2592 30.9261 12.9269 31.2 13.623 31.2H29.373C30.0692 31.2 30.7369 30.9261 31.2292 30.4385C31.7215 29.9509 31.998 29.2896 31.998 28.6C31.998 27.9104 31.7215 27.2491 31.2292 26.7615C30.7369 26.2739 30.0692 26 29.373 26H13.623ZM42.498 18.044C42.4707 17.8051 42.4179 17.5698 42.3405 17.342V17.108C42.2143 16.8407 42.046 16.5949 41.8418 16.38L26.0918 0.78C25.8748 0.577762 25.6267 0.411011 25.3568 0.286C25.2784 0.274976 25.1989 0.274976 25.1205 0.286C24.8539 0.134527 24.5594 0.0372949 24.2543 0H8.37305C6.28447 0 4.28143 0.821784 2.80458 2.28457C1.32773 3.74735 0.498047 5.73131 0.498047 7.8V44.2C0.498047 46.2687 1.32773 48.2526 2.80458 49.7154C4.28143 51.1782 6.28447 52 8.37305 52H34.623C36.7116 52 38.7147 51.1782 40.1915 49.7154C41.6684 48.2526 42.498 46.2687 42.498 44.2V18.2C42.498 18.2 42.498 18.2 42.498 18.044ZM26.748 8.866L33.5468 15.6H29.373C28.6769 15.6 28.0092 15.3261 27.5169 14.8385C27.0246 14.3509 26.748 13.6896 26.748 13V8.866ZM37.248 44.2C37.248 44.8896 36.9715 45.5509 36.4792 46.0385C35.9869 46.5261 35.3192 46.8 34.623 46.8H8.37305C7.67685 46.8 7.00917 46.5261 6.51689 46.0385C6.02461 45.5509 5.74805 44.8896 5.74805 44.2V7.8C5.74805 7.11044 6.02461 6.44912 6.51689 5.96152C7.00917 5.47393 7.67685 5.2 8.37305 5.2H21.498V13C21.498 15.0687 22.3277 17.0527 23.8046 18.5154C25.2814 19.9782 27.2845 20.8 29.373 20.8H37.248V44.2ZM29.373 36.4H13.623C12.9269 36.4 12.2592 36.6739 11.7669 37.1615C11.2746 37.6491 10.998 38.3104 10.998 39C10.998 39.6896 11.2746 40.3509 11.7669 40.8385C12.2592 41.3261 12.9269 41.6 13.623 41.6H29.373C30.0692 41.6 30.7369 41.3261 31.2292 40.8385C31.7215 40.3509 31.998 39.6896 31.998 39C31.998 38.3104 31.7215 37.6491 31.2292 37.1615C30.7369 36.6739 30.0692 36.4 29.373 36.4Z" fill="white"/>
</svg>
