<svg width="33" height="33" viewBox="0 0 33 33" fill="none" xmlns="http://www.w3.org/2000/svg">
<path d="M17.851 20.2085H11.7956C11.528 20.2085 11.2713 20.3168 11.082 20.5096C10.8928 20.7024 10.7864 20.9639 10.7864 21.2366C10.7864 21.5092 10.8928 21.7707 11.082 21.9635C11.2713 22.1563 11.528 22.2646 11.7956 22.2646H17.851C18.1187 22.2646 18.3754 22.1563 18.5646 21.9635C18.7539 21.7707 18.8602 21.5092 18.8602 21.2366C18.8602 20.9639 18.7539 20.7024 18.5646 20.5096C18.3754 20.3168 18.1187 20.2085 17.851 20.2085ZM13.8141 14.0401H15.8326C16.1002 14.0401 16.3569 13.9318 16.5462 13.739C16.7354 13.5462 16.8418 13.2847 16.8418 13.0121C16.8418 12.7394 16.7354 12.4779 16.5462 12.2851C16.3569 12.0923 16.1002 11.984 15.8326 11.984H13.8141C13.5464 11.984 13.2897 12.0923 13.1005 12.2851C12.9112 12.4779 12.8049 12.7394 12.8049 13.0121C12.8049 13.2847 12.9112 13.5462 13.1005 13.739C13.2897 13.9318 13.5464 14.0401 13.8141 14.0401ZM25.9248 16.0962H22.8971V6.84367C22.8978 6.66252 22.8515 6.48439 22.7629 6.32732C22.6743 6.17026 22.5465 6.03983 22.3925 5.94926C22.2391 5.85903 22.0651 5.81152 21.8879 5.81152C21.7108 5.81152 21.5367 5.85903 21.3833 5.94926L18.3556 7.71753L15.3279 5.94926C15.1745 5.85903 15.0005 5.81152 14.8233 5.81152C14.6462 5.81152 14.4721 5.85903 14.3187 5.94926L11.291 7.71753L8.26336 5.94926C8.10994 5.85903 7.9359 5.81152 7.75875 5.81152C7.58159 5.81152 7.40755 5.85903 7.25413 5.94926C7.10012 6.03983 6.97234 6.17026 6.88372 6.32732C6.79511 6.48439 6.74881 6.66252 6.74952 6.84367V23.2927C6.74952 24.1107 7.06851 24.8951 7.63631 25.4735C8.20411 26.0519 8.97421 26.3769 9.7772 26.3769H23.9064C24.7093 26.3769 25.4795 26.0519 26.0472 25.4735C26.615 24.8951 26.934 24.1107 26.934 23.2927V17.1243C26.934 16.8517 26.8277 16.5902 26.6384 16.3974C26.4492 16.2046 26.1925 16.0962 25.9248 16.0962ZM9.7772 24.3208C9.50953 24.3208 9.25283 24.2124 9.06357 24.0196C8.8743 23.8268 8.76797 23.5654 8.76797 23.2927V8.62222L10.7864 9.79422C10.9422 9.87709 11.1153 9.92037 11.291 9.92037C11.4668 9.92037 11.6399 9.87709 11.7956 9.79422L14.8233 8.02595L17.851 9.79422C18.0068 9.87709 18.1799 9.92037 18.3556 9.92037C18.5313 9.92037 18.7045 9.87709 18.8602 9.79422L20.8787 8.62222V23.2927C20.8814 23.6434 20.9428 23.9911 21.0603 24.3208H9.7772ZM24.9156 23.2927C24.9156 23.5654 24.8093 23.8268 24.62 24.0196C24.4307 24.2124 24.174 24.3208 23.9064 24.3208C23.6387 24.3208 23.382 24.2124 23.1927 24.0196C23.0035 23.8268 22.8971 23.5654 22.8971 23.2927V18.1524H24.9156V23.2927ZM17.851 16.0962H11.7956C11.528 16.0962 11.2713 16.2046 11.082 16.3974C10.8928 16.5902 10.7864 16.8517 10.7864 17.1243C10.7864 17.397 10.8928 17.6585 11.082 17.8513C11.2713 18.0441 11.528 18.1524 11.7956 18.1524H17.851C18.1187 18.1524 18.3754 18.0441 18.5646 17.8513C18.7539 17.6585 18.8602 17.397 18.8602 17.1243C18.8602 16.8517 18.7539 16.5902 18.5646 16.3974C18.3754 16.2046 18.1187 16.0962 17.851 16.0962Z" fill="black"/>
</svg>
