<svg width="43" height="50" viewBox="0 0 43 50" fill="none" xmlns="http://www.w3.org/2000/svg">
<path d="M32.2505 22.5H29.6318V12.5H34.8692C35.5637 12.5 36.2298 12.7634 36.7209 13.2322C37.212 13.7011 37.4879 14.337 37.4879 15C37.4879 15.663 37.7638 16.2989 38.2549 16.7678C38.746 17.2366 39.4121 17.5 40.1066 17.5C40.8011 17.5 41.4672 17.2366 41.9583 16.7678C42.4494 16.2989 42.7253 15.663 42.7253 15C42.7253 13.0109 41.8976 11.1032 40.4243 9.6967C38.951 8.29018 36.9528 7.5 34.8692 7.5H29.6318V2.5C29.6318 1.83696 29.3559 1.20107 28.8648 0.732233C28.3737 0.263392 27.7076 0 27.0131 0C26.3185 0 25.6525 0.263392 25.1613 0.732233C24.6702 1.20107 24.3943 1.83696 24.3943 2.5V7.5H21.7756C18.9975 7.5 16.3332 8.55357 14.3688 10.4289C12.4044 12.3043 11.3008 14.8478 11.3008 17.5C11.3008 20.1522 12.4044 22.6957 14.3688 24.5711C16.3332 26.4464 18.9975 27.5 21.7756 27.5H24.3943V37.5H19.1569C18.4624 37.5 17.7963 37.2366 17.3052 36.7678C16.8141 36.2989 16.5382 35.663 16.5382 35C16.5382 34.337 16.2623 33.7011 15.7712 33.2322C15.2801 32.7634 14.614 32.5 13.9195 32.5C13.225 32.5 12.5589 32.7634 12.0678 33.2322C11.5767 33.7011 11.3008 34.337 11.3008 35C11.3008 36.9891 12.1285 38.8968 13.6018 40.3033C15.0751 41.7098 17.0733 42.5 19.1569 42.5H24.3943V47.5C24.3943 48.163 24.6702 48.7989 25.1613 49.2678C25.6525 49.7366 26.3185 50 27.0131 50C27.7076 50 28.3737 49.7366 28.8648 49.2678C29.3559 48.7989 29.6318 48.163 29.6318 47.5V42.5H32.2505C35.0286 42.5 37.6929 41.4464 39.6573 39.5711C41.6217 37.6957 42.7253 35.1522 42.7253 32.5C42.7253 29.8478 41.6217 27.3043 39.6573 25.4289C37.6929 23.5536 35.0286 22.5 32.2505 22.5ZM24.3943 22.5H21.7756C20.3866 22.5 19.0544 21.9732 18.0722 21.0355C17.09 20.0979 16.5382 18.8261 16.5382 17.5C16.5382 16.1739 17.09 14.9021 18.0722 13.9645C19.0544 13.0268 20.3866 12.5 21.7756 12.5H24.3943V22.5ZM32.2505 37.5H29.6318V27.5H32.2505C33.6395 27.5 34.9717 28.0268 35.9539 28.9645C36.9361 29.9021 37.4879 31.1739 37.4879 32.5C37.4879 33.8261 36.9361 35.0979 35.9539 36.0355C34.9717 36.9732 33.6395 37.5 32.2505 37.5Z" fill="white"/>
<ellipse cx="11.3006" cy="10.185" rx="9.82017" ry="9.25926" fill="#0F1E32"/>
<path d="M14.2384 6.91574L9.6043 11.2954L7.82193 9.61481C7.7251 9.50819 7.60593 9.4216 7.47191 9.36046C7.33789 9.29933 7.19192 9.26497 7.04316 9.25955C6.89439 9.25414 6.74604 9.27777 6.60742 9.32898C6.4688 9.38018 6.3429 9.45785 6.23763 9.55711C6.13236 9.65637 6.04998 9.77508 5.99568 9.90578C5.94137 10.0365 5.9163 10.1764 5.92205 10.3166C5.92779 10.4569 5.96423 10.5945 6.02907 10.7209C6.09391 10.8473 6.18575 10.9596 6.29883 11.0509L8.83734 13.4546C8.93828 13.549 9.05798 13.6237 9.18959 13.6744C9.3212 13.7251 9.46213 13.7508 9.6043 13.75C9.88768 13.7489 10.1592 13.6428 10.3604 13.4546L15.7615 8.36203C15.8628 8.26735 15.9432 8.1547 15.998 8.03059C16.0528 7.90647 16.0811 7.77334 16.0811 7.63889C16.0811 7.50443 16.0528 7.3713 15.998 7.24719C15.9432 7.12307 15.8628 7.01042 15.7615 6.91574C15.5591 6.72604 15.2854 6.61956 15 6.61956C14.7146 6.61956 14.4408 6.72604 14.2384 6.91574ZM11.3002 0C9.16377 0 7.07528 0.597351 5.29887 1.71651C3.52245 2.83568 2.13791 4.42638 1.32032 6.28748C0.502727 8.14858 0.288808 10.1965 0.705613 12.1722C1.12242 14.1479 2.15123 15.9628 3.66194 17.3872C5.17265 18.8116 7.09742 19.7817 9.19284 20.1747C11.2883 20.5677 13.4602 20.366 15.4341 19.5951C17.4079 18.8242 19.095 17.5187 20.2819 15.8438C21.4689 14.1688 22.1024 12.1996 22.1024 10.1852C22.1024 8.84764 21.823 7.5232 21.2802 6.28748C20.7373 5.05176 19.9416 3.92895 18.9385 2.98317C17.9355 2.03739 16.7446 1.28715 15.4341 0.775301C14.1235 0.263448 12.7188 0 11.3002 0ZM11.3002 18.3333C9.59106 18.3333 7.92027 17.8554 6.49914 16.9601C5.07801 16.0648 3.97038 14.7922 3.3163 13.3033C2.66223 11.8145 2.49109 10.1761 2.82454 8.59556C3.15798 7.01497 3.98103 5.56311 5.1896 4.42357C6.39817 3.28403 7.93798 2.508 9.61432 2.1936C11.2907 1.8792 13.0282 2.04056 14.6073 2.65728C16.1864 3.27399 17.536 4.31836 18.4856 5.65832C19.4352 6.99827 19.942 8.57363 19.942 10.1852C19.942 12.3462 19.0315 14.4187 17.4109 15.9468C15.7902 17.4749 13.5922 18.3333 11.3002 18.3333Z" fill="white"/>
</svg>
