<svg width="32" height="54" viewBox="0 0 32 54" fill="none" xmlns="http://www.w3.org/2000/svg">
<path d="M21.3333 24.3H18.6667V13.5H24C24.7072 13.5 25.3855 13.7845 25.8856 14.2908C26.3857 14.7972 26.6667 15.4839 26.6667 16.2C26.6667 16.9161 26.9476 17.6028 27.4477 18.1092C27.9478 18.6155 28.6261 18.9 29.3333 18.9C30.0406 18.9 30.7189 18.6155 31.219 18.1092C31.7191 17.6028 32 16.9161 32 16.2C32 14.0517 31.1571 11.9915 29.6569 10.4724C28.1566 8.95339 26.1217 8.1 24 8.1H18.6667V2.7C18.6667 1.98392 18.3857 1.29716 17.8856 0.790812C17.3855 0.284463 16.7072 0 16 0C15.2928 0 14.6145 0.284463 14.1144 0.790812C13.6143 1.29716 13.3333 1.98392 13.3333 2.7V8.1H10.6667C7.83769 8.1 5.12458 9.23785 3.12419 11.2632C1.12381 13.2886 0 16.0357 0 18.9C0 21.7643 1.12381 24.5114 3.12419 26.5368C5.12458 28.5621 7.83769 29.7 10.6667 29.7H13.3333V40.5H8C7.29276 40.5 6.61448 40.2155 6.11438 39.7092C5.61429 39.2028 5.33333 38.5161 5.33333 37.8C5.33333 37.0839 5.05238 36.3972 4.55228 35.8908C4.05219 35.3845 3.37391 35.1 2.66667 35.1C1.95942 35.1 1.28115 35.3845 0.781049 35.8908C0.280952 36.3972 0 37.0839 0 37.8C0 39.9483 0.842855 42.0085 2.34315 43.5276C3.84344 45.0466 5.87827 45.9 8 45.9H13.3333V51.3C13.3333 52.0161 13.6143 52.7028 14.1144 53.2092C14.6145 53.7155 15.2928 54 16 54C16.7072 54 17.3855 53.7155 17.8856 53.2092C18.3857 52.7028 18.6667 52.0161 18.6667 51.3V45.9H21.3333C24.1623 45.9 26.8754 44.7621 28.8758 42.7368C30.8762 40.7114 32 37.9643 32 35.1C32 32.2357 30.8762 29.4886 28.8758 27.4632C26.8754 25.4379 24.1623 24.3 21.3333 24.3ZM13.3333 24.3H10.6667C9.25218 24.3 7.89563 23.7311 6.89543 22.7184C5.89524 21.7057 5.33333 20.3322 5.33333 18.9C5.33333 17.4678 5.89524 16.0943 6.89543 15.0816C7.89563 14.0689 9.25218 13.5 10.6667 13.5H13.3333V24.3ZM21.3333 40.5H18.6667V29.7H21.3333C22.7478 29.7 24.1044 30.2689 25.1046 31.2816C26.1048 32.2943 26.6667 33.6678 26.6667 35.1C26.6667 36.5322 26.1048 37.9057 25.1046 38.9184C24.1044 39.9311 22.7478 40.5 21.3333 40.5Z" fill="#FF2841"/>
</svg>
