<svg width="81" height="81" viewBox="0 0 81 81" fill="none" xmlns="http://www.w3.org/2000/svg">
<path d="M49.6797 38.4744C51.2956 36.4712 52.1849 33.9868 52.2041 31.4214C52.2041 28.3443 50.9717 25.3932 48.7779 23.2173C46.5842 21.0415 43.6088 19.8191 40.5063 19.8191C37.4039 19.8191 34.4285 21.0415 32.2348 23.2173C30.041 25.3932 28.8086 28.3443 28.8086 31.4214C28.8278 33.9868 29.7171 36.4712 31.333 38.4744C28.1637 40.3874 25.6772 43.2359 24.2219 46.6207C24.0182 47.0502 23.904 47.516 23.8862 47.9903C23.8683 48.4646 23.9472 48.9375 24.118 49.3809C24.2889 49.8242 24.5482 50.2288 24.8804 50.5703C25.2127 50.9119 25.611 51.1834 26.0516 51.3687C26.4921 51.5539 26.9659 51.649 27.4444 51.6483C27.9229 51.6477 28.3963 51.5512 28.8364 51.3647C29.2764 51.1782 29.6739 50.9055 30.0052 50.563C30.3364 50.2205 30.5946 49.8152 30.7641 49.3714C31.5813 47.4768 32.9386 45.8601 34.6693 44.7199C36.4 43.5797 38.4287 42.9656 40.5063 42.9531C42.5901 42.9588 44.6265 43.5696 46.3641 44.7102C48.1018 45.8509 49.4645 47.4713 50.2841 49.3714C50.5563 50.0088 51.0116 50.5527 51.5933 50.9352C52.175 51.3178 52.8573 51.522 53.5552 51.5226C54.031 51.5138 54.5011 51.4181 54.9419 51.2405C55.809 50.8751 56.4944 50.1835 56.8478 49.3173C57.2011 48.4511 57.1934 47.4813 56.8263 46.6207C55.3617 43.2308 52.8622 40.3817 49.6797 38.4744ZM40.5063 35.9001C39.5977 35.9 38.7095 35.6323 37.9545 35.1309C37.1995 34.6294 36.6116 33.9168 36.2655 33.0835C35.9194 32.2502 35.8307 31.3337 36.0106 30.4503C36.1905 29.5669 36.6308 28.7564 37.2759 28.1216C37.9209 27.4868 38.7415 27.0563 39.6335 26.8848C40.5256 26.7133 41.4489 26.8084 42.2864 27.1581C43.1238 27.5079 43.8377 28.0964 44.3374 28.8492C44.8371 29.6019 45.1001 30.4849 45.093 31.3861C45.0836 32.5865 44.5963 33.7346 43.7371 34.5801C42.878 35.4257 41.7167 35.9001 40.5063 35.9001ZM61.8397 5.67773H19.173C16.344 5.67773 13.6309 6.79237 11.6305 8.77642C9.63015 10.7605 8.50635 13.4514 8.50635 16.2573V55.0491C8.50635 57.855 9.63015 60.546 11.6305 62.53C13.6309 64.5141 16.344 65.6287 19.173 65.6287H28.3819L37.9819 75.1856C38.3141 75.5124 38.7081 75.771 39.1413 75.9465C39.5745 76.122 40.0384 76.211 40.5063 76.2083C41.3538 76.2084 42.1734 75.9082 42.8175 75.3619L54.2663 65.6287H61.8397C64.6687 65.6287 67.3818 64.5141 69.3822 62.53C71.3825 60.546 72.5063 57.855 72.5063 55.0491V16.2573C72.5063 13.4514 71.3825 10.7605 69.3822 8.77642C67.3818 6.79237 64.6687 5.67773 61.8397 5.67773ZM65.3952 55.0491C65.3952 55.9844 65.0206 56.8814 64.3538 57.5428C63.687 58.2041 62.7827 58.5757 61.8397 58.5757H52.9508C52.1033 58.5756 51.2837 58.8757 50.6397 59.422L40.6841 67.8857L32.3641 59.5983C32.0319 59.2715 31.6379 59.0129 31.2047 58.8374C30.7715 58.6619 30.3076 58.573 29.8397 58.5757H19.173C18.23 58.5757 17.3257 58.2041 16.6589 57.5428C15.9921 56.8814 15.6175 55.9844 15.6175 55.0491V16.2573C15.6175 15.322 15.9921 14.425 16.6589 13.7637C17.3257 13.1023 18.23 12.7308 19.173 12.7308H61.8397C62.7827 12.7308 63.687 13.1023 64.3538 13.7637C65.0206 14.425 65.3952 15.322 65.3952 16.2573V55.0491Z" fill="#E6E6FF"/>
</svg>
