<svg width="55" height="54" viewBox="0 0 55 54" fill="none" xmlns="http://www.w3.org/2000/svg">
<path d="M34.844 18.333L23.261 29.943L18.806 25.488C18.564 25.2054 18.2661 24.9758 17.9311 24.8137C17.5962 24.6517 17.2313 24.5606 16.8595 24.5462C16.4876 24.5319 16.1168 24.5945 15.7703 24.7303C15.4239 24.866 15.1092 25.0719 14.8461 25.335C14.5829 25.5982 14.377 25.9128 14.2413 26.2593C14.1055 26.6058 14.0429 26.9766 14.0573 27.3484C14.0716 27.7203 14.1627 28.0851 14.3248 28.4201C14.4868 28.7551 14.7164 29.0529 14.999 29.295L21.344 35.667C21.5963 35.9172 21.8955 36.1152 22.2245 36.2496C22.5534 36.3839 22.9057 36.452 23.261 36.45C23.9693 36.447 24.6481 36.1658 25.151 35.667L38.651 22.167C38.9041 21.916 39.1049 21.6174 39.242 21.2884C39.3791 20.9593 39.4497 20.6064 39.4497 20.25C39.4497 19.8936 39.3791 19.5407 39.242 19.2116C39.1049 18.8826 38.9041 18.584 38.651 18.333C38.1451 17.8301 37.4608 17.5479 36.7475 17.5479C36.0342 17.5479 35.3499 17.8301 34.844 18.333ZM27.5 0C22.1599 0 16.9397 1.58352 12.4996 4.55032C8.05949 7.51712 4.59883 11.7339 2.55526 16.6675C0.511699 21.6011 -0.0229913 27.0299 1.01881 32.2674C2.06061 37.5049 4.63211 42.3159 8.40813 46.0919C12.1841 49.8679 16.9951 52.4394 22.2326 53.4812C27.4701 54.523 32.8989 53.9883 37.8325 51.9447C42.7661 49.9012 46.9829 46.4405 49.9497 42.0004C52.9165 37.5603 54.5 32.3401 54.5 27C54.5 23.4543 53.8016 19.9433 52.4448 16.6675C51.0879 13.3918 49.0991 10.4153 46.5919 7.90811C44.0847 5.40093 41.1082 3.41213 37.8325 2.05525C34.5567 0.698376 31.0457 0 27.5 0ZM27.5 48.6C23.2279 48.6 19.0518 47.3332 15.4997 44.9597C11.9476 42.5863 9.17907 39.2128 7.54421 35.266C5.90936 31.3191 5.48161 26.976 6.31505 22.786C7.14849 18.5961 9.20569 14.7473 12.2265 11.7265C15.2473 8.70568 19.0961 6.64848 23.2861 5.81504C27.476 4.9816 31.8191 5.40935 35.766 7.0442C39.7129 8.67905 43.0863 11.4476 45.4597 14.9997C47.8332 18.5518 49.1 22.7279 49.1 27C49.1 32.7287 46.8243 38.2227 42.7735 42.2735C38.7227 46.3243 33.2287 48.6 27.5 48.6Z" fill="#0F1EFF"/>
</svg>
