<svg width="81" height="81" viewBox="0 0 81 81" fill="none" xmlns="http://www.w3.org/2000/svg">
<g opacity="0.15">
<path d="M78.8098 32.1148L74.9997 30.0487L40.709 11.2654H40.2899C40.0563 11.1681 39.8139 11.0926 39.566 11.04H38.8421H38.1563C37.896 11.0926 37.6409 11.1681 37.3942 11.2654H36.9751L2.68444 30.0487C2.09808 30.3763 1.61036 30.8515 1.27103 31.4256C0.931711 31.9998 0.75293 32.6524 0.75293 33.317C0.75293 33.9815 0.931711 34.6341 1.27103 35.2083C1.61036 35.7824 2.09808 36.2576 2.68444 36.5852L12.1715 41.7694V59.5759C12.1715 62.5649 13.3758 65.4314 15.5194 67.545C17.663 69.6585 20.5703 70.8459 23.6018 70.8459H54.0824C57.1139 70.8459 60.0212 69.6585 62.1648 67.545C64.3084 65.4314 65.5126 62.5649 65.5126 59.5759V41.7694L73.1328 37.562V48.306C73.1328 49.3023 73.5342 50.2578 74.2487 50.9623C74.9632 51.6668 75.9324 52.0626 76.9428 52.0626C77.9533 52.0626 78.9225 51.6668 79.637 50.9623C80.3515 50.2578 80.7529 49.3023 80.7529 48.306V35.3831C80.7518 34.7175 80.5712 34.064 80.2298 33.4898C79.8884 32.9155 79.3983 32.441 78.8098 32.1148ZM57.8925 59.5759C57.8925 60.5722 57.491 61.5278 56.7765 62.2323C56.062 62.9368 55.0929 63.3326 54.0824 63.3326H23.6018C22.5913 63.3326 21.6222 62.9368 20.9076 62.2323C20.1931 61.5278 19.7917 60.5722 19.7917 59.5759V45.9393L36.9751 55.3309L37.5466 55.5563H37.8896C38.2058 55.5956 38.5258 55.5956 38.8421 55.5563C39.1583 55.5956 39.4783 55.5956 39.7946 55.5563H40.1375C40.3398 55.5143 40.5331 55.438 40.709 55.3309L57.8925 45.9393V59.5759ZM38.8421 47.78L12.4001 33.2794L38.8421 18.7787L65.284 33.2794L38.8421 47.78Z" fill="#0F1EFF"/>
</g>
</svg>
