<svg width="56" height="56" viewBox="0 0 56 56" fill="none" xmlns="http://www.w3.org/2000/svg">
<path d="M26.3676 3.04557C27.3317 2.2849 28.6917 2.2849 29.6559 3.04557C30.9283 4.04944 32.6312 4.31917 34.1515 3.75761C35.3035 3.3321 36.597 3.75238 37.2789 4.77376C38.1788 6.12169 39.7151 6.90445 41.3345 6.84019C42.5616 6.79149 43.6619 7.59091 43.9948 8.77301C44.4341 10.333 45.6533 11.5522 47.2133 11.9915C48.3954 12.3244 49.1948 13.4247 49.1461 14.6518C49.0819 16.2713 49.8646 17.8075 51.2126 18.7074C52.2339 19.3893 52.6542 20.6828 52.2287 21.8348C51.6672 23.3551 51.9369 25.0581 52.9408 26.3305C53.7014 27.2946 53.7014 28.6546 52.9408 29.6188C51.9369 30.8911 51.6672 32.5941 52.2287 34.1144C52.6542 35.2664 52.2339 36.5599 51.2126 37.2418C49.8646 38.1417 49.0819 39.6779 49.1461 41.2974C49.1948 42.5245 48.3954 43.6248 47.2133 43.9577C45.6533 44.397 44.4341 45.6162 43.9948 47.1762C43.6619 48.3583 42.5616 49.1577 41.3345 49.109C39.7151 49.0448 38.1788 49.8275 37.2789 51.1755C36.597 52.1968 35.3035 52.6171 34.1515 52.1916C32.6312 51.6301 30.9282 51.8998 29.6559 52.9036C28.6917 53.6643 27.3317 53.6643 26.3676 52.9036C25.0952 51.8998 23.3922 51.6301 21.8719 52.1916C20.7199 52.6171 19.4264 52.1968 18.7445 51.1755C17.8447 49.8275 16.3084 49.0448 14.689 49.109C13.4618 49.1577 12.3615 48.3583 12.0286 47.1762C11.5893 45.6162 10.3701 44.397 8.81011 43.9577C7.62802 43.6248 6.8286 42.5245 6.87729 41.2974C6.94156 39.6779 6.15879 38.1417 4.81087 37.2418C3.78949 36.5599 3.36921 35.2664 3.79472 34.1144C4.35628 32.5941 4.08655 30.8911 3.08268 29.6188C2.32201 28.6546 2.32201 27.2946 3.08268 26.3305C4.08655 25.0581 4.35628 23.3551 3.79472 21.8348C3.36921 20.6828 3.78949 19.3893 4.81087 18.7074C6.15879 17.8075 6.94156 16.2713 6.87729 14.6518C6.8286 13.4247 7.62802 12.3244 8.81012 11.9915C10.3701 11.5522 11.5893 10.333 12.0286 8.77301C12.3615 7.59091 13.4618 6.79149 14.6889 6.84019C16.3084 6.90445 17.8447 6.12169 18.7445 4.77376C19.4264 3.75238 20.7199 3.3321 21.8719 3.75761C23.3922 4.31917 25.0952 4.04945 26.3676 3.04557Z" fill="#1BBF7B" stroke="#1BBF7B" stroke-width="2"/>
<path d="M31.5072 22.9237L25.4551 28.9899L23.1274 26.6622C23.0009 26.5145 22.8453 26.3946 22.6703 26.3099C22.4952 26.2252 22.3046 26.1776 22.1103 26.1701C21.916 26.1626 21.7223 26.1954 21.5412 26.2663C21.3602 26.3372 21.1958 26.4448 21.0583 26.5823C20.9208 26.7198 20.8132 26.8842 20.7423 27.0652C20.6714 27.2463 20.6387 27.44 20.6462 27.6343C20.6537 27.8286 20.7013 28.0192 20.7859 28.1942C20.8706 28.3693 20.9906 28.5249 21.1382 28.6514L24.4535 31.9807C24.5853 32.1115 24.7416 32.2149 24.9135 32.2851C25.0854 32.3553 25.2695 32.3909 25.4551 32.3898C25.8252 32.3883 26.1799 32.2414 26.4426 31.9807L33.4964 24.927C33.6286 24.7958 33.7336 24.6398 33.8052 24.4679C33.8768 24.296 33.9137 24.1116 33.9137 23.9253C33.9137 23.7391 33.8768 23.5547 33.8052 23.3828C33.7336 23.2109 33.6286 23.0549 33.4964 22.9237C33.2321 22.661 32.8745 22.5135 32.5018 22.5135C32.1291 22.5135 31.7716 22.661 31.5072 22.9237ZM27.67 13.3447C24.8798 13.3447 22.1523 14.1721 19.8323 15.7223C17.5123 17.2724 15.7041 19.4757 14.6364 22.0535C13.5686 24.6313 13.2892 27.4679 13.8336 30.2045C14.3779 32.941 15.7215 35.4548 17.6945 37.4277C19.6675 39.4007 22.1812 40.7443 24.9178 41.2886C27.6544 41.833 30.4909 41.5536 33.0687 40.4858C35.6465 39.4181 37.8498 37.6099 39.4 35.2899C40.9501 32.97 41.7775 30.2424 41.7775 27.4522C41.7775 25.5996 41.4126 23.7651 40.7036 22.0535C39.9947 20.3419 38.9555 18.7867 37.6455 17.4767C36.3355 16.1667 34.7803 15.1276 33.0687 14.4186C31.3571 13.7096 29.5226 13.3447 27.67 13.3447ZM27.67 38.7382C25.4378 38.7382 23.2558 38.0763 21.3998 36.8362C19.5439 35.5961 18.0973 33.8334 17.2431 31.7712C16.3889 29.7089 16.1654 27.4397 16.6009 25.2504C17.0363 23.0612 18.1112 21.0502 19.6896 19.4718C21.268 17.8934 23.2789 16.8186 25.4682 16.3831C27.6575 15.9476 29.9267 16.1711 31.989 17.0253C34.0512 17.8795 35.8138 19.3261 37.054 21.1821C38.2941 23.038 38.956 25.2201 38.956 27.4522C38.956 30.4455 37.7669 33.3161 35.6504 35.4326C33.5339 37.5492 30.6632 38.7382 27.67 38.7382Z" fill="#0F1E32"/>
</svg>
