<svg width="160" height="147" viewBox="0 0 160 147" fill="none" xmlns="http://www.w3.org/2000/svg">
<path d="M79.8191 103.05C78.3891 103.05 76.9912 103.48 75.8021 104.285C74.6131 105.089 73.6864 106.233 73.1392 107.572C72.5919 108.91 72.4487 110.383 72.7277 111.804C73.0067 113.225 73.6953 114.53 74.7065 115.554C75.7177 116.579 77.006 117.276 78.4085 117.559C79.8111 117.842 81.2648 117.697 82.586 117.142C83.9072 116.588 85.0364 115.649 85.8309 114.444C86.6253 113.24 87.0494 111.824 87.0494 110.375C87.0494 108.432 86.2876 106.569 84.9317 105.195C83.5757 103.822 81.7367 103.05 79.8191 103.05ZM156.966 113.818L98.7625 11.2702C96.8812 7.85326 94.1335 5.00716 90.8033 3.02588C87.4731 1.0446 83.6811 0 79.8191 0C75.9571 0 72.1651 1.0446 68.8349 3.02588C65.5046 5.00716 62.757 7.85326 60.8757 11.2702L3.03325 113.818C1.08682 117.143 0.04093 120.93 0.0011771 124.796C-0.0385758 128.662 0.929213 132.47 2.80683 135.836C4.68446 139.202 7.40544 142.007 10.6951 143.967C13.9847 145.927 17.7266 146.973 21.5428 146.999H138.095C141.942 147.037 145.73 146.039 149.07 144.105C152.411 142.171 155.183 139.373 157.104 135.996C159.024 132.619 160.024 128.785 160 124.888C159.975 120.991 158.929 117.17 156.966 113.818ZM144.458 128.467C143.824 129.609 142.9 130.559 141.781 131.216C140.661 131.873 139.389 132.214 138.095 132.203H21.5428C20.2494 132.214 18.9768 131.873 17.8577 131.216C16.7386 130.559 15.8139 129.609 15.1802 128.467C14.5456 127.354 14.2115 126.091 14.2115 124.805C14.2115 123.519 14.5456 122.256 15.1802 121.142L73.0226 18.595C73.6293 17.3952 74.5512 16.3883 75.6866 15.6852C76.822 14.982 78.1269 14.61 79.4576 14.61C80.7883 14.61 82.0932 14.982 83.2286 15.6852C84.364 16.3883 85.2858 17.3952 85.8925 18.595L144.096 121.142C144.814 122.24 145.226 123.513 145.29 124.828C145.353 126.142 145.066 127.45 144.458 128.614V128.467ZM79.8191 44.4516C77.9015 44.4516 76.0624 45.2233 74.7065 46.597C73.3505 47.9706 72.5888 49.8337 72.5888 51.7764V81.0756C72.5888 83.0183 73.3505 84.8814 74.7065 86.2551C76.0624 87.6287 77.9015 88.4004 79.8191 88.4004C81.7367 88.4004 83.5757 87.6287 84.9317 86.2551C86.2876 84.8814 87.0494 83.0183 87.0494 81.0756V51.7764C87.0494 49.8337 86.2876 47.9706 84.9317 46.597C83.5757 45.2233 81.7367 44.4516 79.8191 44.4516Z" fill="#FF2841"/>
</svg>
