<svg width="43" height="42" viewBox="0 0 43 42" fill="none" xmlns="http://www.w3.org/2000/svg">
<path d="M32.8627 7.266C32.3613 7.266 31.8711 7.4138 31.4542 7.6907C31.0372 7.9676 30.7123 8.36117 30.5204 8.82164C30.3285 9.28211 30.2783 9.78879 30.3761 10.2776C30.4739 10.7665 30.7154 11.2155 31.07 11.5679C31.4246 11.9203 31.8763 12.1603 32.3681 12.2576C32.8599 12.3548 33.3697 12.3049 33.8329 12.1142C34.2962 11.9234 34.6922 11.6004 34.9707 11.186C35.2493 10.7716 35.398 10.2844 35.398 9.786C35.398 9.11765 35.1309 8.47668 34.6554 8.00409C34.18 7.5315 33.5351 7.266 32.8627 7.266ZM42.5814 12.348C42.5403 10.6056 42.212 8.88175 41.6095 7.245C41.0723 5.84458 40.2362 4.57648 39.1587 3.528C38.1125 2.45159 36.8338 1.62577 35.4191 1.113C33.7768 0.495938 32.0405 0.162141 30.2852 0.126C28.0456 -1.17347e-07 27.3273 0 21.5806 0C15.8339 0 15.1156 -1.17347e-07 12.8761 0.126C11.1207 0.162141 9.38444 0.495938 7.74211 1.113C6.33011 1.63096 5.05244 2.45608 4.00255 3.528C2.9196 4.56787 2.08877 5.83892 1.57288 7.245C0.952074 8.87742 0.61625 10.6032 0.57989 12.348C0.453125 14.574 0.453125 15.288 0.453125 21C0.453125 26.712 0.453125 27.426 0.57989 29.652C0.61625 31.3968 0.952074 33.1226 1.57288 34.755C2.08877 36.1611 2.9196 37.4321 4.00255 38.472C5.05244 39.5439 6.33011 40.369 7.74211 40.887C9.38444 41.5041 11.1207 41.8379 12.8761 41.874C15.1156 42 15.8339 42 21.5806 42C27.3273 42 28.0456 42 30.2852 41.874C32.0405 41.8379 33.7768 41.5041 35.4191 40.887C36.8338 40.3742 38.1125 39.5484 39.1587 38.472C40.2409 37.4274 41.0778 36.1582 41.6095 34.755C42.212 33.1183 42.5403 31.3944 42.5814 29.652C42.5814 27.426 42.7081 26.712 42.7081 21C42.7081 15.288 42.7081 14.574 42.5814 12.348ZM38.7784 29.4C38.763 30.733 38.5201 32.0538 38.0601 33.306C37.7227 34.2199 37.1809 35.0457 36.4755 35.721C35.7902 36.4151 34.9611 36.9525 34.0458 37.296C32.786 37.7533 31.4573 37.9947 30.1161 38.01C28.0034 38.115 27.2217 38.136 21.6651 38.136C16.1086 38.136 15.3269 38.136 13.2141 38.01C11.8216 38.0359 10.435 37.8228 9.1154 37.38C8.24026 37.019 7.44919 36.4828 6.79138 35.805C6.09013 35.1304 5.55509 34.3039 5.22794 33.39C4.71213 32.1198 4.42603 30.7691 4.38284 29.4C4.38284 27.3 4.25607 26.523 4.25607 21C4.25607 15.477 4.25607 14.7 4.38284 12.6C4.39231 11.2372 4.6426 9.88668 5.1223 8.61C5.49425 7.72361 6.06515 6.93348 6.79138 6.3C7.43326 5.57795 8.22654 5.0045 9.1154 4.62C10.4032 4.15809 11.7606 3.91667 13.1296 3.906C15.2424 3.906 16.0241 3.78 21.5806 3.78C27.1372 3.78 27.9189 3.78 30.0316 3.906C31.3727 3.92129 32.7015 4.16272 33.9613 4.62C34.9214 4.97417 35.7831 5.54998 36.4755 6.3C37.1679 6.94507 37.7089 7.73374 38.0601 8.61C38.5296 9.88876 38.7727 11.2387 38.7784 12.6C38.884 14.7 38.9052 15.477 38.9052 21C38.9052 26.523 38.884 27.3 38.7784 29.4ZM21.5806 10.227C19.4379 10.2312 17.3445 10.8665 15.5649 12.0528C13.7853 13.2391 12.3994 14.923 11.5823 16.8919C10.7652 18.8608 10.5536 21.0262 10.9742 23.1146C11.3948 25.2029 12.4287 27.1205 13.9453 28.6251C15.4619 30.1296 17.3932 31.1535 19.495 31.5675C21.5969 31.9815 23.7751 31.7669 25.7543 30.9509C27.7335 30.1349 29.425 28.7541 30.615 26.983C31.805 25.2118 32.4402 23.1298 32.4402 21C32.443 19.5827 32.1638 18.1789 31.6188 16.8692C31.0738 15.5595 30.2737 14.3699 29.2644 13.3687C28.2552 12.3675 27.0568 11.5745 25.7381 11.0354C24.4194 10.4962 23.0065 10.2215 21.5806 10.227ZM21.5806 27.993C20.1891 27.993 18.8289 27.5829 17.6719 26.8145C16.515 26.0461 15.6132 24.9539 15.0807 23.6761C14.5482 22.3983 14.4089 20.9922 14.6804 19.6357C14.9518 18.2792 15.6219 17.0332 16.6058 16.0552C17.5897 15.0772 18.8433 14.4112 20.2081 14.1414C21.5728 13.8715 22.9874 14.01 24.273 14.5393C25.5585 15.0686 26.6573 15.9649 27.4304 17.1149C28.2035 18.2649 28.6161 19.6169 28.6161 21C28.6161 21.9183 28.4341 22.8277 28.0805 23.6761C27.727 24.5245 27.2087 25.2954 26.5554 25.9448C25.9021 26.5942 25.1266 27.1093 24.273 27.4607C23.4194 27.8121 22.5045 27.993 21.5806 27.993Z" fill="white"/>
</svg>
