<svg width="43" height="46" viewBox="0 0 43 46" fill="none" xmlns="http://www.w3.org/2000/svg">
<path d="M21.5821 36.9332C21.9997 36.9332 22.4079 36.8128 22.7551 36.5874C23.1023 36.3619 23.3729 36.0415 23.5327 35.6665C23.6925 35.2916 23.7344 34.879 23.6529 34.481C23.5714 34.083 23.3703 33.7174 23.0751 33.4305C22.7798 33.1435 22.4036 32.9481 21.994 32.8689C21.5845 32.7897 21.1599 32.8304 20.7741 32.9857C20.3884 33.141 20.0586 33.404 19.8266 33.7414C19.5946 34.0788 19.4708 34.4755 19.4708 34.8813C19.4708 35.4255 19.6932 35.9474 20.0892 36.3322C20.4851 36.717 21.0222 36.9332 21.5821 36.9332ZM32.1388 36.9332C32.5564 36.9332 32.9646 36.8128 33.3118 36.5874C33.659 36.3619 33.9296 36.0415 34.0894 35.6665C34.2492 35.2916 34.291 34.879 34.2096 34.481C34.1281 34.083 33.927 33.7174 33.6318 33.4305C33.3365 33.1435 32.9603 32.9481 32.5507 32.8689C32.1412 32.7897 31.7166 32.8304 31.3308 32.9857C30.945 33.141 30.6153 33.404 30.3833 33.7414C30.1513 34.0788 30.0275 34.4755 30.0275 34.8813C30.0275 35.4255 30.2499 35.9474 30.6459 36.3322C31.0418 36.717 31.5788 36.9332 32.1388 36.9332ZM32.1388 28.7258C32.5564 28.7258 32.9646 28.6055 33.3118 28.38C33.659 28.1545 33.9296 27.8341 34.0894 27.4592C34.2492 27.0842 34.291 26.6717 34.2096 26.2737C34.1281 25.8756 33.927 25.51 33.6318 25.2231C33.3365 24.9361 32.9603 24.7407 32.5507 24.6615C32.1412 24.5824 31.7166 24.623 31.3308 24.7783C30.945 24.9336 30.6153 25.1966 30.3833 25.534C30.1513 25.8714 30.0275 26.2681 30.0275 26.674C30.0275 27.2181 30.2499 27.74 30.6459 28.1248C31.0418 28.5096 31.5788 28.7258 32.1388 28.7258ZM21.5821 28.7258C21.9997 28.7258 22.4079 28.6055 22.7551 28.38C23.1023 28.1545 23.3729 27.8341 23.5327 27.4592C23.6925 27.0842 23.7344 26.6717 23.6529 26.2737C23.5714 25.8756 23.3703 25.51 23.0751 25.2231C22.7798 24.9361 22.4036 24.7407 21.994 24.6615C21.5845 24.5824 21.1599 24.623 20.7741 24.7783C20.3884 24.9336 20.0586 25.1966 19.8266 25.534C19.5946 25.8714 19.4708 26.2681 19.4708 26.674C19.4708 27.2181 19.6932 27.74 20.0892 28.1248C20.4851 28.5096 21.0222 28.7258 21.5821 28.7258ZM36.3615 4.10369H34.2501V2.05184C34.2501 1.50766 34.0277 0.985766 33.6318 0.600971C33.2358 0.216176 32.6988 0 32.1388 0C31.5788 0 31.0418 0.216176 30.6459 0.600971C30.2499 0.985766 30.0275 1.50766 30.0275 2.05184V4.10369H13.1368V2.05184C13.1368 1.50766 12.9143 0.985766 12.5184 0.600971C12.1224 0.216176 11.5854 0 11.0254 0C10.4655 0 9.92845 0.216176 9.5325 0.600971C9.13654 0.985766 8.9141 1.50766 8.9141 2.05184V4.10369H6.80276C5.12288 4.10369 3.5118 4.75221 2.32394 5.9066C1.13608 7.06098 0.46875 8.62667 0.46875 10.2592V38.985C0.46875 40.6176 1.13608 42.1832 2.32394 43.3376C3.5118 44.492 5.12288 45.1405 6.80276 45.1405H36.3615C38.0414 45.1405 39.6524 44.492 40.8403 43.3376C42.0282 42.1832 42.6955 40.6176 42.6955 38.985V10.2592C42.6955 8.62667 42.0282 7.06098 40.8403 5.9066C39.6524 4.75221 38.0414 4.10369 36.3615 4.10369ZM38.4728 38.985C38.4728 39.5292 38.2504 40.0511 37.8544 40.4359C37.4585 40.8207 36.9214 41.0369 36.3615 41.0369H6.80276C6.2428 41.0369 5.70577 40.8207 5.30982 40.4359C4.91387 40.0511 4.69142 39.5292 4.69142 38.985V20.5184H38.4728V38.985ZM38.4728 16.4147H4.69142V10.2592C4.69142 9.71503 4.91387 9.19314 5.30982 8.80834C5.70577 8.42355 6.2428 8.20737 6.80276 8.20737H8.9141V10.2592C8.9141 10.8034 9.13654 11.3253 9.5325 11.7101C9.92845 12.0949 10.4655 12.3111 11.0254 12.3111C11.5854 12.3111 12.1224 12.0949 12.5184 11.7101C12.9143 11.3253 13.1368 10.8034 13.1368 10.2592V8.20737H30.0275V10.2592C30.0275 10.8034 30.2499 11.3253 30.6459 11.7101C31.0418 12.0949 31.5788 12.3111 32.1388 12.3111C32.6988 12.3111 33.2358 12.0949 33.6318 11.7101C34.0277 11.3253 34.2501 10.8034 34.2501 10.2592V8.20737H36.3615C36.9214 8.20737 37.4585 8.42355 37.8544 8.80834C38.2504 9.19314 38.4728 9.71503 38.4728 10.2592V16.4147ZM11.0254 28.7258C11.443 28.7258 11.8512 28.6055 12.1984 28.38C12.5456 28.1545 12.8163 27.8341 12.9761 27.4592C13.1359 27.0842 13.1777 26.6717 13.0962 26.2737C13.0147 25.8756 12.8137 25.51 12.5184 25.2231C12.2231 24.9361 11.8469 24.7407 11.4373 24.6615C11.0278 24.5824 10.6033 24.623 10.2175 24.7783C9.83167 24.9336 9.50192 25.1966 9.26992 25.534C9.03793 25.8714 8.9141 26.2681 8.9141 26.674C8.9141 27.2181 9.13654 27.74 9.5325 28.1248C9.92845 28.5096 10.4655 28.7258 11.0254 28.7258ZM11.0254 36.9332C11.443 36.9332 11.8512 36.8128 12.1984 36.5874C12.5456 36.3619 12.8163 36.0415 12.9761 35.6665C13.1359 35.2916 13.1777 34.879 13.0962 34.481C13.0147 34.083 12.8137 33.7174 12.5184 33.4305C12.2231 33.1435 11.8469 32.9481 11.4373 32.8689C11.0278 32.7897 10.6033 32.8304 10.2175 32.9857C9.83167 33.141 9.50192 33.404 9.26992 33.7414C9.03793 34.0788 8.9141 34.4755 8.9141 34.8813C8.9141 35.4255 9.13654 35.9474 9.5325 36.3322C9.92845 36.717 10.4655 36.9332 11.0254 36.9332Z" fill="white"/>
</svg>
