<svg width="24" height="25" viewBox="0 0 24 25" fill="none" xmlns="http://www.w3.org/2000/svg">
<path d="M14.1667 11.8117H13.0833V8.01172H15.25C15.5373 8.01172 15.8129 8.11181 16.016 8.28997C16.2192 8.46813 16.3333 8.70976 16.3333 8.96172C16.3333 9.21367 16.4475 9.45531 16.6506 9.63347C16.8538 9.81163 17.1293 9.91172 17.4167 9.91172C17.704 9.91172 17.9795 9.81163 18.1827 9.63347C18.3859 9.45531 18.5 9.21367 18.5 8.96172C18.5 8.20585 18.1576 7.48094 17.5481 6.94646C16.9386 6.41199 16.112 6.11172 15.25 6.11172H13.0833V4.21172C13.0833 3.95976 12.9692 3.71813 12.766 3.53997C12.5629 3.36181 12.2873 3.26172 12 3.26172C11.7127 3.26172 11.4371 3.36181 11.234 3.53997C11.0308 3.71813 10.9167 3.95976 10.9167 4.21172V6.11172H9.83333C8.68406 6.11172 7.58186 6.51207 6.7692 7.22471C5.95655 7.93735 5.5 8.9039 5.5 9.91172C5.5 10.9195 5.95655 11.8861 6.7692 12.5987C7.58186 13.3114 8.68406 13.7117 9.83333 13.7117H10.9167V17.5117H8.75C8.46268 17.5117 8.18713 17.4116 7.98397 17.2335C7.7808 17.0553 7.66667 16.8137 7.66667 16.5617C7.66667 16.3098 7.55253 16.0681 7.34937 15.89C7.1462 15.7118 6.87065 15.6117 6.58333 15.6117C6.29602 15.6117 6.02047 15.7118 5.8173 15.89C5.61414 16.0681 5.5 16.3098 5.5 16.5617C5.5 17.3176 5.84241 18.0425 6.4519 18.577C7.0614 19.1115 7.88805 19.4117 8.75 19.4117H10.9167V21.3117C10.9167 21.5637 11.0308 21.8053 11.234 21.9835C11.4371 22.1616 11.7127 22.2617 12 22.2617C12.2873 22.2617 12.5629 22.1616 12.766 21.9835C12.9692 21.8053 13.0833 21.5637 13.0833 21.3117V19.4117H14.1667C15.3159 19.4117 16.4181 19.0114 17.2308 18.2987C18.0435 17.5861 18.5 16.6195 18.5 15.6117C18.5 14.6039 18.0435 13.6374 17.2308 12.9247C16.4181 12.2121 15.3159 11.8117 14.1667 11.8117ZM10.9167 11.8117H9.83333C9.2587 11.8117 8.7076 11.6115 8.30127 11.2552C7.89494 10.8989 7.66667 10.4156 7.66667 9.91172C7.66667 9.40781 7.89494 8.92453 8.30127 8.56822C8.7076 8.2119 9.2587 8.01172 9.83333 8.01172H10.9167V11.8117ZM14.1667 17.5117H13.0833V13.7117H14.1667C14.7413 13.7117 15.2924 13.9119 15.6987 14.2682C16.1051 14.6245 16.3333 15.1078 16.3333 15.6117C16.3333 16.1156 16.1051 16.5989 15.6987 16.9552C15.2924 17.3115 14.7413 17.5117 14.1667 17.5117Z" fill="black"/>
</svg>
