<svg width="38" height="38" viewBox="0 0 38 38" fill="none" xmlns="http://www.w3.org/2000/svg">
<path d="M19 0C15.2422 0 11.5687 1.11433 8.44417 3.20208C5.31964 5.28982 2.88436 8.25722 1.4463 11.729C0.0082324 15.2008 -0.368031 19.0211 0.365088 22.7067C1.09821 26.3923 2.90778 29.7778 5.56498 32.435C8.22218 35.0922 11.6077 36.9018 15.2933 37.6349C18.9789 38.368 22.7992 37.9918 26.271 36.5537C29.7428 35.1156 32.7102 32.6804 34.7979 29.5558C36.8857 26.4313 38 22.7578 38 19C38 16.5049 37.5086 14.0342 36.5537 11.729C35.5989 9.42383 34.1993 7.32928 32.435 5.56497C30.6707 3.80066 28.5762 2.40113 26.271 1.44629C23.9658 0.491449 21.4951 0 19 0ZM19 34.2C15.9937 34.2 13.055 33.3085 10.5553 31.6383C8.05571 29.9681 6.10749 27.5942 4.95704 24.8168C3.80659 22.0393 3.50558 18.9831 4.09207 16.0346C4.67857 13.0861 6.12623 10.3777 8.25198 8.25198C10.3777 6.12622 13.0861 4.67856 16.0346 4.09206C18.9831 3.50557 22.0394 3.80658 24.8168 4.95703C27.5942 6.10748 29.9681 8.0557 31.6383 10.5553C33.3085 13.055 34.2 15.9937 34.2 19C34.2 23.0313 32.5986 26.8975 29.748 29.748C26.8975 32.5986 23.0313 34.2 19 34.2ZM26.6 17.1H20.9V11.4C20.9 10.8961 20.6998 10.4128 20.3435 10.0565C19.9872 9.70018 19.5039 9.5 19 9.5C18.4961 9.5 18.0128 9.70018 17.6565 10.0565C17.3002 10.4128 17.1 10.8961 17.1 11.4V17.1H11.4C10.8961 17.1 10.4128 17.3002 10.0565 17.6565C9.70018 18.0128 9.50001 18.4961 9.50001 19C9.50001 19.5039 9.70018 19.9872 10.0565 20.3435C10.4128 20.6998 10.8961 20.9 11.4 20.9H17.1V26.6C17.1 27.1039 17.3002 27.5872 17.6565 27.9435C18.0128 28.2998 18.4961 28.5 19 28.5C19.5039 28.5 19.9872 28.2998 20.3435 27.9435C20.6998 27.5872 20.9 27.1039 20.9 26.6V20.9H26.6C27.1039 20.9 27.5872 20.6998 27.9435 20.3435C28.2998 19.9872 28.5 19.5039 28.5 19C28.5 18.4961 28.2998 18.0128 27.9435 17.6565C27.5872 17.3002 27.1039 17.1 26.6 17.1Z" fill="#0F1E32"/>
</svg>
