<svg width="24" height="25" viewBox="0 0 24 25" fill="none" xmlns="http://www.w3.org/2000/svg">
<path d="M20.8366 10.9377C20.5696 10.6173 20.2356 10.3593 19.858 10.182C19.4804 10.0047 19.0685 9.91246 18.6514 9.91175H14.319L14.8511 8.55325C15.0724 7.95844 15.1461 7.31883 15.0659 6.68928C14.9856 6.05973 14.7539 5.45904 14.3905 4.93873C14.0271 4.41841 13.5428 3.99402 12.9794 3.70194C12.4159 3.40986 11.7899 3.25881 11.1553 3.26176C10.9725 3.26214 10.7937 3.31522 10.6404 3.41464C10.487 3.51405 10.3656 3.65558 10.2907 3.82226L7.58294 9.91175H5.35025C4.59432 9.91175 3.86934 10.212 3.33482 10.7465C2.80029 11.281 2.5 12.0059 2.5 12.7617V19.4117C2.5 20.1676 2.80029 20.8925 3.33482 21.427C3.86934 21.9615 4.59432 22.2617 5.35025 22.2617H17.4448C18.1116 22.2615 18.7572 22.0275 19.2693 21.6005C19.7814 21.1735 20.1275 20.5806 20.2475 19.9247L21.4541 13.2747C21.5288 12.8638 21.5121 12.4414 21.4054 12.0375C21.2987 11.6337 21.1045 11.2582 20.8366 10.9377ZM7.25041 20.3617H5.35025C5.09827 20.3617 4.85661 20.2616 4.67844 20.0835C4.50026 19.9053 4.40017 19.6637 4.40017 19.4117V12.7617C4.40017 12.5098 4.50026 12.2681 4.67844 12.09C4.85661 11.9118 5.09827 11.8117 5.35025 11.8117H7.25041V20.3617ZM19.6015 12.9327L18.3949 19.5827C18.3544 19.804 18.2367 20.0038 18.0627 20.1465C17.8887 20.2891 17.6698 20.3654 17.4448 20.3617H9.15058V11.0612L11.7348 5.24726C12.0008 5.3248 12.2479 5.45664 12.4603 5.63446C12.6728 5.81228 12.8461 6.03221 12.9693 6.28037C13.0925 6.52854 13.163 6.79954 13.1761 7.07629C13.1893 7.35303 13.145 7.6295 13.0459 7.88825L12.5424 9.24675C12.4351 9.53389 12.3989 9.84273 12.4368 10.1469C12.4747 10.4511 12.5857 10.7416 12.7603 10.9935C12.9348 11.2455 13.1677 11.4516 13.4392 11.594C13.7106 11.7365 14.0125 11.8112 14.319 11.8117H18.6514C18.791 11.8115 18.9289 11.842 19.0553 11.9012C19.1818 11.9603 19.2936 12.0465 19.383 12.1537C19.4745 12.2595 19.5415 12.3842 19.5793 12.5188C19.6171 12.6535 19.6247 12.7948 19.6015 12.9327Z" fill="black"/>
</svg>
