<svg width="33" height="33" viewBox="0 0 33 33" fill="none" xmlns="http://www.w3.org/2000/svg">
<path d="M28.9707 13.7716L27.7564 13.111L16.8279 7.10527H16.6943C16.6199 7.07414 16.5426 7.05001 16.4636 7.0332H16.2329H16.0143C15.9313 7.05002 15.8501 7.07414 15.7714 7.10527H15.6379L4.70933 13.111C4.52245 13.2157 4.36701 13.3677 4.25887 13.5512C4.15073 13.7348 4.09375 13.9435 4.09375 14.156C4.09375 14.3685 4.15073 14.5771 4.25887 14.7607C4.36701 14.9443 4.52245 15.0962 4.70933 15.201L7.73289 16.8585V22.552C7.73289 23.5076 8.11669 24.4242 8.79986 25.1C9.48303 25.7757 10.4096 26.1554 11.3757 26.1554H21.09C22.0562 26.1554 22.9827 25.7757 23.6659 25.1C24.3491 24.4242 24.7329 23.5076 24.7329 22.552V16.8585L27.1614 15.5133V18.9485C27.1614 19.2671 27.2894 19.5726 27.5171 19.7979C27.7448 20.0231 28.0537 20.1497 28.3757 20.1497C28.6978 20.1497 29.0066 20.0231 29.2343 19.7979C29.4621 19.5726 29.59 19.2671 29.59 18.9485V14.8166C29.5896 14.6038 29.5321 14.3948 29.4233 14.2112C29.3145 14.0276 29.1583 13.8759 28.9707 13.7716ZM22.3043 22.552C22.3043 22.8705 22.1764 23.176 21.9486 23.4013C21.7209 23.6266 21.4121 23.7531 21.09 23.7531H11.3757C11.0537 23.7531 10.7448 23.6266 10.5171 23.4013C10.2894 23.176 10.1615 22.8705 10.1615 22.552V18.1918L15.6379 21.1947L15.82 21.2667H15.9293C16.0301 21.2793 16.1321 21.2793 16.2329 21.2667C16.3337 21.2793 16.4357 21.2793 16.5364 21.2667H16.6457C16.7102 21.2533 16.7718 21.2289 16.8279 21.1947L22.3043 18.1918V22.552ZM16.2329 18.7804L7.80575 14.144L16.2329 9.50756L24.66 14.144L16.2329 18.7804Z" fill="black"/>
</svg>
