<svg width="58" height="47" viewBox="0 0 58 47" fill="none" xmlns="http://www.w3.org/2000/svg">
<path d="M1.45226 44.8924C1.45226 45.4158 1.87659 45.8402 2.40003 45.8402C2.92347 45.8402 3.34779 45.4158 3.34779 44.8924V43.8068C3.34779 42.7643 4.76324 42.4498 5.21138 43.391C5.56445 44.1325 6.62123 44.1338 6.97294 43.3916C7.41811 42.4523 8.82808 42.7694 8.82808 43.809V44.886C8.82808 45.4129 9.25529 45.8402 9.78229 45.8402C10.3093 45.8402 10.7365 45.4129 10.7365 44.886V36.7954C10.7365 36.1498 10.2132 35.6265 9.56763 35.6265C9.116 35.6265 8.70478 35.8867 8.51136 36.2948L8.19634 36.9595C7.35487 38.7351 4.82905 38.7374 3.98435 36.9634L3.66319 36.2889C3.47052 35.8842 3.06231 35.6265 2.61415 35.6265C1.97246 35.6265 1.45226 36.1467 1.45226 36.7884V44.8924Z" fill="white"/>
<path d="M16.9155 46.0186C19.4816 46.0186 21.6221 43.5952 21.6221 40.7259C21.6221 37.8565 19.4816 35.4481 16.9155 35.4481C14.3753 35.4481 12.2089 37.8565 12.2089 40.7259C12.2089 43.5952 14.3753 46.0186 16.9155 46.0186ZM16.9155 44.0264C15.4326 44.0264 14.1689 42.5099 14.1689 40.7259C14.1689 38.9567 15.4326 37.4403 16.9155 37.4403C18.4113 37.4403 19.675 38.9567 19.675 40.7259C19.675 42.5099 18.4113 44.0264 16.9155 44.0264Z" fill="white"/>
<path d="M23.0989 44.8924C23.0989 45.4158 23.5232 45.8402 24.0466 45.8402C24.5701 45.8402 24.9944 45.4158 24.9944 44.8924V44.3359C24.9944 42.8367 26.9478 42.2602 27.7618 43.5192L28.8974 45.2754C29.1251 45.6275 29.5158 45.8402 29.9352 45.8402C30.6177 45.8402 31.171 45.2869 31.171 44.6043V36.5807C31.171 36.0537 30.7438 35.6265 30.2168 35.6265C29.6898 35.6265 29.2626 36.0537 29.2626 36.5807V37.1307C29.2626 38.63 27.3092 39.2065 26.4952 37.9475L25.3571 36.1875C25.131 35.8377 24.7429 35.6265 24.3264 35.6265C23.6484 35.6265 23.0989 36.176 23.0989 36.854V44.8924Z" fill="white"/>
<path d="M35.3027 44.8859C35.3027 45.4129 35.7299 45.8402 36.2569 45.8402C36.7839 45.8402 37.2111 45.4129 37.2111 44.8859V38.9835C37.2111 38.2215 37.8288 37.6038 38.5909 37.6038H38.9819C39.528 37.6038 39.9706 37.1612 39.9706 36.6151C39.9706 36.0691 39.528 35.6265 38.9819 35.6265H33.5319C32.9858 35.6265 32.5432 36.0691 32.5432 36.6151C32.5432 37.1612 32.9858 37.6038 33.5319 37.6038H33.9229C34.685 37.6038 35.3027 38.2215 35.3027 38.9835V44.8859Z" fill="white"/>
<path d="M48.1223 35.6265C47.5989 35.6265 47.1745 36.0508 47.1745 36.5742V37.6335C47.1745 38.742 46.265 39.6406 45.1565 39.6406C44.0481 39.6406 43.1385 38.742 43.1385 37.6335V36.5742C43.1385 36.0508 42.7142 35.6265 42.1907 35.6265C41.6673 35.6265 41.243 36.0508 41.243 36.5742V44.8924C41.243 45.4158 41.6673 45.8402 42.1907 45.8402C42.7142 45.8402 43.1385 45.4158 43.1385 44.8924V43.6359C43.1385 42.5214 44.042 41.6179 45.1565 41.6179C46.271 41.6179 47.1745 42.5214 47.1745 43.6359V44.8924C47.1745 45.4158 47.5989 45.8402 48.1223 45.8402C48.6458 45.8402 49.0701 45.4158 49.0701 44.8924V36.5742C49.0701 36.0508 48.6458 35.6265 48.1223 35.6265Z" fill="white"/>
<path d="M54.1785 46.0186C56.3449 46.0186 57.6214 44.7251 57.6214 42.7775C57.6214 40.8894 56.3578 40.2353 54.4493 39.7447C53.0825 39.3878 52.5538 39.15 52.5538 38.4066C52.5538 37.7971 53.0438 37.3065 53.8562 37.3065C54.3965 37.3065 54.9523 37.4682 55.4875 37.7728C55.9922 38.06 56.6696 37.9824 56.9791 37.491C57.2112 37.1227 57.1616 36.634 56.8122 36.3744C56.0157 35.7824 55.0653 35.4481 53.9077 35.4481C51.9735 35.4481 50.6325 36.7415 50.6325 38.6296C50.6325 40.607 51.9606 41.2165 53.8304 41.7071C55.1843 42.0639 55.7001 42.2869 55.7001 43.0154C55.7001 43.6547 55.2101 44.1602 54.2559 44.1602C53.491 44.1602 52.804 43.9252 52.1786 43.5117C51.702 43.1967 51.0382 43.238 50.7013 43.6994C50.437 44.0616 50.4624 44.5681 50.8113 44.8497C51.756 45.6121 52.91 46.0186 54.1785 46.0186Z" fill="white"/>
<path d="M37.3771 15.0157C36.0641 15.0157 34.2527 13.8042 35.1512 12.8467C35.713 12.248 36.4158 11.9184 37.2267 11.9184C37.7416 11.9184 38.1958 12.0104 38.6163 12.1814C39.5408 12.5573 40.7052 12.4396 41.1808 11.5623C41.5097 10.9554 41.3954 10.1866 40.8232 9.8005C39.803 9.11209 38.6095 8.69724 37.2052 8.69724C33.1219 8.69724 30.4354 12.4883 30.4354 17.7909C30.4354 22.7466 32.3912 26.3147 36.7109 26.3147C39.9346 26.3147 42.3631 23.9112 42.3631 20.4175C42.3631 17.0476 40.1065 15.0157 37.3771 15.0157ZM36.539 23.2174C35.2294 23.2174 34.4582 22.4881 34.055 21.1523C33.8257 20.393 33.8865 19.53 34.4041 18.929C34.9158 18.3349 35.6312 17.9892 36.453 17.9892C37.8929 17.9892 39.0964 18.9555 39.0964 20.5909C39.0964 21.9537 38.1078 23.2174 36.539 23.2174Z" fill="white"/>
<path d="M54.9909 17.7538C54.9909 16.9395 54.3309 16.2795 53.5166 16.2795H53.0782C52.0218 16.2795 51.1655 15.4231 51.1655 14.3667V13.1237C51.1655 12.376 50.5593 11.7698 49.8115 11.7698C49.0638 11.7698 48.4576 12.376 48.4576 13.1237V14.356C48.4576 15.4183 47.5964 16.2795 46.5341 16.2795H46.085C45.2707 16.2795 44.6106 16.9395 44.6106 17.7538C44.6106 18.568 45.2707 19.2281 46.085 19.2281H46.5341C47.5964 19.2281 48.4576 20.0893 48.4576 21.1516V22.3838C48.4576 23.1316 49.0638 23.7378 49.8115 23.7378C50.5593 23.7378 51.1655 23.1316 51.1655 22.3838V21.1408C51.1655 20.0844 52.0218 19.2281 53.0782 19.2281H53.5166C54.3309 19.2281 54.9909 18.568 54.9909 17.7538Z" fill="white"/>
<path d="M23.3326 3.09731H22.1948C21.3395 3.09731 20.6462 2.40395 20.6462 1.54865C20.6462 1.13793 20.5046 0.744019 20.2527 0.45359C20.0008 0.163161 19.6592 0 19.3029 0C18.9467 0 18.6051 0.163161 18.3532 0.45359C18.1013 0.744019 17.9597 1.13793 17.9597 1.54865C17.9597 2.40395 17.2664 3.09731 16.4111 3.09731H11.4491C10.5939 3.09731 9.90049 2.40395 9.90049 1.54865C9.90049 1.13793 9.75898 0.744019 9.50708 0.45359C9.25518 0.163161 8.91353 0 8.55729 0C8.20105 0 7.8594 0.163161 7.6075 0.45359C7.3556 0.744019 7.21408 1.13793 7.21408 1.54865C7.21408 2.40395 6.52073 3.09731 5.66543 3.09731H4.52767C3.45895 3.09731 2.434 3.58679 1.6783 4.45808C0.922595 5.32937 0.498047 6.51109 0.498047 7.74327V26.3271C0.498047 27.5593 0.922595 28.741 1.6783 29.6123C2.434 30.4836 3.45895 30.9731 4.52767 30.9731H23.3326C24.4013 30.9731 25.4262 30.4836 26.1819 29.6123C26.9376 28.741 27.3622 27.5593 27.3622 26.3271V7.74327C27.3622 6.51109 26.9376 5.32937 26.1819 4.45808C25.4262 3.58679 24.4013 3.09731 23.3326 3.09731ZM24.6758 26.3271C24.6758 26.7378 24.5343 27.1318 24.2824 27.4222C24.0305 27.7126 23.6888 27.8758 23.3326 27.8758H4.52767C4.17143 27.8758 3.82978 27.7126 3.57788 27.4222C3.32598 27.1318 3.18446 26.7378 3.18446 26.3271V20.4865C3.18446 17.7251 5.42304 15.4865 8.18446 15.4865H19.6758C22.4372 15.4865 24.6758 17.7251 24.6758 20.4865V26.3271ZM24.6758 7.74327C24.6758 10.3092 22.5957 12.3892 20.0298 12.3892H7.83042C5.26452 12.3892 3.18446 10.3092 3.18446 7.74327C3.18446 7.33254 3.32598 6.93864 3.57788 6.64821C3.82978 6.35778 4.17143 6.19462 4.52767 6.19462H5.66543C6.52073 6.19462 7.21408 6.88797 7.21408 7.74327C7.21408 8.154 7.3556 8.54791 7.6075 8.83834C7.8594 9.12876 8.20105 9.29192 8.55729 9.29192C8.91353 9.29192 9.25518 9.12876 9.50708 8.83834C9.75898 8.54791 9.90049 8.154 9.90049 7.74327C9.90049 6.88797 10.5939 6.19462 11.4491 6.19462H16.4111C17.2664 6.19462 17.9597 6.88797 17.9597 7.74327C17.9597 8.154 18.1013 8.54791 18.3532 8.83834C18.6051 9.12876 18.9467 9.29192 19.3029 9.29192C19.6592 9.29192 20.0008 9.12876 20.2527 8.83834C20.5046 8.54791 20.6462 8.154 20.6462 7.74327C20.6462 6.88797 21.3395 6.19462 22.1948 6.19462H23.3326C23.6888 6.19462 24.0305 6.35778 24.2824 6.64821C24.5343 6.93864 24.6758 7.33254 24.6758 7.74327Z" fill="white"/>
</svg>
