<svg width="42" height="43" viewBox="0 0 42 43" fill="none" xmlns="http://www.w3.org/2000/svg">
<path d="M22.2442 23.1056L17.4131 27.9158C17.2162 28.111 17.0599 28.3433 16.9533 28.5993C16.8467 28.8553 16.7918 29.1298 16.7918 29.4071C16.7918 29.6844 16.8467 29.9589 16.9533 30.2149C17.0599 30.4709 17.2162 30.7032 17.4131 30.8985C17.6084 31.0953 17.8407 31.2516 18.0966 31.3582C18.3526 31.4649 18.6271 31.5198 18.9044 31.5198C19.1817 31.5198 19.4563 31.4649 19.7122 31.3582C19.9682 31.2516 20.2005 31.0953 20.3958 30.8985L28.7978 22.4965C28.989 22.2967 29.1389 22.0612 29.2389 21.8033C29.4489 21.2919 29.4489 20.7183 29.2389 20.207C29.1389 19.9491 28.989 19.7136 28.7978 19.5138L20.3958 11.1118C20.1999 10.916 19.9674 10.7606 19.7115 10.6546C19.4557 10.5486 19.1814 10.4941 18.9044 10.4941C18.6275 10.4941 18.3532 10.5486 18.0973 10.6546C17.8414 10.7606 17.6089 10.916 17.4131 11.1118C17.2172 11.3077 17.0619 11.5402 16.9559 11.7961C16.8499 12.0519 16.7953 12.3262 16.7953 12.6032C16.7953 12.8801 16.8499 13.1544 16.9559 13.4103C17.0619 13.6662 17.2172 13.8987 17.4131 14.0945L22.2442 18.9046H2.10049C1.54341 18.9046 1.00914 19.1259 0.61522 19.5199C0.221301 19.9138 0 20.4481 0 21.0051C0 21.5622 0.221301 22.0965 0.61522 22.4904C1.00914 22.8843 1.54341 23.1056 2.10049 23.1056H22.2442ZM21.0049 0.000209406C17.0793 -0.0173167 13.2273 1.06561 9.8859 3.12615C6.54449 5.18668 3.84738 8.14237 2.10049 11.6579C1.8498 12.1593 1.80856 12.7397 1.98582 13.2715C2.16308 13.8033 2.54434 14.2429 3.04571 14.4936C3.54709 14.7443 4.12752 14.7856 4.65931 14.6083C5.1911 14.431 5.63069 14.0498 5.88138 13.5484C7.20929 10.8667 9.22921 8.58832 11.7324 6.94861C14.2356 5.3089 17.1312 4.36738 20.1201 4.22134C23.109 4.0753 26.0826 4.73005 28.7337 6.11792C31.3849 7.50578 33.6173 9.57642 35.2003 12.1158C36.7833 14.6553 37.6595 17.5714 37.7383 20.5627C37.8171 23.5541 37.0957 26.5123 35.6485 29.1315C34.2014 31.7508 32.0811 33.9361 29.5068 35.4616C26.9324 36.9871 23.9973 37.7976 21.0049 37.8091C17.8728 37.8226 14.8004 36.9528 12.1402 35.2995C9.48001 33.6462 7.33987 31.2763 5.9654 28.4619C5.71471 27.9605 5.27512 27.5793 4.74333 27.402C4.21154 27.2247 3.63111 27.266 3.12973 27.5167C2.62836 27.7674 2.2471 28.2069 2.06984 28.7387C1.89257 29.2705 1.93382 29.851 2.18451 30.3523C3.84984 33.7037 6.38029 36.5493 9.51412 38.5948C12.648 40.6402 16.2714 41.8114 20.0096 41.9869C23.7477 42.1625 27.465 41.3362 30.7767 39.5935C34.0885 37.8507 36.8745 35.2549 38.8467 32.0744C40.8188 28.8939 41.9054 25.2442 41.9941 21.503C42.0828 17.7617 41.1703 14.0647 39.3511 10.7943C37.5319 7.5239 34.8721 4.79893 31.6466 2.90121C28.4211 1.0035 24.7472 0.00196637 21.0049 0.000209406Z" fill="black"/>
</svg>
