<svg width="53" height="42" viewBox="0 0 53 42" fill="none" xmlns="http://www.w3.org/2000/svg">
<path d="M44.3677 0H7.8296C5.75306 0 3.76157 0.829685 2.29324 2.30653C0.824902 3.78338 0 5.78642 0 7.875V34.125C0 36.2136 0.824902 38.2166 2.29324 39.6935C3.76157 41.1703 5.75306 42 7.8296 42H44.3677C46.4443 42 48.4358 41.1703 49.9041 39.6935C51.3725 38.2166 52.1973 36.2136 52.1973 34.125V7.875C52.1973 5.78642 51.3725 3.78338 49.9041 2.30653C48.4358 0.829685 46.4443 0 44.3677 0ZM43.2977 5.25L27.9517 20.685C27.7091 20.931 27.4204 21.1263 27.1024 21.2596C26.7843 21.3929 26.4432 21.4615 26.0987 21.4615C25.7541 21.4615 25.413 21.3929 25.095 21.2596C24.7769 21.1263 24.4883 20.931 24.2457 20.685L8.89965 5.25H43.2977ZM46.9776 34.125C46.9776 34.8212 46.7027 35.4889 46.2132 35.9812C45.7238 36.4734 45.0599 36.75 44.3677 36.75H7.8296C7.13742 36.75 6.47359 36.4734 5.98415 35.9812C5.4947 35.4889 5.21974 34.8212 5.21974 34.125V8.95125L20.5658 24.3862C22.0338 25.861 24.0238 26.6893 26.0987 26.6893C28.1735 26.6893 30.1635 25.861 31.6316 24.3862L46.9776 8.95125V34.125Z" fill="white"/>
</svg>
