<svg width="43" height="42" viewBox="0 0 43 42" fill="none" xmlns="http://www.w3.org/2000/svg">
<path d="M39.8278 0.00029364H3.82176C3.41701 -0.00525999 3.01513 0.0680124 2.63905 0.215927C2.26298 0.363841 1.92007 0.583499 1.62993 0.862357C1.33979 1.14121 1.10809 1.47381 0.948058 1.84115C0.78803 2.20849 0.70281 2.60337 0.697266 3.00325V38.9967C0.70281 39.3966 0.78803 39.7915 0.948058 40.1588C1.10809 40.5262 1.33979 40.8588 1.62993 41.1376C1.92007 41.4165 2.26298 41.6362 2.63905 41.7841C3.01513 41.932 3.41701 42.0053 3.82176 41.9997H39.8278C40.2325 42.0053 40.6344 41.932 41.0105 41.7841C41.3866 41.6362 41.7295 41.4165 42.0196 41.1376C42.3097 40.8588 42.5414 40.5262 42.7015 40.1588C42.8615 39.7915 42.9467 39.3966 42.9523 38.9967V3.00325C42.9467 2.60337 42.8615 2.20849 42.7015 1.84115C42.5414 1.47381 42.3097 1.14121 42.0196 0.862357C41.7295 0.583499 41.3866 0.363841 41.0105 0.215927C40.6344 0.0680124 40.2325 -0.00525999 39.8278 0.00029364ZM13.514 35.1538H7.13754V16.2541H13.514V35.1538ZM10.3258 13.6081C9.44639 13.6081 8.60301 13.263 7.98118 12.6486C7.35935 12.0342 7.01001 11.201 7.01001 10.3321C7.01001 9.46331 7.35935 8.63006 7.98118 8.0157C8.60301 7.40134 9.44639 7.05619 10.3258 7.05619C10.7928 7.00387 11.2656 7.04959 11.7135 7.19035C12.1613 7.33111 12.574 7.56374 12.9246 7.873C13.2751 8.18227 13.5556 8.5612 13.7476 8.98498C13.9396 9.40876 14.0389 9.86784 14.0389 10.3321C14.0389 10.7965 13.9396 11.2555 13.7476 11.6793C13.5556 12.1031 13.2751 12.482 12.9246 12.7913C12.574 13.1006 12.1613 13.3332 11.7135 13.4739C11.2656 13.6147 10.7928 13.6604 10.3258 13.6081ZM36.512 35.1538H30.1355V25.0109C30.1355 22.47 29.2215 20.811 26.9047 20.811C26.1877 20.8162 25.4895 21.0384 24.9043 21.4477C24.319 21.8569 23.8748 22.4336 23.6314 23.1C23.4651 23.5935 23.393 24.1134 23.4189 24.6329V35.1328H17.0424C17.0424 35.1328 17.0424 17.955 17.0424 16.2331H23.4189V18.9C23.9982 17.907 24.8407 17.0888 25.8557 16.5338C26.8707 15.9787 28.0197 15.7078 29.179 15.7501C33.43 15.7501 36.512 18.459 36.512 24.276V35.1538Z" fill="white"/>
</svg>
