<svg width="80" height="81" viewBox="0 0 80 81" fill="none" xmlns="http://www.w3.org/2000/svg">
<g opacity="0.15">
<path d="M33.5851 44.3609H46.4149C47.2656 44.3609 48.0814 44.0007 48.6829 43.3595C49.2845 42.7184 49.6224 41.8488 49.6224 40.9421C49.6224 40.0353 49.2845 39.1658 48.6829 38.5246C48.0814 37.8835 47.2656 37.5233 46.4149 37.5233H33.5851C32.7344 37.5233 31.9186 37.8835 31.3171 38.5246C30.7155 39.1658 30.3776 40.0353 30.3776 40.9421C30.3776 41.8488 30.7155 42.7184 31.3171 43.3595C31.9186 44.0007 32.7344 44.3609 33.5851 44.3609ZM62.4522 10.1729H17.5478C15.2912 10.1915 13.1125 11.0549 11.3927 12.6122C9.67279 14.1695 8.52113 16.3215 8.13899 18.6921C7.75685 21.0627 8.16854 23.5011 9.3021 25.5809C10.4357 27.6608 12.219 29.2498 14.3403 30.0703V61.4549C14.3403 64.175 15.3541 66.7838 17.1586 68.7072C18.9632 70.6307 21.4107 71.7113 23.9627 71.7113H56.0373C58.5893 71.7113 61.0368 70.6307 62.8414 68.7072C64.6459 66.7838 65.6597 64.175 65.6597 61.4549V30.0703C67.781 29.2498 69.5643 27.6608 70.6979 25.5809C71.8315 23.5011 72.2432 21.0627 71.861 18.6921C71.4789 16.3215 70.3272 14.1695 68.6073 12.6122C66.8875 11.0549 64.7088 10.1915 62.4522 10.1729ZM59.2448 61.4549C59.2448 62.3616 58.9069 63.2312 58.3053 63.8723C57.7038 64.5135 56.888 64.8737 56.0373 64.8737H23.9627C23.112 64.8737 22.2962 64.5135 21.6947 63.8723C21.0931 63.2312 20.7552 62.3616 20.7552 61.4549V30.6857H59.2448V61.4549ZM62.4522 23.8481H17.5478C16.6971 23.8481 15.8813 23.4879 15.2797 22.8467C14.6782 22.2056 14.3403 21.336 14.3403 20.4293C14.3403 19.5225 14.6782 18.6529 15.2797 18.0118C15.8813 17.3706 16.6971 17.0105 17.5478 17.0105H62.4522C63.3029 17.0105 64.1188 17.3706 64.7203 18.0118C65.3218 18.6529 65.6597 19.5225 65.6597 20.4293C65.6597 21.336 65.3218 22.2056 64.7203 22.8467C64.1188 23.4879 63.3029 23.8481 62.4522 23.8481Z" fill="#0F1EFF"/>
</g>
</svg>
