<svg width="60" height="59" viewBox="0 0 60 59" fill="none" xmlns="http://www.w3.org/2000/svg">
<path d="M59.0537 0.436523H0.621582V58.8625H59.0537V0.436523Z" fill="#0F1EFF"/>
<path d="M6.70068 27.293V17.2324H12.6914V18.7077H8.17615V21.5162H12.5848V22.9915H8.17615V27.293H6.70068Z" fill="white"/>
<path d="M14.646 17.251C15.1615 17.251 15.4992 17.5887 15.4992 18.1042C15.4992 18.6196 15.1615 18.9751 14.646 18.9751C14.1127 18.9751 13.7749 18.6374 13.7749 18.1042C13.7927 17.5887 14.1127 17.251 14.646 17.251ZM13.8993 27.2938V20.1838H15.3748V27.2938H13.8993Z" fill="white"/>
<path d="M16.8174 27.293V17.2324H18.2929V27.293H16.8174Z" fill="white"/>
<path d="M26.2188 25.1063C25.7388 26.4394 24.4767 27.3459 23.0546 27.3459C21.0102 27.3459 19.5703 25.835 19.5703 23.7198C19.5703 21.6579 21.0636 20.0938 23.019 20.0938C24.9744 20.0938 26.4677 21.6402 26.4677 23.6843C26.4677 23.8798 26.4499 24.0753 26.4144 24.2531H21.0813C21.2769 25.284 22.0235 25.9595 23.0368 25.9595C23.7656 25.9595 24.37 25.6217 24.6367 25.124H26.2188V25.1063ZM24.9567 23.1688C24.7611 22.1734 24.0145 21.4802 23.019 21.4802C22.0413 21.4802 21.2947 22.1556 21.0813 23.1688H24.9567Z" fill="white"/>
<path d="M8.05242 37.0142C8.12353 38.063 9.10125 38.7739 10.2034 38.7739C11.3233 38.7739 12.2477 38.2229 12.2477 37.2631C12.2655 36.2499 11.3767 35.9122 10.3101 35.6456C8.76349 35.2723 6.87915 35.0057 6.87915 32.7838C6.89693 30.8641 8.3724 29.9932 10.1679 29.9932C11.91 29.9932 13.4743 30.8997 13.4921 32.8194H12.0166C11.9455 31.8773 11.1456 31.4152 10.1679 31.4152C9.17235 31.4152 8.3724 31.8773 8.35462 32.766C8.33685 33.797 9.35012 33.957 10.5767 34.2591C12.0877 34.6146 13.7588 35.2012 13.741 37.2631C13.7232 39.0583 12.1588 40.1959 10.2212 40.1959C8.31907 40.1959 6.63028 39.0406 6.59473 37.032H8.05242V37.0142Z" fill="white"/>
<path d="M18.0945 34.4032C17.1346 34.4032 16.4413 35.3098 16.4413 36.554V40.109H14.9658V32.999H16.4413V34.1544C16.7079 33.4256 17.4901 32.9102 18.3612 32.9102C19.4456 32.9102 20.2988 33.4256 20.7966 34.3321C21.2588 33.4256 22.041 32.9102 23.0187 32.9102C24.9563 32.9102 26.1652 34.3499 26.1652 36.5362V40.0912H24.6897V36.5362C24.6897 35.2387 24.0142 34.3855 22.9653 34.3855C22.0054 34.3855 21.3121 35.292 21.3121 36.5362V40.0912H19.8366V36.5362C19.8011 35.2387 19.1256 34.4032 18.0945 34.4032Z" fill="white"/>
<path d="M32.9922 38.9544C32.69 39.6832 31.73 40.1809 30.7345 40.1809C28.6902 40.1809 27.3569 38.7411 27.3569 36.5548C27.3569 34.3685 28.6902 32.9287 30.7345 32.9287C31.7122 32.9287 32.69 33.4442 32.9922 34.173V33.0176H34.4676V40.1275H32.9922V38.9544ZM30.9123 38.7055C32.1389 38.7055 32.9922 37.8346 32.9922 36.5548C32.9922 35.2928 32.1211 34.404 30.9123 34.404C29.6679 34.404 28.8324 35.2572 28.8324 36.5548C28.8146 37.8523 29.6679 38.7055 30.9123 38.7055Z" fill="white"/>
<path d="M39.9961 34.4032C38.3073 34.3855 37.3651 35.2209 37.3651 36.714V40.109H35.8896V32.999H37.3651V34.3144C37.9162 33.2834 39.0184 32.9102 39.9961 32.9102V34.4032Z" fill="white"/>
<path d="M43.6044 31.5041V33.015H45.1509V34.4192H43.6044V37.5831C43.6044 38.3119 43.9421 38.6318 44.671 38.6318H45.1509V40.1071H44.5288C42.84 40.1071 42.1289 39.4139 42.1289 37.672V34.4014H41.0801V32.9972H42.1289L42.4844 31.4863H43.6044V31.5041Z" fill="white"/>
<path d="M7.42916 51.2188C7.94469 51.2188 8.28245 51.5565 8.28245 52.072C8.28245 52.5875 7.94469 52.943 7.42916 52.943C6.91364 52.943 6.55811 52.6053 6.55811 52.072C6.55811 51.5387 6.91364 51.2188 7.42916 51.2188Z" fill="#1ED2E1"/>
<path d="M10.4152 52.8711V44.2859H7.42871V42.8105H14.8772V44.2859H11.8907V52.8711H10.4152Z" fill="#1ED2E1"/>
<path d="M20.3545 51.6966C20.0523 52.4253 19.0923 52.923 18.0968 52.923C16.0525 52.923 14.7192 51.4833 14.7192 49.297C14.7192 47.1107 16.0525 45.6709 18.0968 45.6709C19.0745 45.6709 20.0523 46.1864 20.3545 46.9151V45.7598H21.8299V52.8697H20.3545V51.6966ZM18.2924 51.4477C19.519 51.4477 20.3722 50.5768 20.3722 49.297C20.3722 48.035 19.5012 47.1462 18.2924 47.1462C17.048 47.1462 16.2125 47.9994 16.2125 49.297C16.1947 50.5945 17.048 51.4477 18.2924 51.4477Z" fill="#1ED2E1"/>
<path d="M25.3301 49.3157L22.877 45.7607H24.6546L26.2368 48.0182L27.8011 45.7607H29.5788L27.1256 49.3157L29.5788 52.8707H27.8011L26.2368 50.6133L24.6546 52.8707H22.877L25.3301 49.3157Z" fill="#1ED2E1"/>
<path d="M35.6773 17.9648H41.5259V0.438822H35.6773V17.9648Z" fill="#1ED2E1"/>
<path d="M47.3541 23.8047H53.2026V0.430727H47.3541V23.8047Z" fill="#1ED2E1"/>
</svg>
