<svg width="17" height="16" viewBox="0 0 17 16" fill="none" xmlns="http://www.w3.org/2000/svg">
<path d="M8.23633 0.112793C6.65408 0.112793 5.10736 0.570541 3.79177 1.42815C2.47618 2.28576 1.4508 3.50472 0.845295 4.93087C0.239794 6.35703 0.0813677 7.92633 0.390049 9.44032C0.698731 10.9543 1.46066 12.345 2.57948 13.4365C3.6983 14.5281 5.12376 15.2714 6.67561 15.5726C8.22746 15.8737 9.83599 15.7192 11.2978 15.1284C12.7596 14.5377 14.009 13.5373 14.8881 12.2538C15.7671 10.9703 16.2363 9.46133 16.2363 7.91767C16.2363 6.89272 16.0294 5.8778 15.6274 4.93087C15.2253 3.98394 14.6361 3.12354 13.8932 2.39879C13.1503 1.67404 12.2684 1.09914 11.2978 0.706904C10.3272 0.314672 9.28691 0.112793 8.23633 0.112793ZM8.23633 14.1616C6.97053 14.1616 5.73316 13.7954 4.68068 13.1093C3.62821 12.4232 2.8079 11.448 2.3235 10.3071C1.8391 9.16618 1.71236 7.91074 1.95931 6.69954C2.20625 5.48835 2.81579 4.37579 3.71085 3.50256C4.6059 2.62934 5.74627 2.03467 6.98775 1.79374C8.22923 1.55282 9.51606 1.67647 10.6855 2.14906C11.8549 2.62164 12.8545 3.42194 13.5577 4.44874C14.261 5.47555 14.6363 6.68274 14.6363 7.91767C14.6363 9.57365 13.962 11.1618 12.7618 12.3328C11.5616 13.5037 9.93372 14.1616 8.23633 14.1616Z" fill="#101EFF"/>
<path d="M8.23555 5.57587C8.67737 5.57587 9.03555 5.22643 9.03555 4.79538C9.03555 4.36433 8.67737 4.01489 8.23555 4.01489C7.79372 4.01489 7.43555 4.36433 7.43555 4.79538C7.43555 5.22643 7.79372 5.57587 8.23555 5.57587Z" fill="#101EFF"/>
<path d="M8.23555 6.35645C8.02337 6.35645 7.81989 6.43868 7.66986 6.58505C7.51983 6.73141 7.43555 6.92993 7.43555 7.13693V11.0394C7.43555 11.2464 7.51983 11.4449 7.66986 11.5913C7.81989 11.7376 8.02337 11.8199 8.23555 11.8199C8.44772 11.8199 8.6512 11.7376 8.80123 11.5913C8.95126 11.4449 9.03555 11.2464 9.03555 11.0394V7.13693C9.03555 6.92993 8.95126 6.73141 8.80123 6.58505C8.6512 6.43868 8.44772 6.35645 8.23555 6.35645Z" fill="#101EFF"/>
</svg>
