<svg width="38" height="25" viewBox="0 0 38 25" fill="none" xmlns="http://www.w3.org/2000/svg">
<path d="M37.7455 11.4977C36.53 9.53554 29.8447 -0.310648 18.4872 0.00754123C7.98438 0.255022 1.90679 8.84613 0.254451 11.4977C0.0877572 11.7664 0 12.0713 0 12.3816C0 12.6919 0.0877572 12.9967 0.254451 13.2654C1.45098 15.1922 7.85143 24.7556 19.038 24.7556H19.5128C30.0156 24.5081 36.1122 15.917 37.7455 13.2654C37.9122 12.9967 38 12.6919 38 12.3816C38 12.0713 37.9122 11.7664 37.7455 11.4977ZM19.4178 21.2202C11.2321 21.3969 5.89521 14.8741 4.22387 12.3816C6.12312 9.53554 11.0801 3.71975 18.6771 3.54298C26.8249 3.34853 32.1808 9.88909 33.8711 12.3816C31.9149 15.2276 27.0148 21.0434 19.4178 21.2202Z" fill="#0F1EFF"/>
<path d="M19.0009 6.19458C17.6862 6.19458 16.401 6.55744 15.3078 7.23728C14.2146 7.91712 13.3626 8.8834 12.8595 10.0139C12.3564 11.1445 12.2248 12.3885 12.4812 13.5886C12.7377 14.7888 13.3708 15.8912 14.3005 16.7565C15.2301 17.6217 16.4146 18.211 17.704 18.4497C18.9935 18.6885 20.3301 18.5659 21.5447 18.0977C22.7594 17.6294 23.7975 16.8364 24.528 15.8189C25.2584 14.8015 25.6482 13.6053 25.6482 12.3816C25.6482 10.7407 24.9479 9.16701 23.7013 8.00672C22.4546 6.84642 20.7639 6.19458 19.0009 6.19458ZM19.0009 15.0332C18.4374 15.0332 17.8866 14.8777 17.4181 14.5863C16.9496 14.2949 16.5845 13.8808 16.3689 13.3963C16.1532 12.9118 16.0968 12.3787 16.2067 11.8643C16.3167 11.3499 16.588 10.8775 16.9864 10.5066C17.3848 10.1358 17.8925 9.88328 18.4451 9.78097C18.9977 9.67865 19.5705 9.73116 20.0911 9.93186C20.6117 10.1325 21.0566 10.4724 21.3696 10.9085C21.6827 11.3445 21.8497 11.8572 21.8497 12.3816C21.8497 13.0848 21.5496 13.7593 21.0153 14.2565C20.4811 14.7538 19.7564 15.0332 19.0009 15.0332Z" fill="#0F1EFF"/>
</svg>
