<svg width="38" height="32" viewBox="0 0 38 32" fill="none" xmlns="http://www.w3.org/2000/svg">
<path d="M5.14856 0.522543C4.97167 0.356876 4.76166 0.225462 4.53053 0.135804C4.2994 0.0461465 4.05168 0 3.80151 0C3.55134 0 3.30362 0.0461465 3.07249 0.135804C2.84136 0.225462 2.63135 0.356876 2.45445 0.522543C2.09719 0.857121 1.89648 1.31091 1.89648 1.78407C1.89648 2.25724 2.09719 2.71102 2.45445 3.0456L13.136 13.049C12.4602 14.2263 12.2075 15.5763 12.4152 16.8987C12.623 18.2211 13.2802 19.4457 14.2895 20.3909C15.2987 21.336 16.6063 21.9515 18.0184 22.1461C19.4304 22.3406 20.8719 22.1039 22.129 21.471L32.8106 31.4744C32.987 31.641 33.1968 31.7731 33.428 31.8634C33.6592 31.9536 33.9072 32 34.1577 32C34.4081 32 34.6561 31.9536 34.8873 31.8634C35.1185 31.7731 35.3284 31.641 35.5047 31.4744C35.6826 31.3092 35.8237 31.1127 35.92 30.8962C36.0164 30.6797 36.0659 30.4475 36.0659 30.2129C36.0659 29.9783 36.0164 29.7461 35.92 29.5296C35.8237 29.3131 35.6826 29.1165 35.5047 28.9514L5.14856 0.522543ZM18.9796 18.6637C18.2248 18.6637 17.501 18.3829 16.9672 17.8831C16.4335 17.3832 16.1337 16.7053 16.1337 15.9985V15.8741L19.0934 18.6459L18.9796 18.6637Z" fill="#0F1EFF"/>
<path d="M19.3976 24.8824C11.2393 25.0601 5.88905 18.5037 4.21946 15.9984C5.40804 14.2228 6.83647 12.5984 8.46933 11.1655L5.69932 8.66022C3.55793 10.5498 1.72344 12.7228 0.254185 15.11C0.0876655 15.3801 0 15.6865 0 15.9984C0 16.3103 0.0876655 16.6167 0.254185 16.8868C1.44946 18.8235 7.84323 28.436 19.0181 28.436H19.4924C21.5937 28.3776 23.6678 27.9747 25.6206 27.2456L22.6229 24.4382C21.5687 24.6979 20.4869 24.8469 19.3976 24.8824ZM37.7061 15.11C36.4919 13.1378 29.7945 3.24098 18.4679 3.5608C16.3666 3.61918 14.2925 4.02209 12.3397 4.75126L15.3374 7.55861C16.3916 7.29889 17.4734 7.14991 18.5628 7.11441C26.702 6.91896 32.0523 13.4931 33.7408 15.9984C32.5229 17.7793 31.0624 19.4039 29.3961 20.8313L32.261 23.3366C34.4293 21.452 36.2895 19.2788 37.782 16.8868C37.9371 16.6105 38.0118 16.3008 37.9985 15.9889C37.9852 15.677 37.8843 15.3738 37.7061 15.11Z" fill="#0F1EFF"/>
</svg>
