<svg width="36" height="35" viewBox="0 0 36 35" fill="none" xmlns="http://www.w3.org/2000/svg">
<path d="M17.8135 0C14.2903 0 10.8463 1.02636 7.91686 2.94928C4.98745 4.87221 2.70424 7.60533 1.35598 10.803C0.00771831 14.0007 -0.345049 17.5194 0.34229 20.9141C1.02963 24.3087 2.7262 27.4269 5.21747 29.8744C7.70873 32.3218 10.8828 33.9885 14.3383 34.6637C17.7938 35.339 21.3755 34.9924 24.6305 33.6679C27.8855 32.3434 30.6675 30.1003 32.6249 27.2225C34.5823 24.3446 35.627 20.9612 35.627 17.5C35.627 15.2019 35.1663 12.9262 34.2711 10.803C33.3759 8.67984 32.0637 6.75066 30.4096 5.12563C28.7554 3.50061 26.7917 2.21157 24.6305 1.33211C22.4692 0.452651 20.1528 0 17.8135 0ZM17.8135 31.5C14.995 31.5 12.2397 30.6789 9.8962 29.1406C7.55266 27.6022 5.7261 25.4157 4.64749 22.8576C3.56888 20.2994 3.28667 17.4845 3.83654 14.7687C4.38641 12.053 5.74367 9.55844 7.73668 7.6005C9.72969 5.64257 12.2689 4.3092 15.0333 3.76901C17.7977 3.22881 20.6631 3.50606 23.2671 4.56569C25.8711 5.62531 28.0967 7.41973 29.6626 9.72201C31.2285 12.0243 32.0643 14.7311 32.0643 17.5C32.0643 21.213 30.5629 24.774 27.8904 27.3995C25.2178 30.025 21.5931 31.5 17.8135 31.5Z" fill="#0F1EFF"/>
<path d="M17.8126 12.2493C18.7964 12.2493 19.594 11.4658 19.594 10.4993C19.594 9.53277 18.7964 8.74927 17.8126 8.74927C16.8288 8.74927 16.0312 9.53277 16.0312 10.4993C16.0312 11.4658 16.8288 12.2493 17.8126 12.2493Z" fill="#0F1EFF"/>
<path d="M17.8126 13.9993C17.3402 13.9993 16.8871 14.1836 16.553 14.5118C16.2189 14.84 16.0312 15.2851 16.0312 15.7493V24.4993C16.0312 24.9634 16.2189 25.4085 16.553 25.7367C16.8871 26.0649 17.3402 26.2493 17.8126 26.2493C18.285 26.2493 18.7381 26.0649 19.0722 25.7367C19.4063 25.4085 19.594 24.9634 19.594 24.4993V15.7493C19.594 15.2851 19.4063 14.84 19.0722 14.5118C18.7381 14.1836 18.285 13.9993 17.8126 13.9993Z" fill="#0F1EFF"/>
</svg>
