<svg xmlns="http://www.w3.org/2000/svg" width="42.25" height="42" viewBox="0 0 42.25 42"><path d="M39.93,0H2.32A2.32,2.32,0,0,0,.68.68,2.28,2.28,0,0,0,0,2.31V39.69a2.23,2.23,0,0,0,.18.88,2.1,2.1,0,0,0,.5.75,2.19,2.19,0,0,0,.75.5,2.32,2.32,0,0,0,.89.18H22.56V25.73H17.07V19.42h5.49V14.7a7.67,7.67,0,0,1,2.13-6.1,7.71,7.71,0,0,1,6.07-2.3,42.44,42.44,0,0,1,4.92.25v5.67H32.33c-2.67,0-3.17,1.26-3.17,3.09v4h6.33l-.82,6.3H29.16V42H39.93a2.25,2.25,0,0,0,.89-.18,2.1,2.1,0,0,0,.75-.5,2.27,2.27,0,0,0,.51-.75,2.42,2.42,0,0,0,.17-.88V2.31a2.42,2.42,0,0,0-.17-.88,2.27,2.27,0,0,0-.51-.75,2.1,2.1,0,0,0-.75-.5A2.25,2.25,0,0,0,39.93,0Z" style="fill:#fff"/></svg>