<svg xmlns="http://www.w3.org/2000/svg" width="42.25" height="42" viewBox="0 0 42.25 42"><path d="M32.41,7.27A2.53,2.53,0,0,0,31,7.69a2.5,2.5,0,0,0-.93,1.13,2.6,2.6,0,0,0-.15,1.46,2.49,2.49,0,0,0,.7,1.29,2.54,2.54,0,0,0,1.29.69,2.63,2.63,0,0,0,1.47-.15,2.57,2.57,0,0,0,1.14-.92,2.52,2.52,0,0,0-2.11-3.92Zm9.72,5.08a16,16,0,0,0-1-5.11,10.49,10.49,0,0,0-2.45-3.71A10.06,10.06,0,0,0,35,1.11a15.57,15.57,0,0,0-5.14-1C27.59,0,26.87,0,21.13,0s-6.47,0-8.71.13a15.51,15.51,0,0,0-5.13,1A10.19,10.19,0,0,0,3.55,3.53,10,10,0,0,0,1.12,7.24a15.16,15.16,0,0,0-1,5.11C0,14.57,0,15.29,0,21s0,6.43.13,8.65a15.16,15.16,0,0,0,1,5.11,10,10,0,0,0,2.43,3.71,10.19,10.19,0,0,0,3.74,2.42,15.51,15.51,0,0,0,5.13,1c2.24.13,3,.13,8.71.13s6.46,0,8.7-.13a15.57,15.57,0,0,0,5.14-1,10.06,10.06,0,0,0,3.74-2.42,10.27,10.27,0,0,0,2.45-3.71,16,16,0,0,0,1-5.11c0-2.22.12-2.94.12-8.65S42.25,14.57,42.13,12.35Zm-3.8,17a11.91,11.91,0,0,1-.72,3.91A6.38,6.38,0,0,1,36,35.72a6.68,6.68,0,0,1-2.43,1.58,12.24,12.24,0,0,1-3.93.71c-2.11.11-2.89.13-8.45.13s-6.34,0-8.45-.13a12.16,12.16,0,0,1-4.1-.63,7.06,7.06,0,0,1-2.32-1.57,6.45,6.45,0,0,1-1.57-2.42,11.62,11.62,0,0,1-.84-4c0-2.1-.13-2.88-.13-8.4s0-6.3.13-8.4a11.6,11.6,0,0,1,.74-4A6.18,6.18,0,0,1,6.34,6.3,6.56,6.56,0,0,1,8.66,4.62a12.24,12.24,0,0,1,4-.71c2.11,0,2.89-.13,8.45-.13s6.34,0,8.45.13a11.72,11.72,0,0,1,3.93.71A6.39,6.39,0,0,1,36,6.3a6.46,6.46,0,0,1,1.59,2.31,11.82,11.82,0,0,1,.72,4c.1,2.1.12,2.88.12,8.4S38.43,27.3,38.33,29.4ZM21.13,10.23a10.81,10.81,0,0,0-10,6.66,10.69,10.69,0,0,0-.61,6.22,10.84,10.84,0,0,0,3,5.52A10.88,10.88,0,0,0,30.16,27,10.72,10.72,0,0,0,32,21a10.68,10.68,0,0,0-3.18-7.63,10.89,10.89,0,0,0-7.68-3.14Zm0,17.76a7.07,7.07,0,0,1-3.91-1.18,7,7,0,0,1-1.07-10.75A7.07,7.07,0,0,1,27,17.11a7,7,0,0,1-3.16,10.35A7.09,7.09,0,0,1,21.13,28Z" style="fill:#fff"/></svg>