<svg xmlns="http://www.w3.org/2000/svg" width="52.2" height="42" viewBox="0 0 52.2 42"><path d="M44.37,0H7.83A7.85,7.85,0,0,0,0,7.88V34.12A7.85,7.85,0,0,0,7.83,42H44.37a7.78,7.78,0,0,0,5.53-2.31,7.89,7.89,0,0,0,2.3-5.57V7.88a7.89,7.89,0,0,0-2.3-5.57A7.78,7.78,0,0,0,44.37,0ZM43.3,5.25,28,20.68a2.47,2.47,0,0,1-.85.58,2.63,2.63,0,0,1-2,0,2.53,2.53,0,0,1-.84-.58L8.9,5.25ZM47,34.12A2.63,2.63,0,0,1,46.21,36a2.61,2.61,0,0,1-1.84.77H7.83a2.61,2.61,0,0,1-2.61-2.63V9L20.57,24.39a7.8,7.8,0,0,0,11.06,0L47,9Z" style="fill:#fff"/></svg>