<svg xmlns="http://www.w3.org/2000/svg" width="42.26" height="42" viewBox="0 0 42.26 42"><path d="M39.13,0h-36A3,3,0,0,0,1.94.22a3,3,0,0,0-1,.64,3,3,0,0,0-.68,1A3.1,3.1,0,0,0,0,3V39a3.1,3.1,0,0,0,.25,1.16,3,3,0,0,0,.68,1,3,3,0,0,0,1,.64A3,3,0,0,0,3.12,42h36a3,3,0,0,0,1.18-.22,2.89,2.89,0,0,0,1-.64,3,3,0,0,0,.68-1A3.11,3.11,0,0,0,42.26,39V3A3.11,3.11,0,0,0,42,1.84a3,3,0,0,0-.68-1,2.89,2.89,0,0,0-1-.64A3,3,0,0,0,39.13,0ZM12.82,35.15H6.44V16.25h6.38ZM9.63,13.61a3.38,3.38,0,0,1-2.35-1,3.28,3.28,0,0,1-1-2.32A3.24,3.24,0,0,1,7.28,8a3.34,3.34,0,0,1,2.35-1A3.27,3.27,0,0,1,11,7.19a3.38,3.38,0,0,1,1.21.68A3.31,3.31,0,0,1,13.05,9a3.34,3.34,0,0,1,.29,1.35,3.28,3.28,0,0,1-1.11,2.46,3.38,3.38,0,0,1-1.21.68A3.44,3.44,0,0,1,9.63,13.61ZM35.81,35.15H29.44V25c0-2.54-.92-4.2-3.23-4.2a3.55,3.55,0,0,0-2,.64,3.48,3.48,0,0,0-1.28,1.65,4.39,4.39,0,0,0-.21,1.53v10.5H16.35V16.23h6.37V18.9a6.39,6.39,0,0,1,2.44-2.37,6.48,6.48,0,0,1,3.32-.78c4.25,0,7.33,2.71,7.33,8.53Z" style="fill:#fff"/></svg>