<svg width="246" height="242" viewBox="0 0 246 242" fill="none" xmlns="http://www.w3.org/2000/svg">
<path d="M245.818 0.685547H0.84668V241.748H245.818V0.685547Z" fill="#0F1EFF"/>
<path d="M26.3354 111.498V69.9883H51.4512V76.0754H32.5212V87.6628H51.004V93.7499H32.5212V111.498H26.3354Z" fill="white"/>
<path d="M59.6494 70.0625C61.8107 70.0625 63.2267 71.4559 63.2267 73.5827C63.2267 75.7095 61.8107 77.1763 59.6494 77.1763C57.4136 77.1763 55.9976 75.7829 55.9976 73.5827C56.0721 71.4559 57.4136 70.0625 59.6494 70.0625ZM56.5192 111.499V82.1633H62.705V111.499H56.5192Z" fill="white"/>
<path d="M68.7456 111.498V69.9883H74.9314V111.498H68.7456Z" fill="white"/>
<path d="M108.164 102.476C106.152 107.977 100.86 111.717 94.8979 111.717C86.3273 111.717 80.2905 105.483 80.2905 96.7559C80.2905 88.2487 86.5508 81.7949 94.7489 81.7949C102.947 81.7949 109.207 88.1754 109.207 96.6092C109.207 97.416 109.133 98.2227 108.984 98.9561H86.6254C87.4452 103.21 90.5753 105.997 94.8234 105.997C97.879 105.997 100.413 104.603 101.531 102.55H108.164V102.476ZM102.872 94.4824C102.053 90.3755 98.9224 87.5153 94.7489 87.5153C90.6498 87.5153 87.5197 90.3022 86.6254 94.4824H102.872Z" fill="white"/>
<path d="M32.0004 151.615C32.2985 155.942 36.3975 158.876 41.0182 158.876C45.7135 158.876 49.5889 156.602 49.5889 152.642C49.6634 148.462 45.9371 147.068 41.4654 145.968C34.9815 144.428 27.0816 143.328 27.0816 134.161C27.1561 126.24 33.3419 122.646 40.8692 122.646C48.1729 122.646 54.7313 126.387 54.8058 134.307H48.62C48.3219 130.42 44.9682 128.514 40.8692 128.514C36.6956 128.514 33.3419 130.42 33.2674 134.087C33.1929 138.341 37.4409 139.001 42.5833 140.248C48.9182 141.714 55.9237 144.135 55.8492 152.642C55.7747 160.049 49.2163 164.743 41.0928 164.743C33.1183 164.743 26.0382 159.976 25.8892 151.688H32.0004V151.615Z" fill="white"/>
<path d="M74.1071 140.832C70.0826 140.832 67.176 144.573 67.176 149.706V164.374H60.9902V135.039H67.176V139.806C68.2939 136.799 71.5731 134.672 75.225 134.672C79.7712 134.672 83.3485 136.799 85.4352 140.539C87.373 136.799 90.6522 134.672 94.7512 134.672C102.875 134.672 107.943 140.612 107.943 149.633V164.301H101.757V149.633C101.757 144.279 98.9247 140.759 94.5276 140.759C90.5031 140.759 87.5965 144.499 87.5965 149.633V164.301H81.4108V149.633C81.2617 144.279 78.4297 140.832 74.1071 140.832Z" fill="white"/>
<path d="M136.561 159.608C135.294 162.615 131.269 164.668 127.096 164.668C118.525 164.668 112.936 158.728 112.936 149.707C112.936 140.686 118.525 134.746 127.096 134.746C131.195 134.746 135.294 136.873 136.561 139.88V135.113H142.747V164.448H136.561V159.608ZM127.841 158.581C132.983 158.581 136.561 154.987 136.561 149.707C136.561 144.5 132.909 140.833 127.841 140.833C122.624 140.833 119.121 144.353 119.121 149.707C119.047 155.061 122.624 158.581 127.841 158.581Z" fill="white"/>
<path d="M165.924 140.832C158.844 140.759 154.894 144.206 154.894 150.366V164.374H148.708V135.039H154.894V140.466C157.204 136.212 161.825 134.672 165.924 134.672V140.832Z" fill="white"/>
<path d="M181.055 128.88V135.114H187.539V140.907H181.055V153.962C181.055 156.969 182.471 158.289 185.527 158.289H187.539V164.376H184.93C177.85 164.376 174.869 161.515 174.869 154.328V140.834H170.472V135.04H174.869L176.36 128.807H181.055V128.88Z" fill="white"/>
<path d="M29.3916 210.211C31.5529 210.211 32.9689 211.604 32.9689 213.731C32.9689 215.858 31.5529 217.325 29.3916 217.325C27.2303 217.325 25.7397 215.932 25.7397 213.731C25.7397 211.531 27.2303 210.211 29.3916 210.211Z" fill="#1ED2E1"/>
<path d="M41.9093 217.031V181.609H29.3887V175.521H60.6157V181.609H48.0951V217.031H41.9093Z" fill="#1ED2E1"/>
<path d="M83.5735 212.19C82.3065 215.197 78.282 217.25 74.1085 217.25C65.5378 217.25 59.9482 211.31 59.9482 202.289C59.9482 193.269 65.5378 187.328 74.1085 187.328C78.2075 187.328 82.3065 189.455 83.5735 192.462V187.695H89.7592V217.03H83.5735V212.19ZM74.9283 211.163C80.0707 211.163 83.648 207.569 83.648 202.289C83.648 197.082 79.9961 193.415 74.9283 193.415C69.7113 193.415 66.2085 196.935 66.2085 202.289C66.134 207.643 69.7113 211.163 74.9283 211.163Z" fill="#1ED2E1"/>
<path d="M104.44 202.365L94.1553 187.697H101.608L108.241 197.011L114.799 187.697H122.252L111.967 202.365L122.252 217.033H114.799L108.241 207.719L101.608 217.033H94.1553L104.44 202.365Z" fill="#1ED2E1"/>
<path d="M147.815 73H172.334V0.688522H147.815V73Z" fill="white"/>
<path d="M196.761 97.1055H221.28V0.665672H196.761V97.1055Z" fill="white"/>
</svg>
