<svg width="145" height="43" viewBox="0 0 145 43" fill="none" xmlns="http://www.w3.org/2000/svg">
<ellipse cx="70.6581" cy="21.2924" rx="70.1645" ry="20.9056" fill="white"/>
<path fill-rule="evenodd" clip-rule="evenodd" d="M23.7414 12.9688C26.0315 12.9688 27.004 13.8261 26.5962 15.9557H24.008C24.0865 15.5778 24.11 15.3104 24.0237 15.1445C23.9296 14.9693 23.71 14.8863 23.4276 14.8771C23.0904 14.8679 22.7453 15.0246 22.659 15.504C22.5257 16.177 22.7139 16.4075 23.9374 17.0528C25.3021 17.7719 26.1962 18.5555 25.7727 20.5284C25.3335 22.575 23.9218 23.3126 21.914 23.3126C20.8865 23.3126 19.867 23.1282 19.3493 22.575C18.8317 22.0219 18.667 21.3212 18.9415 20.0306H21.5767L21.5218 20.2979C21.3336 21.1737 21.6865 21.4227 22.1885 21.4134C22.7688 21.4042 22.9492 20.9986 23.0041 20.6482C23.1061 19.9753 22.8394 19.6895 21.1454 18.6569C19.9768 17.9471 19.6944 16.9514 20.016 15.4948C20.4081 13.651 21.9453 12.9688 23.7414 12.9688Z" fill="black"/>
<path fill-rule="evenodd" clip-rule="evenodd" d="M72.5005 0.015625C32.4545 0.015625 0.000488281 9.5666 0.000488281 21.3394C0.000488281 33.1121 32.4624 42.6631 72.5005 42.6631C112.539 42.6631 145 33.1214 145 21.3394C145 9.5666 112.539 0.015625 72.5005 0.015625ZM44.8542 22.8052H32.2428L32.133 23.4044C31.9055 24.6306 31.7251 25.2851 31.5055 26.6311C31.4271 27.1105 31.38 27.848 31.631 28.3367C31.8977 28.8529 32.3604 29.0926 33.0349 29.1203C34.0623 29.1664 34.6348 28.7239 35.0035 28.1799C35.5133 27.4332 35.678 25.9766 35.874 25.0362H44.3444C43.5523 28.7792 42.4307 30.706 40.2582 32.4299C38.6347 33.7206 36.3368 34.6333 31.7408 34.5319C27.6939 34.4489 24.9802 33.3887 23.5293 30.8258C22.3764 28.7792 22.6195 25.8383 23.2155 22.6116C23.3802 21.7266 24.2194 18.3432 24.4626 17.2C26.0939 9.49285 31.733 7.94404 37.1916 7.94404C40.219 7.94404 42.9327 8.64469 44.5248 10.3963C46.9247 13.0422 46.2894 16.1306 44.8542 22.8052ZM92.7901 7.78732H99.8017L98.837 12.655H91.7549L92.7901 7.78732ZM82.2963 33.7483H75.2141L78.3984 18.7672H76.1553L77.1278 14.2038H79.3709L79.8023 12.1664C80.3199 9.74176 81.5748 7.78732 85.1982 7.78732H90.4608L89.5824 11.9636H88.2961C87.3628 11.9636 86.8687 12.3139 86.6805 13.162L86.4609 14.1946H89.1118L88.1393 18.758H85.4805L82.2963 33.7483ZM87.2687 33.7483L91.4255 14.2038H98.5076L94.3509 33.7483H87.2687ZM97.4488 33.7483L102.97 7.78732H110.021L104.531 33.7483H97.4488ZM125.479 25.1561H115.684C115.652 25.3312 115.621 25.488 115.597 25.617C115.417 26.5666 115.291 27.0368 115.119 28.0785C115.056 28.4473 115.009 29.0189 115.19 29.4337C115.37 29.8302 115.762 30.0422 116.288 30.0606C117.088 30.0975 117.527 29.7564 117.809 29.3323C118.209 28.7515 118.335 27.6176 118.491 26.8893H125.087C124.476 29.8025 123.597 31.296 121.903 32.642C120.648 33.6376 118.86 34.2922 115.276 34.2738C112.233 34.2645 110.445 33.2873 109.48 31.9966C108.084 30.1159 108.1 27.553 109.182 22.713C109.958 19.2282 110.97 16.9234 112.758 15.4484C114.366 14.1208 116.35 13.5861 119.527 13.5861C121.88 13.5861 123.989 14.13 125.228 15.4945C127.095 17.5595 126.601 19.9565 125.479 25.1561Z" fill="black"/>
<path fill-rule="evenodd" clip-rule="evenodd" d="M6.93351 12.2209H9.80402L7.67859 22.2144H4.81592L6.93351 12.2209ZM11.5295 12.2209H15.1686C16.2901 12.2209 17.1372 12.3038 17.7097 13.0229C18.0705 13.4839 18.2195 14.0739 18.0156 15.0511C17.7254 16.4616 17.043 16.9687 16.1019 17.2176L16.094 17.2637C16.9097 17.5126 17.2626 18.1764 17.0744 19.1905C16.9176 20.0386 16.8313 20.4351 16.7529 20.979C16.6901 21.4307 16.7215 21.8364 16.8862 22.2144H13.8588C13.7882 21.5414 14 20.5457 14.251 19.3011C14.4078 18.5083 14.1412 18.3239 13.7725 18.3239H13.098L12.2589 22.2144H9.38834L11.5295 12.2209ZM13.5137 16.4524H13.9372C14.7137 16.4524 15.0196 16.0283 15.1764 15.3C15.3176 14.6547 14.996 14.2859 14.6588 14.2859H13.9686L13.5137 16.4524ZM23.0742 12.0918C25.3644 12.0918 26.3369 12.9492 25.9291 15.0788H23.3409C23.4272 14.7008 23.4507 14.4334 23.3566 14.2675C23.2625 14.0923 23.0429 14.0094 22.7605 14.0001C22.4233 13.9909 22.0782 14.1477 21.9919 14.627C21.8586 15.3 22.0468 15.5305 23.2703 16.1759C24.635 16.8949 25.5369 17.6786 25.1056 19.6514C24.6664 21.6981 23.2546 22.4356 21.2468 22.4356C20.2194 22.4356 19.1998 22.2512 18.6822 21.6981C18.1646 21.1449 17.9999 20.4443 18.2744 19.1536H20.9096C20.9096 19.1536 20.8782 19.3103 20.8547 19.421C20.6665 20.2968 21.0116 20.5457 21.5213 20.5365C22.1017 20.5273 22.29 20.1216 22.337 19.7621C22.439 19.0983 22.1723 18.8033 20.4782 17.7708C19.3096 17.0609 19.0273 16.0652 19.3489 14.6178C19.7332 12.774 21.2704 12.0918 23.0742 12.0918ZM46.5403 24.0674L63.4339 14.8114L62.3908 20.8776L75.2846 14.71L58.0223 27.4139L58.9792 20.7485L46.5403 24.0674Z" fill="white"/>
<path fill-rule="evenodd" clip-rule="evenodd" d="M118.836 17.8086C117.817 17.8086 117.307 18.4263 117.025 19.3021C116.868 19.7907 116.64 20.6481 116.452 21.4501H119.605C119.809 20.6389 119.981 19.7999 120.036 19.3851C120.154 18.5092 119.856 17.8086 118.836 17.8086Z" fill="#0F1EFF"/>
<path fill-rule="evenodd" clip-rule="evenodd" d="M118.836 17.8086C117.817 17.8086 117.307 18.4263 117.025 19.3021C116.868 19.7907 116.64 20.6481 116.452 21.4501H119.605C119.809 20.6389 119.981 19.7999 120.036 19.3851C120.154 18.5092 119.856 17.8086 118.836 17.8086Z" fill="black"/>
<path fill-rule="evenodd" clip-rule="evenodd" d="M36.3057 13.3555C34.9959 13.3555 34.3293 14.1483 33.9607 15.2823C33.7567 15.9092 33.5136 16.8495 33.2783 17.882H37.3723C37.5998 16.9509 37.7958 15.8907 37.8586 15.3929C37.9998 14.2682 37.6155 13.3555 36.3057 13.3555Z" fill="#0F1EFF"/>
<path fill-rule="evenodd" clip-rule="evenodd" d="M36.3057 13.3555C34.9959 13.3555 34.3293 14.1483 33.9607 15.2823C33.7567 15.9092 33.5136 16.8495 33.2783 17.882H37.3723C37.5998 16.9509 37.7958 15.8907 37.8586 15.3929C37.9998 14.2682 37.6155 13.3555 36.3057 13.3555Z" fill="black"/>
</svg>
