<svg width="140" height="111" viewBox="0 0 140 111" fill="none" xmlns="http://www.w3.org/2000/svg">
<path d="M78.783 44.1556C81.472 34.9002 77.48 35.2739 65.8204 26.6121C53.1968 17.2468 70.8066 0.267578 70.8066 0.267578C70.8066 0.267578 68.5847 6.23998 76.4858 9.96999C84.3869 13.7 93.9751 21.3139 88.2206 31.9177C82.4662 42.5214 78.783 44.1556 78.783 44.1556Z" fill="#0F1EFF"/>
<path d="M68.7945 57.0195C70.5193 51.201 67.9584 51.4355 60.449 45.9907C52.322 40.0989 63.6577 29.4219 63.6577 29.4219C63.6577 29.4219 62.2266 33.1739 67.3107 35.5262C72.3948 37.8712 78.571 42.6638 74.8653 49.325C71.1671 55.9863 68.7945 57.0195 68.7945 57.0195Z" fill="#0F1EFF"/>
<path d="M49.8162 59.207H89.073L89.0805 61.2809H90.6773V63.2375H80.9008L78.1968 68.9534H62.2515L59.9618 63.2375H48.9048V61.2809H49.8237L49.8162 59.207Z" fill="#0F1EFF"/>
<path d="M50.6522 96.0448H41.3657V75.9668H50.5694C54.87 75.9668 57.3102 78.4216 57.3102 81.2574C57.3102 82.9648 56.5194 84.1226 54.4783 85.3903C56.7981 86.7093 57.9052 88.2847 57.9052 90.2632C57.9052 93.5681 55.465 96.0448 50.6522 96.0448ZM50.2305 79.4035H45.6136V83.9467H50.2305C52.1812 83.9467 53.2281 83.148 53.2281 81.6898C53.2281 80.2022 52.1812 79.4035 50.2305 79.4035ZM50.6824 87.3981H45.6136V92.6008H50.6824C52.746 92.6008 53.8231 91.6921 53.8231 90.0141C53.8231 88.3067 52.746 87.3981 50.6824 87.3981Z" fill="#0F1EFF"/>
<path d="M71.1044 96.0448H61.8179V75.9668H71.0215C75.3221 75.9668 77.7624 78.4216 77.7624 81.2574C77.7624 82.9648 76.9715 84.1226 74.9305 85.3903C77.2502 86.7093 78.3574 88.2847 78.3574 90.2632C78.3498 93.5681 75.9171 96.0448 71.1044 96.0448ZM70.6751 79.4035H66.0657V83.9467H70.6826C72.6333 83.9467 73.6802 83.148 73.6802 81.6898C73.6802 80.2022 72.6333 79.4035 70.6751 79.4035ZM71.127 87.3981H66.0657V92.6008H71.1345C73.1982 92.6008 74.2752 91.6921 74.2752 90.0141C74.2752 88.3067 73.1982 87.3981 71.127 87.3981Z" fill="#0F1EFF"/>
<path d="M91.5458 96.0448H82.2593V75.9668H91.463C95.7635 75.9668 98.2038 78.4216 98.2038 81.2574C98.2038 82.9648 97.413 84.1226 95.3719 85.3903C97.6916 86.7093 98.7988 88.2847 98.7988 90.2632C98.7988 93.5681 96.3585 96.0448 91.5458 96.0448ZM91.124 79.4035H86.5071V83.9467H91.124C93.0747 83.9467 94.1216 83.148 94.1216 81.6898C94.1216 80.2022 93.0747 79.4035 91.124 79.4035ZM91.5759 87.3981H86.5071V92.6008H91.5759C93.6396 92.6008 94.7166 91.6921 94.7166 90.0141C94.7166 88.3067 93.6396 87.3981 91.5759 87.3981Z" fill="#0F1EFF"/>
<path d="M125.465 88.4517C126.383 85.9089 127.122 83.0582 127.596 79.8998C140.506 78.3243 139.391 68.8564 139.391 68.8564C132.748 68.8564 129.434 72.0221 128.153 73.6783C128.206 71.9781 128.199 70.2047 128.101 68.3434C128.093 68.2555 128.071 68.1749 128.033 68.1016C136.74 60.1799 127.573 53.3574 127.573 53.3574C118.347 60.7661 125.653 67.2075 126.896 68.1968C126.873 68.2628 126.865 68.3361 126.865 68.4094C127.106 72.8722 126.85 76.8587 126.263 80.4128C125.163 78.3902 121.676 73.4804 113.632 72.8942C113.632 72.8942 112.11 81.8638 125.374 84.5971C124.335 88.525 122.866 91.8373 121.239 94.5927C116.411 84.304 104.993 88.6423 104.993 88.6423C105.603 96.5566 117.631 96.4833 120.109 96.3807C118.866 98.2274 117.571 99.7883 116.313 101.085C110.544 107.072 104.48 109.073 104.42 109.095C104.096 109.198 103.923 109.542 104.028 109.857C104.111 110.114 104.36 110.267 104.616 110.267C104.676 110.267 104.744 110.26 104.812 110.238C105.045 110.165 109.956 108.553 115.266 103.797C125.111 111.323 131.528 103.32 131.528 103.32C127.174 98.4399 121.586 99.0335 119.326 99.5318C120.78 97.7218 122.226 95.56 123.514 93.0245C136.537 97.4433 138.653 86.7589 138.653 86.7589C131.573 83.8204 127.363 86.5464 125.465 88.4517Z" fill="#1ED2E1"/>
<path d="M35.1745 109.095C35.1142 109.073 29.0434 107.08 23.2814 101.085C22.0311 99.781 20.7281 98.2201 19.4853 96.3807C21.9633 96.4833 33.992 96.5493 34.6021 88.6422C34.6021 88.6422 23.1835 84.304 18.3555 94.5927C16.7211 91.83 15.2599 88.525 14.2204 84.5971C27.4843 81.8638 25.9628 72.8942 25.9628 72.8942C17.9111 73.4804 14.4313 78.3902 13.3317 80.4128C12.7442 76.8513 12.4881 72.8722 12.7291 68.4093C12.7366 68.3361 12.7216 68.2628 12.699 68.1968C13.9418 67.2002 21.2478 60.7661 12.0211 53.3574C12.0211 53.3574 2.86217 60.1872 11.5616 68.1016C11.524 68.1749 11.4939 68.2555 11.4939 68.3434C11.3959 70.2047 11.3809 71.9781 11.4411 73.6783C10.1607 72.0221 6.8466 68.8564 0.203374 68.8564C0.203374 68.8564 -0.911363 78.3243 11.9985 79.8998C12.473 83.0656 13.2187 85.9089 14.1301 88.4517C12.232 86.5464 8.01407 83.8204 0.964107 86.7516C0.964107 86.7516 3.0806 97.4433 16.1034 93.0171C17.3914 95.5527 18.83 97.7144 20.2912 99.5245C18.0316 99.0262 12.4429 98.4326 8.08939 103.313C8.08939 103.313 14.4991 111.323 24.351 103.789C29.6611 108.545 34.5795 110.158 34.8054 110.231C34.8732 110.253 34.9335 110.26 35.0013 110.26C35.2649 110.26 35.5059 110.099 35.5887 109.85C35.6716 109.542 35.4984 109.198 35.1745 109.095Z" fill="#1ED2E1"/>
</svg>
