<svg width="145" height="66" viewBox="0 0 145 66" fill="none" xmlns="http://www.w3.org/2000/svg">
<path d="M98.9928 37.7697L100.443 38.281C100.346 38.7638 100.201 39.1614 99.9835 39.4739C99.766 39.7863 99.5244 40.0419 99.2102 40.1839C98.8961 40.3543 98.5095 40.4395 98.0263 40.4395C97.4464 40.4395 96.9873 40.3543 96.6007 40.1555C96.2382 39.9567 95.9241 39.6159 95.6583 39.1046C95.3925 38.6218 95.2476 37.9685 95.2476 37.2017C95.2476 36.1792 95.4892 35.3839 95.9483 34.8159C96.4074 34.2478 97.0839 33.9922 97.9296 33.9922C98.6062 33.9922 99.1136 34.1626 99.5002 34.475C99.8868 34.7875 100.177 35.2703 100.346 35.952L98.8961 36.3212C98.8478 36.1224 98.7995 35.9804 98.727 35.8952C98.6303 35.7531 98.5337 35.6395 98.3887 35.5543C98.2437 35.4691 98.0988 35.4407 97.9538 35.4407C97.5913 35.4407 97.3014 35.6111 97.1081 35.9804C96.9631 36.236 96.8906 36.662 96.8906 37.2017C96.8906 37.8833 96.9873 38.3662 97.1564 38.6218C97.3256 38.8774 97.5913 39.0194 97.9055 39.0194C98.2196 39.0194 98.4612 38.9058 98.6062 38.707C98.7995 38.4514 98.9203 38.1674 98.9928 37.7697Z" fill="black"/>
<path d="M101.023 37.2027C101.023 36.1802 101.265 35.385 101.748 34.8169C102.231 34.2489 102.908 33.9648 103.777 33.9648C104.672 33.9648 105.348 34.2489 105.831 34.7885C106.315 35.3566 106.556 36.1234 106.556 37.1459C106.556 37.8844 106.46 38.4808 106.242 38.9353C106.025 39.3897 105.735 39.7589 105.324 40.0146C104.937 40.2702 104.43 40.4122 103.85 40.4122C103.246 40.4122 102.763 40.2986 102.352 40.0714C101.965 39.8441 101.651 39.5033 101.385 38.9921C101.12 38.4808 101.023 37.9412 101.023 37.2027ZM102.666 37.2027C102.666 37.8276 102.763 38.282 102.956 38.566C103.149 38.8501 103.415 38.9921 103.777 38.9921C104.14 38.9921 104.406 38.8501 104.599 38.5944C104.792 38.3104 104.889 37.8276 104.889 37.1459C104.889 36.5495 104.792 36.1234 104.575 35.8678C104.382 35.5838 104.092 35.4702 103.753 35.4702C103.415 35.4702 103.149 35.6122 102.956 35.8962C102.763 36.1234 102.666 36.5779 102.666 37.2027Z" fill="black"/>
<path d="M107.402 34.0801H109.552L110.374 37.886L111.195 34.0801H113.346V40.3286H111.993V35.557L110.954 40.3286H109.746L108.707 35.557V40.3286H107.354V34.0801H107.402Z" fill="black"/>
<path d="M114.409 34.0801H117.14C117.744 34.0801 118.179 34.2505 118.469 34.5913C118.758 34.9321 118.903 35.3866 118.903 36.0114C118.903 36.6363 118.734 37.1475 118.42 37.4884C118.106 37.8576 117.599 38.028 116.946 38.028H116.052V40.357H114.409V34.0801ZM116.052 36.7499H116.463C116.777 36.7499 116.995 36.6931 117.14 36.5511C117.26 36.4091 117.333 36.2671 117.333 36.0682C117.333 35.8694 117.285 35.699 117.164 35.557C117.043 35.415 116.85 35.3582 116.536 35.3582H116.076V36.7499H116.052Z" fill="black"/>
<path d="M119.772 34.0801H121.416V38.7949H123.977V40.3286H119.772V34.0801Z" fill="black"/>
<path d="M124.798 34.0801H126.441V40.3286H124.798V34.0801Z" fill="black"/>
<path d="M130.885 39.2768H129.025L128.759 40.2993H127.092L129.097 34.0508H130.885L132.891 40.2993H131.175L130.885 39.2768ZM130.547 37.9419L129.967 35.6981L129.387 37.9419H130.547Z" fill="black"/>
<path d="M133.399 34.0801H134.922L136.927 37.5452V34.0801H138.474V40.3286H136.927L134.946 36.8919V40.3286H133.399V34.0801Z" fill="black"/>
<path d="M139.2 34.0801H144.201V35.6138H142.534V40.3286H140.891V35.6138H139.224V34.0801H139.2Z" fill="black"/>
<path d="M79.2301 43.5937L83.9901 41.8327L82.4437 37.7996C81.308 39.4753 80.1724 41.6339 79.2301 43.5937ZM77.6111 25.1605L68.2843 0.734375L0.000488281 5.27877L18.9199 65.9464L55.3331 52.4552C53.0135 48.5357 52.1678 43.8777 54.8499 41.6055C57.846 39.0493 62.3645 42.0031 65.2398 46.1783C68.0185 40.725 75.8231 28.0291 77.6111 25.1605Z" fill="black"/>
<path d="M66.1532 18.3867C69.0044 18.3867 71.3241 15.8305 71.3241 12.6494C71.3241 9.46833 69.0044 6.91211 66.1532 6.91211C63.302 6.91211 60.9824 9.46833 60.9824 12.6494C60.9824 15.8021 63.302 18.3867 66.1532 18.3867ZM61.9248 20.8577H70.3817V46.8459H61.9248V20.8577Z" fill="#FEFEFE"/>
<path d="M57.7461 28.4405C57.8186 28.4689 57.8669 28.4405 57.8669 28.3553V21.7659C57.8669 21.6807 57.8186 21.5955 57.7461 21.5387C57.7461 21.5387 56.6346 20.6867 53.2518 20.4594C53.0827 20.3458 50.1107 20.3174 49.3133 20.4594C36.9903 21.6239 36.5312 32.1044 36.5312 32.5589V35.1151C36.5312 35.4275 36.5312 46.1353 49.3133 47.0725C50.5698 47.1861 53.0102 47.0725 53.2518 47.0725C56.1997 47.0725 58.2294 46.0216 58.2294 46.0216C58.3019 45.9932 58.3502 45.908 58.3502 45.8228V39.6595C58.3502 39.5743 58.3019 39.5459 58.2535 39.6027C58.2535 39.6027 57.3353 40.4548 53.3243 40.9376C52.1887 41.0796 51.6329 41.0228 51.2222 40.9376C45.5198 39.8015 45.254 34.9163 45.254 34.9163C45.254 34.8311 45.2298 34.6891 45.2298 34.6323V32.7577C45.2298 32.6725 45.2298 32.5305 45.254 32.4737C45.254 32.4737 45.6406 27.2192 51.2222 26.6512H53.3243C55.7648 27.0204 57.7461 28.4405 57.7461 28.4405Z" fill="#FEFEFE"/>
<path d="M13.0439 46.7599C13.0439 46.8452 13.0923 46.902 13.1648 46.902H21.4042C21.4767 46.902 21.5251 46.8452 21.5251 46.7599V39.2049C21.5251 39.1197 21.5734 39.0629 21.6459 39.0629C21.6459 39.0629 34.8146 40.1706 34.8146 29.8037C34.8146 21.5954 26.5509 20.7149 23.8447 20.8569C23.7964 20.8569 13.1648 20.8569 13.1648 20.8569C13.0923 20.8569 13.0439 20.9137 13.0439 20.9989V46.7599ZM21.3801 33.2972V26.509H23.4098C23.4098 26.509 26.3334 26.651 26.5751 29.0084C26.6234 29.1788 26.6234 30.3433 26.5751 30.4001C26.1885 33.1552 23.6514 33.2972 23.6514 33.2972H21.3801Z" fill="#FEFEFE"/>
<path d="M66.4007 59.3863C67.0773 59.3863 67.6088 59.3863 68.4787 58.9319C71.4749 57.0857 81.599 28.03 92.279 19.0833C92.3515 19.0265 92.4239 18.9413 92.4723 18.8561C92.5448 18.7425 92.5448 18.6288 92.5448 18.6288C92.5448 18.6288 92.5448 18.0324 90.9742 18.0324C81.4782 17.72 71.5957 41.152 66.4007 50.4112C66.3282 50.5248 65.9899 50.4112 65.9899 50.4112C65.9899 50.4112 62.5105 45.5828 59.4902 43.7366C59.4177 43.7082 59.0794 43.5662 58.7169 43.5946C58.4753 43.5946 57.0739 43.9354 56.4215 44.7307C55.6483 45.6964 55.6724 46.236 55.6724 47.4005C55.6724 47.4857 55.7208 47.8834 55.8174 48.0822C56.5665 49.6159 59.9251 55.0692 62.7038 58.0798C63.1146 58.4491 63.767 59.3863 66.4007 59.3863Z" fill="#757575"/>
<path d="M95.0811 10.3066H102.982C104.553 10.3066 105.809 10.5623 106.752 11.0451C107.718 11.5563 108.516 12.2664 109.12 13.1753C109.748 14.1126 110.207 15.1919 110.473 16.4132C110.763 17.6345 110.908 18.941 110.908 20.3327C110.908 22.4913 110.69 24.167 110.279 25.3599C109.869 26.5528 109.289 27.5469 108.54 28.3706C107.791 29.1659 106.993 29.7055 106.148 29.9895C104.988 30.3588 103.925 30.5292 102.982 30.5292H95.0811V10.3066ZM100.397 14.8794V25.928H101.702C102.813 25.928 103.61 25.786 104.07 25.502C104.529 25.2179 104.915 24.7067 105.181 23.9966C105.447 23.2866 105.592 22.0937 105.592 20.4747C105.592 18.3161 105.302 16.8676 104.698 16.0723C104.094 15.2771 103.127 14.8794 101.726 14.8794H100.397Z" fill="black"/>
<path d="M112.381 23.8547L117.456 23.4855C117.576 24.4511 117.794 25.1896 118.132 25.7009C118.688 26.5245 119.461 26.9222 120.476 26.9222C121.225 26.9222 121.829 26.7233 122.24 26.2973C122.651 25.8713 122.868 25.3884 122.868 24.8488C122.868 24.3375 122.675 23.8547 122.288 23.4287C121.901 23.0026 120.983 22.6334 119.558 22.2642C117.214 21.6393 115.571 20.8156 114.556 19.7931C113.541 18.7707 113.058 17.4642 113.058 15.8736C113.058 14.8227 113.324 13.857 113.831 12.9198C114.339 11.9825 115.112 11.2724 116.151 10.7328C117.19 10.1931 118.591 9.9375 120.379 9.9375C122.578 9.9375 124.269 10.4203 125.405 11.386C126.565 12.3517 127.241 13.8854 127.459 15.9872L122.433 16.3281C122.288 15.4192 122.022 14.7659 121.587 14.3399C121.152 13.9138 120.573 13.715 119.823 13.715C119.195 13.715 118.736 13.857 118.422 14.1695C118.108 14.4819 117.963 14.8511 117.963 15.3056C117.963 15.618 118.084 15.9304 118.35 16.186C118.591 16.4417 119.195 16.6973 120.138 16.9245C122.457 17.521 124.124 18.1174 125.139 18.7139C126.154 19.3103 126.879 20.0772 127.338 20.9577C127.797 21.8381 128.015 22.8606 128.015 23.9683C128.015 25.2748 127.701 26.4677 127.096 27.547C126.492 28.6547 125.623 29.4784 124.535 30.0464C123.448 30.6145 122.046 30.8985 120.379 30.8985C117.456 30.8985 115.426 30.2453 114.29 28.9103C113.179 27.5754 112.55 25.8997 112.381 23.8547Z" fill="black"/>
<path d="M129.367 23.8547L134.441 23.4855C134.562 24.4511 134.779 25.1896 135.117 25.7009C135.673 26.5245 136.446 26.9222 137.461 26.9222C138.21 26.9222 138.814 26.7233 139.225 26.2973C139.636 25.8713 139.853 25.3884 139.853 24.8488C139.853 24.3375 139.66 23.8547 139.273 23.4287C138.887 23.0026 137.969 22.6334 136.543 22.2642C134.199 21.6393 132.556 20.8156 131.541 19.7931C130.551 18.7707 130.043 17.4642 130.043 15.8736C130.043 14.8227 130.309 13.857 130.816 12.9198C131.324 11.9825 132.097 11.2724 133.136 10.7328C134.175 10.1931 135.577 9.9375 137.365 9.9375C139.563 9.9375 141.255 10.4203 142.39 11.386C143.55 12.3517 144.227 13.8854 144.444 15.9872L139.418 16.3281C139.273 15.4192 139.008 14.7659 138.573 14.3399C138.138 13.9138 137.558 13.715 136.809 13.715C136.181 13.715 135.721 13.857 135.407 14.1695C135.093 14.4819 134.948 14.8511 134.948 15.3056C134.948 15.618 135.069 15.9304 135.335 16.186C135.577 16.4417 136.181 16.6973 137.123 16.9245C139.443 17.521 141.11 18.1174 142.125 18.7139C143.139 19.3103 143.864 20.0772 144.323 20.9577C144.783 21.8381 145 22.8606 145 23.9683C145 25.2748 144.686 26.4677 144.082 27.547C143.478 28.6547 142.608 29.4784 141.521 30.0464C140.433 30.6145 139.032 30.8985 137.365 30.8985C134.441 30.8985 132.411 30.2453 131.276 28.9103C130.14 27.5754 129.512 25.8997 129.367 23.8547Z" fill="black"/>
</svg>
