<svg width="98" height="111" viewBox="0 0 98 111" fill="none" xmlns="http://www.w3.org/2000/svg">
<path d="M48.9847 3.36328V9.48213L11.716 10.2223L10.2938 71.3008L48.9847 96.2232V106.666L4.07617 76.8188V3.36328H48.9847Z" fill="#1ED2E1"/>
<path d="M48.9903 110.268L0.939453 78.7427V0.267578H97.0336V78.4276L48.9903 110.268ZM5.99548 76.0826L48.9754 104.281L91.9702 75.7822V5.24326H5.99548V76.0826Z" fill="#0F1EFF"/>
<path d="M48.9765 100.391L9.00488 73.7317V8.20508H88.9704V74.2447L48.9765 100.391ZM13.1078 71.5919L48.9988 95.5324L84.8676 72.0829V12.2428H13.1078V71.5919Z" fill="#0F1EFF"/>
<path d="M40.323 23.3492C40.323 23.3492 45.3343 22.0008 58.9536 23.0927L58.611 27.1377L46.1013 27.2843L39.3029 39.4707L38.9082 25.7308L40.323 23.3492Z" fill="#1ED2E1"/>
<path d="M57.3526 47.4871H41.5889L37.6572 39.7414V26.5877C37.6572 23.5906 40.1368 21.1504 43.1824 21.1504H61.0609L60.0258 30.5082L62.0066 38.3198L57.792 41.6027L57.3526 47.4871ZM43.026 45.2008H55.1858L55.5357 40.4303L59.378 37.4404L57.6579 30.6694L58.4621 23.444H43.1824C41.4176 23.444 39.9805 24.8583 39.9805 26.5951V39.2065L43.026 45.2008Z" fill="#0F1EFF"/>
<path d="M45.0517 53.2171H31.8346C31.8346 53.2171 29.4443 52.5795 27.6423 58.2074C25.8478 63.8353 24.8574 66.957 24.8574 66.957H49.9663L46.1687 60.164L49.2961 55.7379L45.0517 53.2171Z" fill="#1ED2E1"/>
<path d="M52.777 46.6133H49.2847V55.7366C49.2847 55.7366 51.5856 55.8978 52.561 53.2158C53.5439 50.5337 52.777 46.6133 52.777 46.6133Z" fill="#1ED2E1"/>
<path d="M74.7019 68.0967H23.2705L27.3362 55.3533C27.9542 53.4114 29.9796 52.0631 32.2582 52.0631H43.8892V45.1895H54.2545V52.0631H66.2876C68.663 52.0631 70.7033 53.4847 71.2618 55.5219L74.7019 68.0967ZM26.4352 65.8103H71.6638L69.013 56.1228C68.73 55.1042 67.5833 54.3567 66.2876 54.3567H51.9238V47.4831H46.2125V54.3567H32.2582C30.9848 54.3567 29.8679 55.0529 29.5552 56.0422L26.4352 65.8103Z" fill="#0F1EFF"/>
<path d="M49.1 56.5147C49.0478 56.5147 48.9883 56.5147 48.9361 56.5147C46.0247 56.4267 44.0663 53.8693 43.9844 53.7667L45.4811 52.6748C45.496 52.6895 47.0001 54.6314 49.0032 54.69C50.2318 54.7267 51.4679 54.0305 52.6742 52.6309L54.0964 53.8107C52.555 55.606 50.8722 56.5147 49.1 56.5147Z" fill="#0F1EFF"/>
<path d="M39.6277 39.924L38.0044 39.0226L45.2496 26.3746L59.2114 26.2207L59.2337 28.0527L46.3442 28.1993L39.6277 39.924Z" fill="#0F1EFF"/>
<path d="M49.2847 56.8145V64.223L52.144 60.0754L49.2847 56.8145Z" fill="#1ED2E1"/>
<path d="M49.2787 66.6458L44.6396 59.926L49.301 54.6719L53.94 60.0359L49.2787 66.6458ZM46.9554 60.0213L49.2936 63.4068L51.6168 60.1092L49.2787 57.2L46.9554 60.0213Z" fill="#0F1EFF"/>
</svg>
