<svg xmlns="http://www.w3.org/2000/svg" width="520" height="520" viewBox="0 0 520 520"><path d="M520,0H0V520H520Z" style="fill:#0f1eff"/><path d="M54.11,239.06V149.52h53.31v13.13H67.24v25h39.23v13.13H67.24v38.28Zm70.71-89.38c4.59,0,7.59,3,7.59,7.59s-3,7.76-7.59,7.76c-4.75,0-7.75-3-7.75-7.76C117.22,152.69,120.07,149.68,124.82,149.68Zm-6.65,89.38V175.78H131.3v63.28Zm26,0V149.52h13.13v89.54ZM227.8,219.6a30,30,0,0,1-28.15,19.93c-18.2,0-31-13.44-31-32.27,0-18.35,13.29-32.27,30.69-32.27S230,188.76,230,207a25.86,25.86,0,0,1-.48,5.06H182.09c1.73,9.17,8.38,15.18,17.4,15.18,6.48,0,11.86-3,14.23-7.43H227.8Zm-11.23-17.24c-1.74-8.86-8.38-15-17.24-15-8.7,0-15.35,6-17.24,15ZM66.13,325.59c.63,9.33,9.34,15.66,19.14,15.66,10,0,18.2-4.91,18.2-13.45.15-9-7.76-12-17.25-14.39-13.76-3.33-30.53-5.7-30.53-25.47C55.85,270.85,69,263.1,85,263.1c15.5,0,29.42,8.07,29.58,25.15H101.41c-.63-8.38-7.75-12.49-16.45-12.49-8.86,0-16,4.11-16.14,12-.16,9.17,8.86,10.6,19.78,13.29,13.44,3.16,28.31,8.38,28.15,26.73-.15,16-14.07,26.1-31.32,26.1-16.93,0-32-10.28-32.27-28.16h13Zm89.38-23.26c-8.54,0-14.71,8.07-14.71,19.14v31.64H127.67V289.84H140.8v10.28c2.37-6.49,9.33-11.07,17.08-11.07,9.65,0,17.25,4.58,21.68,12.65,4.11-8.07,11.07-12.65,19.77-12.65,17.24,0,28,12.81,28,32.27V353H214.2V321.32c0-11.55-6-19.14-15.34-19.14-8.55,0-14.72,8.06-14.72,19.14V353H171V321.32C170.7,309.77,164.69,302.33,155.51,302.33Zm132.57,40.5c-2.69,6.49-11.23,10.91-20.09,10.91-18.19,0-30.06-12.81-30.06-32.27S249.8,289.2,268,289.2c8.7,0,17.4,4.59,20.09,11.08V290h13.13v63.28H288.08Zm-18.51-2.22c10.92,0,18.51-7.75,18.51-19.14,0-11.23-7.75-19.14-18.51-19.14-11.07,0-18.51,7.6-18.51,19.14C250.91,333,258.5,340.61,269.57,340.61Zm80.84-38.28c-15-.15-23.41,7.28-23.41,20.57v30.21H313.87V289.84H327v11.7c4.9-9.17,14.71-12.49,23.41-12.49Zm32.12-25.78V290h13.76v12.5H382.53v28.16c0,6.49,3,9.33,9.49,9.33h4.27v13.13h-5.54c-15,0-21.35-6.17-21.35-21.67V302.33h-9.34V289.84h9.34l3.16-13.45h10Z" style="fill:#fff"/><path d="M60.59,452c4.59,0,7.6,3,7.6,7.59s-3,7.76-7.6,7.76-7.75-3-7.75-7.76S56,452,60.59,452Zm26.57,14.71v-76.4H60.59V377.16h66.28v13.13H100.29v76.4Zm88.44-10.44c-2.69,6.49-11.23,10.92-20.09,10.92-18.19,0-30.06-12.82-30.06-32.28s11.87-32.27,30.06-32.27c8.7,0,17.4,4.59,20.09,11.08V403.42h13.13v63.27H175.6ZM157.25,454c10.92,0,18.51-7.76,18.51-19.15,0-11.23-7.75-19.14-18.51-19.14-11.07,0-18.51,7.6-18.51,19.14C138.58,446.44,146.18,454,157.25,454Zm62.65-19-21.83-31.63h15.82L228,423.51l13.92-20.09h15.82l-21.83,31.63,21.83,31.64H241.89L228,446.6l-14.08,20.09H198.07ZM312,156h52V.05H312Zm103.9,52h52.05V0H415.87Z" style="fill:#1ed2e1"/></svg>