<svg width="190" height="52" viewBox="0 0 190 52" fill="none" xmlns="http://www.w3.org/2000/svg">
<path d="M13.709 10.3096H186.017L188.223 11.7844L189.698 12.7711L187.174 42.2615H13.709V10.3096Z" fill="#12A366"/>
<path d="M13.709 10.3096H185.872L183.037 38.7721H13.709V10.3096Z" fill="#1BBF7B"/>
<g clip-path="url(#clip0_10388_88181)">
<path d="M22.968 0.603074C22.3482 1.30411 22.3485 1.30432 22.3487 1.30456L22.3494 1.30518L22.3514 1.30694L22.3578 1.31253L22.3799 1.3318C22.3988 1.34818 22.426 1.37156 22.4612 1.40147C22.5315 1.4613 22.6341 1.54728 22.7672 1.65567C23.0334 1.87241 23.422 2.17903 23.9195 2.54552C24.9137 3.27798 26.347 4.25254 28.111 5.22722C31.6266 7.16962 36.5218 9.14907 41.9069 9.14907C42.3299 9.14907 42.6929 9.5105 42.6929 9.93776V24.0318C42.6929 27.7327 41.8406 32.6319 38.8618 37.5025C35.8886 42.3639 30.7629 47.2534 22.1223 50.8978L22.1138 50.9014L22.1054 50.9051C21.9406 50.9784 21.7283 50.9864 21.5181 50.8978L22.968 0.603074ZM22.968 0.603074L22.3482 1.30411M22.968 0.603074L22.3482 1.30411M21.2921 1.30411L20.6723 0.603074C21.2921 1.30411 21.2918 1.30432 21.2916 1.30456L21.2909 1.30518L21.2889 1.30694L21.2825 1.31253L21.2604 1.3318C21.2415 1.34818 21.2144 1.37156 21.1792 1.40147C21.1088 1.4613 21.0062 1.54728 20.8731 1.65567C20.6069 1.87241 20.2183 2.17903 19.7208 2.54552C18.7266 3.27798 17.2933 4.25254 15.5293 5.22722C12.0138 7.16962 7.11856 9.14907 1.73344 9.14907C1.31037 9.14907 0.947415 9.5105 0.947415 9.93776V24.0318C0.947415 27.7327 1.79972 32.6319 4.77852 37.5025C7.75168 42.3639 12.8774 47.2534 21.518 50.8978L21.2921 1.30411ZM21.2921 1.30411L21.3009 1.29629M21.2921 1.30411L21.3009 1.29629M21.3009 1.29629L21.3096 1.28826M21.3009 1.29629L21.3096 1.28826M21.3096 1.28826C21.4483 1.15924 21.6374 1.09152 21.8156 1.10057C22.0567 1.11426 22.2251 1.19063 22.3328 1.29014L22.3404 1.29721M21.3096 1.28826L22.3404 1.29721M22.3404 1.29721L22.3482 1.30411M22.3404 1.29721L22.3482 1.30411" fill="url(#paint0_linear_10388_88181)" stroke="#0F321D" stroke-width="1.87139"/>
<g clip-path="url(#clip1_10388_88181)">
<path d="M30.8643 16.9023C31.2712 16.9023 31.678 17.0498 31.9992 17.3658C32.6202 17.9768 32.6202 18.988 31.9992 19.5989L21.2923 30.1325C20.971 30.4485 20.5642 30.596 20.1573 30.596C19.7504 30.596 19.3436 30.4485 19.0224 30.1325L13.6689 24.8657C13.0479 24.2548 13.0479 23.2436 13.6689 22.6326C14.2899 22.0217 15.3178 22.0217 15.9388 22.6326L20.1573 26.7829L29.7294 17.3658C30.0506 17.0498 30.4574 16.9023 30.8643 16.9023Z" fill="#0F321D"/>
</g>
</g>
<path d="M52.4346 23.874H54.6129V16.1601H52.8725L50.29 17.8893L51.1434 19.3939L52.4346 18.6079V23.874ZM59.7112 24.0088C61.8446 24.0088 63.3492 22.3582 63.3492 20.0115C63.3492 17.676 61.8446 16.0254 59.7112 16.0254C57.5778 16.0254 56.0732 17.676 56.0732 20.0115C56.0732 22.3582 57.5778 24.0088 59.7112 24.0088ZM59.7112 22.0326C58.8916 22.0326 58.3189 21.1904 58.3189 20.0115C58.3189 18.8325 58.8916 18.0016 59.7112 18.0016C60.5309 18.0016 61.1036 18.8325 61.1036 20.0115C61.1036 21.1904 60.5309 22.0326 59.7112 22.0326ZM68.1075 24.0088C70.2409 24.0088 71.7455 22.3582 71.7455 20.0115C71.7455 17.676 70.2409 16.0254 68.1075 16.0254C65.9741 16.0254 64.4695 17.676 64.4695 20.0115C64.4695 22.3582 65.9741 24.0088 68.1075 24.0088ZM68.1075 22.0326C67.2878 22.0326 66.7152 21.1904 66.7152 20.0115C66.7152 18.8325 67.2878 18.0016 68.1075 18.0016C68.9272 18.0016 69.4998 18.8325 69.4998 20.0115C69.4998 21.1904 68.9272 22.0326 68.1075 22.0326ZM74.8307 20.0788C76.0322 20.0788 76.8519 19.2143 76.8519 18.0802C76.8519 16.9798 76.0659 16.0815 74.8307 16.0815C73.6069 16.0815 72.8209 16.9798 72.8209 18.0802C72.8209 19.2143 73.6293 20.0788 74.8307 20.0788ZM73.8763 23.874H75.3585L80.7818 16.1601H79.2996L73.8763 23.874ZM74.8307 18.8774C74.4714 18.8774 74.1907 18.5855 74.1907 18.0802C74.1907 17.5749 74.4602 17.2942 74.8307 17.2942C75.2013 17.2942 75.482 17.5861 75.482 18.0802C75.482 18.5967 75.2013 18.8774 74.8307 18.8774ZM79.8161 23.9975C81.0063 23.9975 81.826 23.1217 81.826 21.9989C81.826 20.8873 81.04 19.989 79.8161 19.989C78.6147 19.989 77.795 20.8648 77.795 21.9989C77.795 23.0993 78.5922 23.9975 79.8161 23.9975ZM79.8161 22.7849C79.4456 22.7849 79.1649 22.4929 79.1649 21.9989C79.1649 21.4712 79.4344 21.2017 79.8161 21.2017C80.1754 21.2017 80.4674 21.4936 80.4674 21.9989C80.4674 22.5042 80.1867 22.7849 79.8161 22.7849ZM92.793 18.1026V16.1601H86.5837V23.874H92.793V21.9315H88.762V20.9097H92.4337V18.9672H88.762V18.1026H92.793ZM94.2343 23.874H96.4126V19.742L99.4218 23.874H101.6V16.1601H99.4218V20.2922L96.4126 16.1601H94.2343V23.874ZM107.196 24.0088C108.431 24.0088 109.554 23.481 110.329 22.6389L108.734 21.2466C108.364 21.7182 107.814 22.0326 107.196 22.0326C106.14 22.0326 105.242 21.1118 105.242 20.0115C105.242 18.9223 106.14 18.0016 107.196 18.0016C107.802 18.0016 108.364 18.316 108.723 18.7876L110.329 17.384C109.554 16.5531 108.431 16.0254 107.196 16.0254C104.917 16.0254 102.997 17.8444 102.997 20.0115C102.997 22.1785 104.917 24.0088 107.196 24.0088ZM118.515 23.874L116.673 21.2578C117.616 20.8199 118.2 19.9553 118.2 18.8549C118.2 17.2717 116.976 16.1601 115.247 16.1601H111.553V23.874H113.731V21.5498H114.405L116.033 23.874H118.515ZM113.731 18.1363H115.068C115.584 18.1363 115.955 18.4395 115.955 18.8549C115.955 19.2704 115.584 19.5736 115.068 19.5736H113.731V18.1363ZM121.493 23.874H123.671V21.3364L126.624 16.1601H124.233L122.582 19.2929L121.021 16.1601H118.529L121.493 21.3364V23.874ZM127.567 23.874H129.745V21.5498H131.261C132.99 21.5498 134.214 20.4381 134.214 18.8549C134.214 17.2717 132.99 16.1601 131.261 16.1601H127.567V23.874ZM129.745 19.5736V18.1363H131.082C131.598 18.1363 131.969 18.4395 131.969 18.8549C131.969 19.2704 131.598 19.5736 131.082 19.5736H129.745ZM137.29 23.874H139.468V18.1026H141.748V16.1601H135.011V18.1026H137.29V23.874ZM149.209 18.1026V16.1601H143V23.874H149.209V21.9315H145.178V20.9097H148.85V18.9672H145.178V18.1026H149.209ZM150.651 23.874H153.525C156.22 23.874 158.129 22.2684 158.129 20.0115C158.129 17.7546 156.22 16.1601 153.525 16.1601H150.651V23.874ZM152.829 21.8978V18.1363H153.884C155.052 18.1363 155.883 18.9111 155.883 20.0115C155.883 21.1118 155.052 21.8978 153.884 21.8978H152.829Z" fill="white"/>
<path d="M50.6044 33.5674H51.4297V32.3154H52.3392C53.1757 32.3154 53.7933 31.7765 53.7933 31.0129C53.7933 30.2494 53.1757 29.7104 52.3392 29.7104H50.6044V33.5674ZM51.4297 31.5575V30.4684H52.2494C52.6592 30.4684 52.9399 30.6817 52.9399 31.0129C52.9399 31.3442 52.6592 31.5575 52.2494 31.5575H51.4297ZM55.1079 31.2038V30.6649H54.2882V33.5674H55.1079V32.1807C55.1079 31.6361 55.4952 31.288 56.1016 31.288V30.5975C55.6581 30.5975 55.2988 30.8277 55.1079 31.2038ZM56.9843 30.2662C57.2257 30.2662 57.4222 30.0641 57.4222 29.8171C57.4222 29.5869 57.2257 29.3792 56.9843 29.3792C56.7316 29.3792 56.5351 29.5869 56.5351 29.8171C56.5351 30.0641 56.7316 30.2662 56.9843 30.2662ZM56.5688 33.5674H57.3885V30.6649H56.5688V33.5674ZM59.0753 33.5674H59.8333L61.074 30.6649H60.2206L59.4571 32.6242L58.6767 30.6649H57.8178L59.0753 33.5674ZM62.6138 30.5975C62.2095 30.5975 61.8109 30.7098 61.4011 30.9175L61.6762 31.4621C61.9064 31.3442 62.159 31.2543 62.4285 31.2543C62.9057 31.2543 63.0966 31.5238 63.0966 31.8326V31.8887C62.8496 31.7933 62.5913 31.7428 62.3555 31.7428C61.6818 31.7428 61.1485 32.1358 61.1485 32.7084C61.1485 33.2642 61.6257 33.6348 62.2432 33.6348C62.5576 33.6348 62.8889 33.5112 63.0966 33.2754V33.5674H63.8882V31.8326C63.8882 31.0747 63.3717 30.5975 62.6138 30.5975ZM62.4285 33.0677C62.1478 33.0677 61.9401 32.9218 61.9401 32.686C61.9401 32.4502 62.1759 32.2761 62.4734 32.2761C62.698 32.2761 62.9113 32.3154 63.0966 32.3828V32.6523C63.0404 32.9218 62.7429 33.0677 62.4285 33.0677ZM66.1061 32.8488C66.0499 32.9049 65.9377 32.9442 65.8254 32.9442C65.6738 32.9442 65.5503 32.8095 65.5503 32.6186V31.3273H66.1791V30.6649H65.5503V29.8676H64.7643V30.6649H64.3657V31.3273H64.7643V32.7477C64.7643 33.2698 65.1236 33.6348 65.6345 33.6348C65.8703 33.6348 66.1342 33.5337 66.3026 33.3821L66.1061 32.8488ZM68.1858 32.9105C67.8433 32.9105 67.5907 32.6972 67.4953 32.3828H69.5893C69.5893 31.288 69.056 30.5975 68.1465 30.5975C67.2988 30.5975 66.6531 31.2319 66.6531 32.1077C66.6531 33.0004 67.3268 33.6348 68.1914 33.6348C68.6181 33.6348 69.1177 33.4551 69.376 33.1856L68.8539 32.6523C68.6967 32.8039 68.416 32.9105 68.1858 32.9105ZM68.1802 31.3217C68.5114 31.3217 68.7248 31.507 68.8034 31.7933H67.5065C67.6131 31.5014 67.8714 31.3217 68.1802 31.3217ZM73.1323 33.6348C73.6151 33.6348 74.0081 33.4383 74.2944 33.1239L73.7498 32.6635C73.5983 32.8319 73.3625 32.9442 73.1379 32.9442C72.7056 32.9442 72.3463 32.5624 72.3463 32.1077C72.3463 31.6642 72.7056 31.288 73.1323 31.288C73.3568 31.288 73.587 31.3947 73.733 31.5575L74.2776 31.0915C73.9969 30.7884 73.6095 30.5975 73.1379 30.5975C72.2789 30.5975 71.5491 31.288 71.5491 32.1133C71.5491 32.9386 72.2733 33.6348 73.1323 33.6348ZM76.1533 33.6348C77.0123 33.6348 77.7309 32.9386 77.7309 32.1133C77.7309 31.288 77.0123 30.5975 76.1533 30.5975C75.2887 30.5975 74.5645 31.288 74.5645 32.1133C74.5645 32.9386 75.2887 33.6348 76.1533 33.6348ZM76.1533 32.9442C75.7154 32.9442 75.3505 32.5624 75.3505 32.1133C75.3505 31.6642 75.7154 31.288 76.1533 31.288C76.5856 31.288 76.9505 31.6642 76.9505 32.1133C76.9505 32.5624 76.5856 32.9442 76.1533 32.9442ZM79.9642 30.5975C79.588 30.5975 79.2624 30.7659 79.0884 31.0298V30.6649H78.2687V33.5674H79.0884V31.8326L79.094 31.8494C79.094 31.535 79.3578 31.288 79.7003 31.288C80.0259 31.288 80.2505 31.535 80.2505 31.8944V33.5674H81.0421V31.7203C81.0421 31.0635 80.593 30.5975 79.9642 30.5975ZM83.4127 30.5975C83.0366 30.5975 82.7109 30.7659 82.5369 31.0298V30.6649H81.7172V33.5674H82.5369V31.8326L82.5425 31.8494C82.5425 31.535 82.8064 31.288 83.1489 31.288C83.4745 31.288 83.699 31.535 83.699 31.8944V33.5674H84.4906V31.7203C84.4906 31.0635 84.0415 30.5975 83.4127 30.5975ZM86.5525 32.9105C86.21 32.9105 85.9574 32.6972 85.8619 32.3828H87.956C87.956 31.288 87.4227 30.5975 86.5132 30.5975C85.6655 30.5975 85.0198 31.2319 85.0198 32.1077C85.0198 33.0004 85.6935 33.6348 86.5581 33.6348C86.9848 33.6348 87.4844 33.4551 87.7427 33.1856L87.2206 32.6523C87.0634 32.8039 86.7827 32.9105 86.5525 32.9105ZM86.5469 31.3217C86.8781 31.3217 87.0915 31.507 87.1701 31.7933H85.8732C85.9798 31.5014 86.2381 31.3217 86.5469 31.3217ZM89.931 33.6348C90.4138 33.6348 90.8068 33.4383 91.0931 33.1239L90.5485 32.6635C90.3969 32.8319 90.1611 32.9442 89.9366 32.9442C89.5043 32.9442 89.145 32.5624 89.145 32.1077C89.145 31.6642 89.5043 31.288 89.931 31.288C90.1555 31.288 90.3857 31.3947 90.5317 31.5575L91.0763 31.0915C90.7955 30.7884 90.4082 30.5975 89.9366 30.5975C89.0776 30.5975 88.3478 31.288 88.3478 32.1133C88.3478 32.9386 89.072 33.6348 89.931 33.6348ZM93.1134 32.8488C93.0572 32.9049 92.9449 32.9442 92.8327 32.9442C92.6811 32.9442 92.5576 32.8095 92.5576 32.6186V31.3273H93.1863V30.6649H92.5576V29.8676H91.7716V30.6649H91.373V31.3273H91.7716V32.7477C91.7716 33.2698 92.1309 33.6348 92.6418 33.6348C92.8776 33.6348 93.1414 33.5337 93.3099 33.3821L93.1134 32.8488ZM94.233 30.2662C94.4745 30.2662 94.671 30.0641 94.671 29.8171C94.671 29.5869 94.4745 29.3792 94.233 29.3792C93.9804 29.3792 93.7839 29.5869 93.7839 29.8171C93.7839 30.0641 93.9804 30.2662 94.233 30.2662ZM93.8176 33.5674H94.6373V30.6649H93.8176V33.5674ZM96.7789 33.6348C97.6378 33.6348 98.3564 32.9386 98.3564 32.1133C98.3564 31.288 97.6378 30.5975 96.7789 30.5975C95.9143 30.5975 95.19 31.288 95.19 32.1133C95.19 32.9386 95.9143 33.6348 96.7789 33.6348ZM96.7789 32.9442C96.3409 32.9442 95.976 32.5624 95.976 32.1133C95.976 31.6642 96.3409 31.288 96.7789 31.288C97.2111 31.288 97.5761 31.6642 97.5761 32.1133C97.5761 32.5624 97.2111 32.9442 96.7789 32.9442ZM100.59 30.5975C100.214 30.5975 99.8879 30.7659 99.7139 31.0298V30.6649H98.8942V33.5674H99.7139V31.8326L99.7195 31.8494C99.7195 31.535 99.9834 31.288 100.326 31.288C100.651 31.288 100.876 31.535 100.876 31.8944V33.5674H101.668V31.7203C101.668 31.0635 101.218 30.5975 100.59 30.5975ZM103.837 31.5169C103.837 31.2355 103.905 31.0207 104.04 30.8727C104.175 30.7228 104.37 30.6479 104.624 30.6479C104.874 30.6479 105.068 30.7228 105.205 30.8727C105.342 31.0225 105.41 31.2373 105.41 31.5169C105.41 31.7947 105.341 32.0094 105.202 32.1611C105.065 32.3128 104.872 32.3886 104.624 32.3886C104.372 32.3886 104.177 32.3128 104.04 32.1611C103.905 32.0094 103.837 31.7947 103.837 31.5169ZM110.599 30.4571V29.7104H107.629V33.5674H110.599V32.8207H108.46V31.973H110.397V31.2263H108.46V30.4571H110.599ZM112.882 30.5975C112.506 30.5975 112.18 30.7659 112.006 31.0298V30.6649H111.186V33.5674H112.006V31.8326L112.011 31.8494C112.011 31.535 112.275 31.288 112.618 31.288C112.943 31.288 113.168 31.535 113.168 31.8944V33.5674H113.96V31.7203C113.96 31.0635 113.51 30.5975 112.882 30.5975ZM116.819 29.6431V31.0803C116.588 30.7771 116.252 30.5975 115.842 30.5975C115.067 30.5975 114.506 31.2263 114.506 32.1133C114.506 33.006 115.067 33.6348 115.842 33.6348C116.252 33.6348 116.588 33.4551 116.819 33.1519V33.5674H117.638V29.6431H116.819ZM116.078 32.9442C115.623 32.9442 115.303 32.6017 115.303 32.1133C115.303 31.6305 115.623 31.288 116.078 31.288C116.51 31.288 116.819 31.6305 116.819 32.1133C116.819 32.6017 116.51 32.9442 116.078 32.9442ZM118.251 32.3716H119.789V31.6754H118.251V32.3716ZM121.93 32.8488C121.874 32.9049 121.761 32.9442 121.649 32.9442C121.498 32.9442 121.374 32.8095 121.374 32.6186V31.3273H122.003V30.6649H121.374V29.8676H120.588V30.6649H120.19V31.3273H120.588V32.7477C120.588 33.2698 120.947 33.6348 121.458 33.6348C121.694 33.6348 121.958 33.5337 122.126 33.3821L121.93 32.8488ZM124.066 33.6348C124.925 33.6348 125.643 32.9386 125.643 32.1133C125.643 31.288 124.925 30.5975 124.066 30.5975C123.201 30.5975 122.477 31.288 122.477 32.1133C122.477 32.9386 123.201 33.6348 124.066 33.6348ZM124.066 32.9442C123.628 32.9442 123.263 32.5624 123.263 32.1133C123.263 31.6642 123.628 31.288 124.066 31.288C124.498 31.288 124.863 31.6642 124.863 32.1133C124.863 32.5624 124.498 32.9442 124.066 32.9442ZM126.091 32.3716H127.63V31.6754H126.091V32.3716ZM129.613 32.9105C129.27 32.9105 129.018 32.6972 128.922 32.3828H131.016C131.016 31.288 130.483 30.5975 129.574 30.5975C128.726 30.5975 128.08 31.2319 128.08 32.1077C128.08 33.0004 128.754 33.6348 129.618 33.6348C130.045 33.6348 130.545 33.4551 130.803 33.1856L130.281 32.6523C130.124 32.8039 129.843 32.9105 129.613 32.9105ZM129.607 31.3217C129.938 31.3217 130.152 31.507 130.23 31.7933H128.933C129.04 31.5014 129.298 31.3217 129.607 31.3217ZM133.25 30.5975C132.873 30.5975 132.548 30.7659 132.374 31.0298V30.6649H131.554V33.5674H132.374V31.8326L132.379 31.8494C132.379 31.535 132.643 31.288 132.986 31.288C133.311 31.288 133.536 31.535 133.536 31.8944V33.5674H134.327V31.7203C134.327 31.0635 133.878 30.5975 133.25 30.5975ZM137.187 29.6431V31.0803C136.956 30.7771 136.619 30.5975 136.21 30.5975C135.435 30.5975 134.873 31.2263 134.873 32.1133C134.873 33.006 135.435 33.6348 136.21 33.6348C136.619 33.6348 136.956 33.4551 137.187 33.1519V33.5674H138.006V29.6431H137.187ZM136.445 32.9442C135.991 32.9442 135.671 32.6017 135.671 32.1133C135.671 31.6305 135.991 31.288 136.445 31.288C136.878 31.288 137.187 31.6305 137.187 32.1133C137.187 32.6017 136.878 32.9442 136.445 32.9442ZM141.664 32.9105C141.321 32.9105 141.068 32.6972 140.973 32.3828H143.067C143.067 31.288 142.534 30.5975 141.624 30.5975C140.777 30.5975 140.131 31.2319 140.131 32.1077C140.131 33.0004 140.805 33.6348 141.669 33.6348C142.096 33.6348 142.596 33.4551 142.854 33.1856L142.332 32.6523C142.174 32.8039 141.894 32.9105 141.664 32.9105ZM141.658 31.3217C141.989 31.3217 142.203 31.507 142.281 31.7933H140.984C141.091 31.5014 141.349 31.3217 141.658 31.3217ZM145.3 30.5975C144.924 30.5975 144.599 30.7659 144.424 31.0298V30.6649H143.605V33.5674H144.424V31.8326L144.43 31.8494C144.43 31.535 144.694 31.288 145.036 31.288C145.362 31.288 145.587 31.535 145.587 31.8944V33.5674H146.378V31.7203C146.378 31.0635 145.929 30.5975 145.3 30.5975ZM148.491 33.6348C148.973 33.6348 149.366 33.4383 149.653 33.1239L149.108 32.6635C148.957 32.8319 148.721 32.9442 148.496 32.9442C148.064 32.9442 147.705 32.5624 147.705 32.1077C147.705 31.6642 148.064 31.288 148.491 31.288C148.715 31.288 148.945 31.3947 149.091 31.5575L149.636 31.0915C149.355 30.7884 148.968 30.5975 148.496 30.5975C147.637 30.5975 146.907 31.288 146.907 32.1133C146.907 32.9386 147.632 33.6348 148.491 33.6348ZM150.966 31.2038V30.6649H150.146V33.5674H150.966V32.1807C150.966 31.6361 151.353 31.288 151.959 31.288V30.5975C151.516 30.5975 151.156 30.8277 150.966 31.2038ZM153.095 34.5779C153.549 34.5779 153.92 34.2804 154.139 33.7134L155.329 30.6649H154.493L153.768 32.7028L153.005 30.6649H152.157L153.364 33.5955L153.263 33.8088C153.201 33.9155 153.078 33.966 152.921 33.966C152.825 33.966 152.679 33.9155 152.539 33.8369L152.365 34.3983C152.561 34.505 152.853 34.5779 153.095 34.5779ZM157.595 30.5975C157.191 30.5975 156.854 30.7715 156.624 31.0691V30.6649H155.804V34.533H156.624V33.1575C156.854 33.4607 157.191 33.6348 157.595 33.6348C158.37 33.6348 158.931 33.006 158.931 32.1133C158.931 31.2263 158.37 30.5975 157.595 30.5975ZM157.359 32.9442C156.96 32.9442 156.669 32.6523 156.624 32.2256V32.001C156.669 31.58 156.96 31.288 157.359 31.288C157.814 31.288 158.134 31.6305 158.134 32.1133C158.134 32.6017 157.814 32.9442 157.359 32.9442ZM161.037 32.8488C160.981 32.9049 160.869 32.9442 160.757 32.9442C160.605 32.9442 160.481 32.8095 160.481 32.6186V31.3273H161.11V30.6649H160.481V29.8676H159.695V30.6649H159.297V31.3273H159.695V32.7477C159.695 33.2698 160.055 33.6348 160.566 33.6348C160.801 33.6348 161.065 33.5337 161.234 33.3821L161.037 32.8488ZM162.157 30.2662C162.398 30.2662 162.595 30.0641 162.595 29.8171C162.595 29.5869 162.398 29.3792 162.157 29.3792C161.904 29.3792 161.708 29.5869 161.708 29.8171C161.708 30.0641 161.904 30.2662 162.157 30.2662ZM161.741 33.5674H162.561V30.6649H161.741V33.5674ZM164.703 33.6348C165.562 33.6348 166.28 32.9386 166.28 32.1133C166.28 31.288 165.562 30.5975 164.703 30.5975C163.838 30.5975 163.114 31.288 163.114 32.1133C163.114 32.9386 163.838 33.6348 164.703 33.6348ZM164.703 32.9442C164.265 32.9442 163.9 32.5624 163.9 32.1133C163.9 31.6642 164.265 31.288 164.703 31.288C165.135 31.288 165.5 31.6642 165.5 32.1133C165.5 32.5624 165.135 32.9442 164.703 32.9442ZM168.514 30.5975C168.137 30.5975 167.812 30.7659 167.638 31.0298V30.6649H166.818V33.5674H167.638V31.8326L167.643 31.8494C167.643 31.535 167.907 31.288 168.25 31.288C168.575 31.288 168.8 31.535 168.8 31.8944V33.5674H169.592V31.7203C169.592 31.0635 169.142 30.5975 168.514 30.5975Z" fill="#0F1E32"/>
<defs>
<linearGradient id="paint0_linear_10388_88181" x1="0.011719" y1="26.0656" x2="43.8628" y2="26.0656" gradientUnits="userSpaceOnUse">
<stop offset="0.502404" stop-color="#1BBF7B"/>
<stop offset="0.502504" stop-color="#12A366"/>
</linearGradient>
<clipPath id="clip0_10388_88181">
<rect width="43.6169" height="51.7316" fill="white" transform="translate(0.0117188 0.166016)"/>
</clipPath>
<clipPath id="clip1_10388_88181">
<rect width="19.2726" height="13.6937" fill="white" transform="translate(13.1973 16.9023)"/>
</clipPath>
</defs>
</svg>
