<svg width="167" height="111" viewBox="0 0 167 111" fill="none" xmlns="http://www.w3.org/2000/svg">
<path fill-rule="evenodd" clip-rule="evenodd" d="M136.97 52.1465C135.803 52.1465 135.22 52.7347 134.897 53.5689C134.717 54.0342 134.457 54.8507 134.241 55.6146H137.85C138.083 54.842 138.281 54.043 138.343 53.6479C138.478 52.8226 138.137 52.1465 136.97 52.1465Z" fill="#0F1EFF"/>
<path fill-rule="evenodd" clip-rule="evenodd" d="M83.9357 35.2031C38.1015 35.2031 0.956543 44.2993 0.956543 55.5115C0.956543 66.7236 38.1105 75.8198 83.9357 75.8198C129.761 75.8198 166.915 66.7324 166.915 55.5115C166.915 44.2993 129.761 35.2031 83.9357 35.2031ZM52.2934 56.9163H37.8591L37.7334 57.487C37.4731 58.6547 37.2667 59.2781 37.0153 60.56C36.9255 61.0166 36.8717 61.719 37.1589 62.1843C37.4641 62.676 37.9938 62.9043 38.7657 62.9306C39.9417 62.9745 40.597 62.5531 41.0188 62.0351C41.6023 61.3239 41.7908 59.9366 42.0152 59.0411H51.7099C50.8033 62.6058 49.5196 64.4408 47.0331 66.0827C45.175 67.3119 42.5449 68.1811 37.2846 68.0845C32.6527 68.0055 29.5468 66.9958 27.8862 64.5549C26.5666 62.6058 26.8449 59.8049 27.5271 56.7319C27.7156 55.889 28.6761 52.6667 28.9544 51.578C30.8305 44.2291 37.2756 42.7452 43.5233 42.7452C46.9882 42.7452 50.0941 43.4125 51.9164 45.0807C54.6632 47.6182 53.9361 50.5507 52.2934 56.9163ZM95.1474 67.3295H87.0416L90.6861 53.0618H88.1188L89.2318 48.7157H91.7991L92.2928 46.7753C92.8853 44.4661 94.3215 42.6047 98.4687 42.6047H104.492L103.487 46.5821H102.014C100.946 46.5821 100.381 46.9158 100.165 47.7235L99.9139 48.7069H102.948L101.835 53.053H98.7919L95.1474 67.3295ZM100.839 67.3295L105.596 48.7157H113.702L108.944 67.3295H100.839ZM112.49 67.3295L118.81 42.6047H126.879L120.596 67.3295H112.49ZM144.572 59.1464H133.361C133.325 59.3132 133.289 59.4625 133.262 59.5854C133.055 60.4898 132.912 60.9376 132.714 61.9297C132.642 62.2809 132.589 62.8253 132.795 63.2204C133.001 63.5979 133.45 63.7999 134.052 63.8174C134.967 63.8525 135.47 63.5277 135.793 63.1238C136.251 62.5707 136.395 61.4907 136.574 60.7971H144.123C143.423 63.5716 142.418 64.9939 140.479 66.2758C139.043 67.2241 136.996 67.8475 132.894 67.8299C129.411 67.8211 127.364 66.8905 126.26 65.6612C124.662 63.8701 124.68 61.4292 125.919 56.8197C126.808 53.5008 127.966 51.3058 130.012 49.901C131.852 48.6367 134.124 48.1274 137.759 48.1274C140.452 48.1274 142.867 48.6454 144.285 49.9449C146.421 51.9204 145.856 54.1945 144.572 59.1464Z" fill="#0F1EFF"/>
<path fill-rule="evenodd" clip-rule="evenodd" d="M42.5089 47.918C41.0098 47.918 40.2468 48.6731 39.8249 49.753C39.5915 50.35 39.3132 51.2456 39.0439 52.229H43.7297C43.99 51.3422 44.2144 50.3325 44.2862 49.8584C44.4478 48.7784 44.008 47.918 42.5089 47.918Z" fill="#0F1EFF"/>
<path fill-rule="evenodd" clip-rule="evenodd" d="M28.1285 47.541C30.7496 47.541 31.8627 48.3576 31.3959 50.3858H28.4337C28.5234 50.0258 28.5503 49.7712 28.4516 49.6131C28.3439 49.4463 28.0925 49.3673 27.7694 49.3585C27.3834 49.3497 26.9884 49.499 26.8897 49.9555C26.7371 50.5965 26.9525 50.816 28.3529 51.4306C29.9148 52.1154 30.9381 52.8617 30.4534 54.7407C29.9507 56.6899 28.3349 57.3923 26.0369 57.3923C24.861 57.3923 23.694 57.2167 23.1016 56.6899C22.5091 56.1631 22.3206 55.4958 22.6348 54.2666H25.6509L25.5881 54.5212C25.3727 55.3553 25.7766 55.5924 26.3511 55.5836C27.0154 55.5748 27.2218 55.1885 27.2847 54.8548C27.4014 54.2139 27.0961 53.9417 25.1572 52.9583C23.8197 52.2823 23.4966 51.334 23.8646 49.9468C24.3134 48.1907 26.0728 47.541 28.1285 47.541Z" fill="#0F1EFF"/>
<path fill-rule="evenodd" clip-rule="evenodd" d="M8.89046 46.8309H12.1759L9.74323 56.3573H6.4668L8.89046 46.8309ZM14.1507 46.8309H18.3158C19.5995 46.8309 20.5689 46.91 21.2242 47.5948C21.6372 48.0338 21.8077 48.5957 21.5743 49.5264C21.2422 50.8698 20.4612 51.3527 19.384 51.5897L19.3751 51.6336C20.3086 51.8707 20.7126 52.5029 20.4971 53.4687C20.3176 54.2765 20.2189 54.654 20.1291 55.172C20.0573 55.6022 20.0932 55.9886 20.2817 56.3485H16.8168C16.736 55.7076 16.9783 54.7594 17.2656 53.574C17.4451 52.819 17.1399 52.6434 16.718 52.6434H15.946L14.9855 56.3485H11.7001L14.1507 46.8309ZM16.4218 50.861H16.9065C17.7952 50.861 18.1453 50.4571 18.3248 49.7635C18.4864 49.1489 18.1183 48.7977 17.7324 48.7977H16.9424L16.4218 50.861ZM27.3642 46.7168C29.9853 46.7168 31.0984 47.5333 30.6316 49.5615H27.6694C27.7681 49.2016 27.7951 48.9469 27.6873 48.7889C27.5796 48.6221 27.3283 48.5431 27.0051 48.5343C26.6191 48.5255 26.2242 48.6748 26.1254 49.1313C25.9728 49.7723 26.1883 49.9918 27.5886 50.6064C29.1505 51.2912 30.1828 52.0375 29.6891 53.9165C29.1864 55.8656 27.5706 56.5681 25.2727 56.5681C24.0967 56.5681 22.9298 56.3924 22.3373 55.8656C21.7449 55.3388 21.5564 54.6716 21.8705 53.4423H24.8867C24.8867 53.4423 24.8508 53.5916 24.8238 53.697C24.6084 54.5311 25.0034 54.7681 25.5868 54.7594C26.2511 54.7506 26.4665 54.3642 26.5204 54.0218C26.6371 53.3897 26.3319 53.1087 24.393 52.1253C23.0554 51.4493 22.7323 50.501 23.1003 49.1225C23.5402 47.3577 25.2996 46.7168 27.3642 46.7168ZM54.222 58.1133L73.5575 49.2981L72.3636 55.0754L87.121 49.2016L67.3637 61.3093L68.4588 54.9613L54.222 58.1133Z" fill="#1ED2E1"/>
<path fill-rule="evenodd" clip-rule="evenodd" d="M115.179 42.6055L114.075 47.2414H105.969L107.154 42.6055H115.179Z" fill="white"/>
<path d="M30.6235 13.126H33.2528L34.4213 10.1332H39.4799L40.6484 13.126H43.2776L38.2652 0.342772H35.636L30.6235 13.126ZM35.3438 7.80215L36.9583 3.69649L38.5573 7.80215H35.3438Z" fill="#0F1EFF"/>
<path d="M43.7984 6.73438C43.7984 10.9754 45.6742 13.2162 49.2106 13.2162C52.7316 13.2162 54.6228 10.9604 54.6228 6.73438V0.342772H52.1627V6.73438C52.1627 9.65196 51.3017 10.8551 49.2106 10.8551C47.1042 10.8551 46.2585 9.65196 46.2585 6.73438V0.342772H43.7984V6.73438Z" fill="#0F1EFF"/>
<path d="M62.0217 13.126V2.74902H65.6964V0.342772H55.9022V2.74902H59.5616V13.126H62.0217Z" fill="#0F1EFF"/>
<path d="M69.1429 13.126V7.9375H74.4321V13.126H76.8922V0.342772H74.4321V5.53125H69.1429V0.342772H66.6828V13.126H69.1429Z" fill="#0F1EFF"/>
<path d="M78.0738 6.73438C78.0738 10.5393 80.5954 13.2162 84.1625 13.2162C87.745 13.2162 90.2513 10.5393 90.2513 6.73438C90.2513 2.94453 87.745 0.267578 84.1625 0.267578C80.5954 0.267578 78.0738 2.94453 78.0738 6.73438ZM84.1625 2.62871C86.3151 2.62871 87.7912 4.31309 87.7912 6.73438C87.7912 9.1707 86.3151 10.8551 84.1625 10.8551C82.0407 10.8551 80.5339 9.1707 80.5339 6.73438C80.5339 4.32813 82.0253 2.62871 84.1625 2.62871Z" fill="#0F1EFF"/>
<path d="M94.0358 13.126V8.83985H95.8501L98.5562 13.126H101.493L98.464 8.46387C99.94 7.81719 100.863 6.41856 100.863 4.56875C100.863 1.92188 99.0329 0.342772 96.4037 0.342772H91.5757V13.126H94.0358ZM96.4037 2.74902C97.5415 2.74902 98.3871 3.50098 98.3871 4.56875C98.3871 5.63652 97.5568 6.4336 96.542 6.4336H94.0358V2.74902H96.4037Z" fill="#0F1EFF"/>
<path d="M104.953 13.126V0.342772H102.493V13.126H104.953Z" fill="#0F1EFF"/>
<path d="M106.268 13.126H115.755V10.7799H109.666L115.663 2.22266V0.342772H106.376V2.68887H112.357L106.268 11.3514V13.126Z" fill="#0F1EFF"/>
<path d="M124.96 2.74902V0.342772H117.027V13.126H125.099V10.7197H119.487V7.9375H124.822V5.53125H119.487V2.74902H124.96Z" fill="#0F1EFF"/>
<path d="M130.686 13.126C134.622 13.126 136.928 10.7648 136.928 6.73438C136.928 2.67383 134.591 0.342772 130.547 0.342772H126.242V13.126H130.686ZM130.547 2.74902C133.007 2.74902 134.453 4.22285 134.453 6.73438C134.453 9.20078 133.007 10.7197 130.686 10.7197H128.702V2.74902H130.547Z" fill="#0F1EFF"/>
<path d="M47.7649 105.891C50.3173 105.891 52.0854 104.176 52.0854 101.62C52.0854 98.9727 50.2558 97.3936 47.6265 97.3936H42.8447V110.177H45.3048V105.891H47.7649ZM47.6265 99.7998C48.7643 99.7998 49.61 100.552 49.61 101.62C49.61 102.687 48.7797 103.484 47.7649 103.484H45.3048V99.7998H47.6265Z" fill="#0F1EFF"/>
<path d="M55.7779 110.177V105.891H57.5922L60.2983 110.177H63.2351L60.2061 105.515C61.6821 104.868 62.6047 103.469 62.6047 101.62C62.6047 98.9727 60.775 97.3936 58.1458 97.3936H53.3178V110.177H55.7779ZM58.1458 99.7998C59.2836 99.7998 60.1292 100.552 60.1292 101.62C60.1292 102.687 59.2989 103.484 58.2841 103.484H55.7779V99.7998H58.1458Z" fill="#0F1EFF"/>
<path d="M63.9341 103.785C63.9341 107.59 66.4557 110.267 70.0228 110.267C73.6053 110.267 76.1115 107.59 76.1115 103.785C76.1115 99.9953 73.6053 97.3184 70.0228 97.3184C66.4557 97.3184 63.9341 99.9953 63.9341 103.785ZM70.0228 99.6795C72.1754 99.6795 73.6515 101.364 73.6515 103.785C73.6515 106.221 72.1754 107.906 70.0228 107.906C67.901 107.906 66.3942 106.221 66.3942 103.785C66.3942 101.379 67.8856 99.6795 70.0228 99.6795Z" fill="#0F1EFF"/>
<path d="M83.8089 110.177L88.6215 97.3936H86.0076L82.502 106.703L78.9964 97.3936H76.3825L81.1951 110.177H83.8089Z" fill="#0F1EFF"/>
<path d="M91.9953 110.177V97.3936H89.5352V110.177H91.9953Z" fill="#0F1EFF"/>
<path d="M97.9083 110.177C101.844 110.177 104.151 107.816 104.151 103.785C104.151 99.7246 101.814 97.3936 97.7699 97.3936H93.4647V110.177H97.9083ZM97.7699 99.7998C100.23 99.7998 101.675 101.274 101.675 103.785C101.675 106.252 100.23 107.771 97.9083 107.771H95.9248V99.7998H97.7699Z" fill="#0F1EFF"/>
<path d="M113.354 99.7998V97.3936H105.421V110.177H113.493V107.771H107.881V104.988H113.216V102.582H107.881V99.7998H113.354Z" fill="#0F1EFF"/>
<path d="M117.096 110.177V105.891H118.911L121.617 110.177H124.553L121.524 105.515C123 104.868 123.923 103.469 123.923 101.62C123.923 98.9727 122.093 97.3936 119.464 97.3936H114.636V110.177H117.096ZM119.464 99.7998C120.602 99.7998 121.448 100.552 121.448 101.62C121.448 102.687 120.617 103.484 119.602 103.484H117.096V99.7998H119.464Z" fill="#0F1EFF"/>
</svg>
