<svg width="80" height="79" viewBox="0 0 80 79" fill="none" xmlns="http://www.w3.org/2000/svg">
<path d="M79.0655 0.214844H0.945801V78.3292H79.0655V0.214844Z" fill="white"/>
<path d="M9.07568 36.1246V22.6738H17.0849V24.6463H11.0483V28.4011H16.9423V30.3736H11.0483V36.1246H9.07568Z" fill="#0A0A14"/>
<path d="M19.6982 22.6973C20.3875 22.6973 20.839 23.1488 20.839 23.838C20.839 24.5271 20.3875 25.0024 19.6982 25.0024C18.9853 25.0024 18.5337 24.5509 18.5337 23.838C18.5575 23.1488 18.9853 22.6973 19.6982 22.6973ZM18.7001 36.1243V26.6184H20.6727V36.1243H18.7001Z" fill="#0A0A14"/>
<path d="M22.5991 36.1246V22.6738H24.5717V36.1246H22.5991Z" fill="#0A0A14"/>
<path d="M35.1708 33.2016C34.5291 34.984 32.8417 36.196 30.9404 36.196C28.2073 36.196 26.2822 34.176 26.2822 31.348C26.2822 28.5913 28.2786 26.5 30.8929 26.5C33.5072 26.5 35.5035 28.5675 35.5035 31.3005C35.5035 31.5619 35.4798 31.8233 35.4322 32.0609H28.3024C28.5638 33.4393 29.562 34.3423 30.9166 34.3423C31.8911 34.3423 32.6991 33.8908 33.0556 33.2254H35.1708V33.2016ZM33.4834 30.6113C33.222 29.2805 32.2238 28.3536 30.8929 28.3536C29.5857 28.3536 28.5876 29.2567 28.3024 30.6113H33.4834Z" fill="#0A0A14"/>
<path d="M10.8815 49.1234C10.9765 50.5255 12.2837 51.476 13.7572 51.476C15.2544 51.476 16.4903 50.7393 16.4903 49.4561C16.5141 48.1015 15.3257 47.6499 13.8998 47.2935C11.8321 46.7944 9.31288 46.4379 9.31288 43.4674C9.33664 40.9008 11.3092 39.7363 13.7096 39.7363C16.0387 39.7363 18.1302 40.9483 18.1539 43.5149H16.1813C16.0863 42.2554 15.0168 41.6375 13.7096 41.6375C12.3787 41.6375 11.3092 42.2554 11.2855 43.4436C11.2617 44.822 12.6164 45.0358 14.2563 45.4398C16.2764 45.9151 18.5104 46.6994 18.4867 49.4561C18.4629 51.8563 16.3715 53.3772 13.7809 53.3772C11.2379 53.3772 8.98015 51.8325 8.93262 49.1471H10.8815V49.1234Z" fill="#0A0A14"/>
<path d="M24.3098 45.631C23.0264 45.631 22.0996 46.843 22.0996 48.5065V53.2594H20.127V43.7536H22.0996V45.2983C22.456 44.3239 23.5018 43.6348 24.6663 43.6348C26.1161 43.6348 27.2568 44.3239 27.9223 45.5359C28.5402 44.3239 29.5859 43.6348 30.8931 43.6348C33.4836 43.6348 35.0997 45.5597 35.0997 48.4827V53.2357H33.1271V48.4827C33.1271 46.7479 32.224 45.6072 30.8218 45.6072C29.5384 45.6072 28.6115 46.8192 28.6115 48.4827V53.2357H26.6389V48.4827C26.5914 46.7479 25.6883 45.631 24.3098 45.631Z" fill="#0A0A14"/>
<path d="M44.2263 51.7144C43.8223 52.6888 42.5389 53.3542 41.208 53.3542C38.4749 53.3542 36.6924 51.4292 36.6924 48.5062C36.6924 45.5831 38.4749 43.6582 41.208 43.6582C42.5151 43.6582 43.8223 44.3474 44.2263 45.3217V43.777H46.1989V53.2829H44.2263V51.7144ZM41.4456 51.3817C43.0855 51.3817 44.2263 50.2172 44.2263 48.5062C44.2263 46.8189 43.0617 45.6307 41.4456 45.6307C39.782 45.6307 38.665 46.7714 38.665 48.5062C38.6412 50.241 39.782 51.3817 41.4456 51.3817Z" fill="#0A0A14"/>
<path d="M53.5896 45.631C51.3318 45.6072 50.0722 46.7242 50.0722 48.7204V53.2594H48.0996V43.7536H50.0722V45.5122C50.809 44.1338 52.2825 43.6348 53.5896 43.6348V45.631Z" fill="#0A0A14"/>
<path d="M58.4144 41.7562V43.7762H60.482V45.6536H58.4144V49.8837C58.4144 50.858 58.8659 51.2858 59.8403 51.2858H60.482V53.2583H59.6502C57.3924 53.2583 56.4418 52.3314 56.4418 50.0025V45.6298H55.0396V43.7524H56.4418L56.9171 41.7324H58.4144V41.7562Z" fill="#0A0A14"/>
<path d="M10.0498 68.1113C10.739 68.1113 11.1906 68.5629 11.1906 69.2521C11.1906 69.9413 10.739 70.4167 10.0498 70.4167C9.36058 70.4167 8.88525 69.9651 8.88525 69.2521C8.88525 68.5391 9.36058 68.1113 10.0498 68.1113Z" fill="#0A0A14"/>
<path d="M14.0411 70.3219V58.8436H10.0483V56.8711H20.0064V58.8436H16.0137V70.3219H14.0411Z" fill="#0A0A14"/>
<path d="M27.3278 68.7535C26.9238 69.7278 25.6404 70.3932 24.3095 70.3932C21.5764 70.3932 19.7939 68.4683 19.7939 65.5452C19.7939 62.6222 21.5764 60.6973 24.3095 60.6973C25.6167 60.6973 26.9238 61.3864 27.3278 62.3608V60.8161H29.3004V70.3219H27.3278V68.7535ZM24.571 68.4208C26.2108 68.4208 27.3516 67.2563 27.3516 65.5452C27.3516 63.858 26.1871 62.6697 24.571 62.6697C22.9073 62.6697 21.7903 63.8104 21.7903 65.5452C21.7665 67.2801 22.9073 68.4208 24.571 68.4208Z" fill="#0A0A14"/>
<path d="M33.9819 65.5693L30.7021 60.8164H33.0788L35.194 63.8345L37.2854 60.8164H39.662L36.3823 65.5693L39.662 70.3223H37.2854L35.194 67.3041L33.0788 70.3223H30.7021L33.9819 65.5693Z" fill="#0A0A14"/>
<path d="M47.8137 23.6484H55.6328V0.216524H47.8137V23.6484Z" fill="#0A0A14"/>
<path d="M63.4211 31.459H71.2402V0.208502H63.4211V31.459Z" fill="#0A0A14"/>
</svg>
