<svg width="140" height="111" viewBox="0 0 140 111" fill="none" xmlns="http://www.w3.org/2000/svg">
<path d="M104.035 18.3841C104.035 18.3841 109.273 16.994 123.524 18.1248L123.167 22.2952L110.083 22.4465L102.973 35.001L102.557 20.8403L104.035 18.3841Z" fill="#1ED2E1"/>
<path d="M108.974 49.154H99.0325C99.0325 49.154 98.9359 48.8947 100.429 54.801C101.953 60.8298 102.807 63.358 102.807 63.358L114.108 63.3147L110.14 56.3136L113.41 51.7542L108.974 49.154Z" fill="#1ED2E1"/>
<path d="M117.066 42.3555H113.418V51.7551C113.418 51.7551 115.825 51.9208 116.851 49.1621C117.869 46.3962 117.066 42.3555 117.066 42.3555Z" fill="#1ED2E1"/>
<path d="M113.413 52.8652V60.5011L116.4 56.2221L113.413 52.8652Z" fill="#1ED2E1"/>
<path d="M136.391 51.5386C135.812 49.4426 133.672 47.9732 131.19 47.9732H118.604V43.2554H121.851L122.304 37.1834L126.717 33.7981L124.644 25.7526L125.722 16.1152H107.02C103.833 16.1152 101.24 18.629 101.24 21.719V35.2747L105.356 43.2554H107.763V47.9732L100.653 47.9876C98.2679 47.9876 99.2709 49.9108 98.6245 51.9059L101.953 64.4892H139.987L136.391 51.5386ZM131.19 50.3357C132.55 50.3357 133.754 51.0992 134.043 52.1508L136.815 62.1339H114.019L118.277 56.1844L114.696 52.3381C115.81 52.0212 116.887 51.3513 117.905 50.3285H131.19V50.3357ZM113.403 53.2601L115.855 56.2564L113.425 59.6562L110.981 56.17L113.403 53.2601ZM107.02 18.4778H123.01L122.683 21.3589L109.183 21.5029L103.669 30.9818V21.719C103.677 19.9327 105.178 18.4778 107.02 18.4778ZM106.864 40.8929L103.707 34.7705L110.334 23.3757L122.475 23.246L122.178 25.9182L123.976 32.8978L119.956 35.9806L119.585 40.9001H118.604H107.763H106.864V40.8929ZM116.167 43.2554V49.3417C115.164 50.2421 114.138 50.6959 113.113 50.6671C111.894 50.6311 110.854 49.9468 110.193 49.3706V43.2554H116.167ZM100.794 52.5542C101.128 51.5314 99.3155 50.3501 100.645 50.3501L108.417 50.3357C109.101 51.02 110.371 52.0572 112.028 52.4245L108.544 56.0764L112.794 62.1339H103.632L100.794 52.5542Z" fill="#0F1EFF"/>
<path d="M61.0101 3.29996C61.0101 3.29996 68.0314 1.43443 87.1339 2.94702L86.6584 8.5364L69.1236 8.73807L63.4174 31.6142L59.8807 40.0991L48.7283 39.8037L44.1812 34.6393L51.7077 25.924L55.8017 7.55681L61.0101 3.29996Z" fill="#1ED2E1"/>
<path d="M68.3574 44.0377H52.0634C52.0634 44.0377 49.1137 43.159 46.8996 50.9308C44.6854 58.7026 43.4595 63.0171 43.4595 63.0171L69.2861 62.9523L71.7455 54.1288L73.5881 47.5167L68.3574 44.0377Z" fill="#1ED2E1"/>
<path d="M77.8309 34.9199H72.9346V47.5176C72.9346 47.5176 76.1592 47.7409 77.5337 44.0387C78.9083 40.3364 77.8309 34.9199 77.8309 34.9199Z" fill="#1ED2E1"/>
<path d="M72.9346 49.0176L73.2689 63.3583L77.5857 62.1339L72.9346 49.0176Z" fill="#1ED2E1"/>
<path d="M52.8361 42.5696C49.9904 42.5696 47.479 44.4279 46.736 47.093L41.8471 64.4877H104.482L100.351 47.3091C99.6822 44.5144 97.1485 42.5624 94.1914 42.5624H79.6658V36.6417H80.966H81.0849C82.0062 36.6489 84.421 36.6561 84.6141 34.7258L85.4017 28.9491L87.0586 28.517C88.4926 28.1064 89.4288 26.7595 89.2876 25.3189C89.2653 25.0956 89.2059 24.8795 89.1167 24.6491L86.9694 19.4558L89.9192 8.93255L89.8969 0.267578H65.0212C60.9422 0.267578 54.218 4.14989 54.0026 8.33471L49.9606 24.9948L49.7155 25.4198L41.6465 35.1795L48.0363 41.374L60.9422 41.7125L63.2009 36.6417H66.8639V42.5696H52.8361ZM61.1576 33.2492L61.0611 33.2924L61.0982 33.3716L58.8172 38.4928L49.4183 38.2479L46.0153 34.9491L52.4274 27.1916L53.0292 26.1544L57.2643 8.72366V8.54359C57.2643 6.44038 62.2796 3.43681 65.0212 3.43681H86.6425L86.65 6.97338L67.2874 7.18227L64.1742 26.4714L61.1576 33.2492ZM64.6943 33.278L67.332 27.3573L70.0811 10.3155L86.1893 10.1426L83.5219 19.6575L85.9515 25.535L82.4446 26.4498L81.4861 33.4869C81.3301 33.4941 81.1815 33.4869 81.0998 33.4869H64.7983L64.6943 33.278ZM45.8221 61.549L49.6634 47.8709C50.0498 46.4879 51.3575 45.5156 52.8361 45.5156H66.7896C67.8075 46.56 69.9696 48.3823 72.8227 48.5768L67.9338 61.549H45.8221ZM69.9028 44.8241V36.7858H76.6343V44.8241C75.4901 45.674 74.3385 46.099 73.1942 46.0702C71.9014 46.0342 70.7572 45.4507 69.9028 44.8241ZM70.5046 61.549L73.5806 51.8468L76.6343 61.549H70.5046ZM79.7103 45.5156H94.1914C95.7294 45.5156 97.0445 46.5312 97.3937 47.9861L100.655 61.549H79.1977L74.331 48.5263C76.2182 48.2598 78.0163 47.2514 79.7103 45.5156Z" fill="#0F1EFF"/>
<path d="M15.4609 18.0986C15.4609 18.0986 20.7882 16.6796 35.2693 17.8321L34.9052 22.0673L21.6055 22.2186L17.2887 39.5701L14.6139 46.0022L6.15113 45.7789L2.70361 41.8606L8.40985 35.2484L11.5156 21.3182L15.4609 18.0986Z" fill="#1ED2E1"/>
<path d="M21.0368 48.9897H8.68076C8.68076 48.9897 6.44433 48.3199 4.76515 54.219C3.08598 60.1181 2.15723 63.3809 2.15723 63.3809L21.7427 63.3305L23.6076 56.6391L25.0045 51.626L21.0368 48.9897Z" fill="#1ED2E1"/>
<path d="M28.2179 42.0703H24.5029V51.6212C24.5029 51.6212 26.9474 51.7941 27.9876 48.985C29.0352 46.1759 28.2179 42.0703 28.2179 42.0703Z" fill="#1ED2E1"/>
<path d="M24.5098 52.7539L24.755 63.6301L28.0316 62.701L24.5098 52.7539Z" fill="#1ED2E1"/>
<path d="M45.5254 62.264L45.5034 62.1543V62.264H45.5254Z" fill="#0F1EFF"/>
<path d="M29.2598 62.2635L25.5968 52.3812C27.016 52.1724 28.3682 51.4089 29.6462 50.1052H40.6277C41.7942 50.1052 42.7898 50.8759 43.0573 51.9779L45.5092 62.1626L45.3978 51.8698C44.7736 49.1688 42.8716 47.8723 40.6277 47.8723H29.6165V43.3777H30.6046H30.6938C31.3922 43.3849 33.22 43.3921 33.3686 41.9228L33.963 37.5435L35.2187 37.2193C36.3109 36.9096 37.0167 35.8868 36.9053 34.792C36.8904 34.6263 36.8458 34.4607 36.7715 34.2878L35.1444 30.3479L37.3808 22.3672L37.3659 15.791H18.5086C15.4177 15.791 10.3208 18.7298 10.1573 21.9062L7.08872 34.5471L6.90297 34.8712L0.788086 42.2685L5.63244 46.9647L15.4177 47.224L17.1266 43.3777H19.9055V47.8723H9.26571C7.11101 47.8723 5.20893 49.284 4.63682 51.3008L0.936686 64.4963H45.5241L45.5018 62.2635H29.2598ZM15.5738 40.7991L15.4995 40.8352L15.5292 40.8928L13.798 44.7751L6.67264 44.5878L4.09443 42.0884L8.95365 36.211L9.40688 35.4186L12.6166 22.2015V22.0647C12.6166 20.4656 16.4208 18.1895 18.5012 18.1895H34.8992L34.9066 20.869L20.2249 21.0275L17.8622 35.6563L15.5738 40.7991ZM18.2634 40.8207L20.2621 36.3334L22.3499 23.4116L34.5648 23.2747L32.5439 30.4919L34.3865 34.9505L31.7266 35.6419L30.9984 40.9792C30.8796 40.9792 30.7681 40.9792 30.7012 40.9792H18.3452L18.2634 40.8207ZM27.3132 49.5793C26.4438 50.2276 25.5745 50.5445 24.7052 50.5229C23.7245 50.4941 22.8626 50.0547 22.2088 49.5793V43.4858H27.3132V49.5793ZM3.95326 62.2635L6.86582 51.8914C7.16302 50.8398 8.15121 50.1052 9.27314 50.1052H19.8534C20.6187 50.8903 22.2459 52.266 24.4006 52.4245L20.7228 62.2635H3.95326ZM22.662 62.2635L24.995 54.9022L27.3057 62.2635H22.662Z" fill="#0F1EFF"/>
<path d="M23.7993 91.6061H29.6467V85.9375H36.2V91.6061H42.0028V97.959H36.2V103.584H29.6467V97.959H23.7993V91.6061Z" fill="#0F1EFF"/>
<path d="M55.4038 83.2062L48.271 85.9793V79.3455L56.6075 76.0898H62.0388V110.267H55.4038V83.2062Z" fill="#0F1EFF"/>
<path d="M69.1816 110.261V76.084H75.8166L86.0626 92.0886L96.3086 76.084H102.944V110.261H96.3086V88.3503L88.7151 99.7668H83.4101L75.8166 88.3503V110.261H69.1816Z" fill="#0F1EFF"/>
</svg>
