<svg width="145" height="89" viewBox="0 0 145 89" fill="none" xmlns="http://www.w3.org/2000/svg">
<path d="M137.772 0.496659C136.988 1.12827 136.416 2.62186 136.063 4.91053C135.632 7.75652 135.302 8.59619 134.213 9.5399C133.17 10.439 132.401 10.7511 128.528 11.8806C126.089 12.5865 124.96 13.3519 123.596 15.165C122.357 16.8369 122.177 17.4165 122.631 18.3454C123.039 19.185 123.039 19.6755 122.608 20.1808C122.09 20.8124 121.44 21.0501 119.777 21.2359C117.895 21.4366 117.511 21.548 117.056 21.979C116.602 22.41 116.602 22.5289 116.962 23.2125C117.362 23.9407 117.323 24.3197 116.829 25.1371C116.021 26.4226 113.426 28.5849 111.505 29.5732C110.595 30.0339 109.435 30.3535 109.004 30.2494C108.055 30.0265 107.914 29.172 108.651 27.9979C109.31 26.9353 109.419 26.3409 109.168 25.1965C108.894 23.9481 108.565 23.1531 108.126 22.6923C107.812 22.3728 107.686 22.306 107.302 22.3134C106.84 22.3208 106.048 22.7741 105.522 23.324C105.397 23.4503 105.146 23.6583 104.966 23.7847L104.636 24.0076L104.691 23.5692C104.723 23.3314 104.966 22.7964 105.224 22.3951C106.095 20.9907 106.095 19.8166 105.201 18.8506C104.644 18.2636 103.821 17.8549 102.425 17.5057L101.453 17.2605L102.072 17.0152C103.037 16.6288 103.021 16.6363 102.99 16.0567C102.943 15.4251 102.653 14.8529 102.127 14.4219C101.39 13.8126 100.363 13.8349 98.0263 14.4665C96.0582 15.0164 95.4858 15.0164 94.3097 14.4739C93.7059 14.2064 93.2668 14.0801 92.9297 14.0801C92.6552 14.0801 92.4279 14.0504 92.4279 13.9909C92.4279 13.9463 92.5533 13.7011 92.7101 13.441C92.867 13.181 92.9218 13.0026 92.8591 13.0324C92.7807 13.0546 91.7222 13.7011 90.5225 14.4368C89.3071 15.1873 88.2564 15.8338 88.1624 15.8635C87.8801 15.9601 84.924 15.4325 84.8534 15.2764C84.7437 14.9941 85.0808 14.2584 85.5435 13.7829C85.7944 13.5228 86.4373 13.0621 86.9862 12.7649C88.2564 12.0589 88.868 11.5759 89.1425 11.0706C89.2679 10.8329 89.3699 10.6322 89.3699 10.6099C89.3699 10.5802 88.4838 10.5356 87.4175 10.5059C85.2455 10.439 84.8142 10.3573 83.2852 9.70338C81.8268 9.07176 81.5053 9.00488 80.337 9.1535C78.6826 9.3467 78.3533 9.10891 77.9377 7.43699C77.6554 6.26293 77.4751 6.03258 76.9027 6.03258C76.4949 6.03258 76.3695 6.10689 75.6795 6.76079C74.323 8.08347 73.8761 8.14291 65.7998 8.29896C57.4727 8.44758 43.2648 8.36584 39.7364 8.13548C35.1023 7.83825 32.9931 7.65248 29.4803 7.19921C26.2812 6.80538 24.7679 6.47099 19.6791 5.05915C16.6838 4.23433 13.5945 3.44667 13.3122 3.44667C13.2573 3.44667 13.2181 3.66216 13.2181 3.92224C13.2181 4.78421 12.9045 6.02515 12.5046 6.71621C12.1674 7.30324 11.3519 8.06861 11.054 8.06861C10.9991 8.06861 11.1559 7.68221 11.4068 7.20664C11.6577 6.73107 11.8616 6.32981 11.8616 6.29265C11.8616 6.2555 11.7675 6.24064 11.6499 6.24064C11.4696 6.24064 11.4539 6.17376 11.5009 5.71306C11.5244 5.41582 11.5244 5.05915 11.4774 4.91796C11.3676 4.45726 10.709 3.98169 9.28191 3.30549C8.09008 2.74818 7.85485 2.65901 7.58042 2.75561C6.89825 2.97853 6.71791 3.95939 7.04723 5.69819C7.37655 7.46671 7.25894 8.44758 6.41211 11.2936C5.39278 14.7117 4.42834 17.0598 3.36196 18.6797C2.37399 20.203 2.22501 20.7083 2.11524 22.9822C2.00547 25.1073 1.9349 25.3897 0.993978 27.7824C-0.0253516 30.3832 -0.0959206 30.777 0.0687403 33.6453C0.296129 37.6208 0.531359 38.7577 1.3233 39.5602C1.7624 39.9986 1.7624 39.9986 2.56218 39.9912C3.47957 39.9689 3.63639 40.1398 2.96991 40.4444C2.43672 40.6822 2.18581 41.1429 2.2799 41.6928C2.32695 41.9306 2.61706 42.6068 2.93855 43.2087C3.45605 44.2044 3.52662 44.3976 3.60503 45.3116C3.7148 46.5005 3.78537 46.716 4.56947 48.3508C5.39278 50.0896 5.54176 50.6617 5.45551 51.9027C5.38494 52.7275 5.40846 52.9801 5.58096 53.2997C5.8946 53.9313 7.18837 54.9865 9.14862 56.22C11.1324 57.4683 12.2223 58.3452 12.5516 58.9545C12.6614 59.17 12.8652 59.6827 13.0064 60.0914C13.4141 61.3026 13.7278 61.7262 14.4491 62.0382C14.9902 62.276 15.296 62.3206 16.9661 62.3949C19.4909 62.5138 19.7104 62.5658 20.5494 63.4129C21.3571 64.2155 22.0549 64.6613 25.1364 66.2589C26.4145 66.9277 27.9905 67.7748 28.6492 68.1389C30.531 69.2164 30.7114 69.2535 33.5812 69.4467C36.0981 69.6102 38.0192 69.573 39.1326 69.3501C39.4933 69.2758 39.9402 69.0677 40.3558 68.7705C40.7165 68.5104 41.2026 68.2652 41.43 68.2206C42.0886 68.0943 44.2998 68.124 44.7624 68.2875C45.2486 68.4361 45.8759 69.0677 46.4247 69.9743C48.3301 73.0804 50.0081 75.0718 52.0938 76.7214C53.6698 77.9698 54.1638 78.1184 54.846 77.5462C55.3478 77.1524 57.0022 76.1716 57.7471 75.852C58.9233 75.3393 60.0445 75.5622 60.8757 76.4836C61.1031 76.7289 61.7147 77.7394 62.2479 78.7203C63.0163 80.1619 63.3613 80.6672 64.0513 81.4028C64.5139 81.9081 65.5254 83.0376 66.2938 83.9293C69.3283 87.4589 70.7553 88.4249 72.9195 88.4397C73.6644 88.4397 73.8917 88.3952 74.0564 88.2465C74.37 87.9493 74.2916 87.1914 73.8212 85.8761C73.0763 83.855 73.139 82.1608 74.0172 80.7786C74.5582 79.9167 75.2953 79.4485 76.887 78.9432C78.957 78.2745 79.404 77.9104 79.9607 76.4093L80.2743 75.5622L82.5482 75.2056L84.8142 74.8489L87.8409 75.8149L90.8675 76.7809V75.9189C90.8675 75.2501 90.8989 75.0718 91.04 75.0718C91.2203 75.0718 91.2752 75.2873 91.4399 77.0038C91.5105 77.68 91.5889 78.2522 91.6124 78.2745C91.6359 78.2968 92.1142 78.0887 92.6788 77.8138L93.6981 77.301L94.8115 77.9549C95.4231 78.3116 95.9328 78.5865 95.9485 78.5791C95.972 78.5568 95.9014 78.3636 95.8152 78.1481C95.3133 77.0112 95.1957 76.6768 95.329 76.7512C95.4074 76.8032 95.8465 77.0632 96.3013 77.3382C97.1717 77.8881 98.191 78.2968 98.6458 78.2968C98.9829 78.2968 99.3828 77.9549 99.3828 77.6503C99.3828 77.2119 98.6615 76.7809 97.2501 76.4019C96.8972 76.3053 96.5836 76.2087 96.5601 76.1864C96.5365 76.1641 96.7169 75.8966 96.9678 75.5845C98.2224 74.0092 98.0812 73.5113 96.4346 73.8309C95.4702 74.0166 95.1565 73.9572 94.5057 73.4668C94.145 73.1992 94.2313 73.1695 95.6583 73.0878C96.8502 73.0209 97.1168 72.9392 98.2224 72.2853C98.7399 71.9732 99.1162 71.832 99.5788 71.78C100.12 71.7131 100.292 71.6536 100.622 71.3193L101.022 70.9254L101.406 71.1409C101.994 71.4605 102.66 71.4084 103.868 70.9552C105.514 70.3235 106.04 70.3979 107.655 71.4679C109.419 72.6494 109.976 72.6717 111.45 71.6314C112.791 70.6877 113.058 70.6728 114.759 71.4679C116.037 72.0698 116.617 72.4487 116.868 72.85C116.947 72.9912 117.025 73.7417 117.064 74.8489C117.135 76.8552 117.111 76.8255 118.366 78.3265C118.703 78.7352 119.307 79.7086 119.715 80.4814C120.624 82.2128 121.095 82.8444 121.981 83.4463C122.365 83.7064 123.031 84.2414 123.463 84.6278C124.498 85.564 125.046 85.9059 125.501 85.9059C126.238 85.9059 126.881 85.1108 127.258 83.7063C127.744 81.8784 127.454 80.3699 125.932 77.1227C125.595 76.4019 125.172 75.3542 124.992 74.7894C124.584 73.4816 124.247 72.954 123.392 72.2481C121.73 70.8809 120.561 68.5402 120.381 66.2441C120.303 65.2038 120.436 64.3344 120.867 63.086C121.526 61.1763 122.106 60.3515 123.463 59.3632C125.274 58.0554 125.556 57.6987 126.066 56.1828C126.442 55.0682 126.732 54.6818 127.54 54.2508C128.512 53.7381 128.81 53.4334 128.959 52.7869C129.257 51.5534 129.618 51.1745 131.249 50.4017C131.829 50.1342 132.448 49.7775 132.621 49.6214C132.903 49.3762 133.264 48.8561 133.264 48.7075C133.264 48.6777 133.005 48.6406 132.684 48.6183L132.095 48.5886L132.613 47.8901C134.189 45.7723 134.267 45.594 133.781 45.2373C133.624 45.111 133.264 44.9772 132.989 44.9475L132.488 44.8732L132.417 44.2416C132.307 43.2979 132.064 42.6291 131.272 41.0166C130.872 40.2215 130.363 38.988 130.135 38.2821C129.853 37.4201 129.492 36.6102 129.022 35.8225C128.198 34.4255 128.073 33.7493 128.481 32.984C128.614 32.7387 128.74 32.5307 128.763 32.5307C128.787 32.5307 128.81 32.7908 128.81 33.1103C128.81 33.5933 128.912 33.8608 129.375 34.7005C129.68 35.2503 129.978 35.8894 130.018 36.1272C130.096 36.5656 130.269 36.7514 131.75 37.9849C132.668 38.7502 132.77 39.0623 132.511 40.1769C132.401 40.6376 132.339 41.0463 132.386 41.0909C132.535 41.2395 133.209 40.4221 133.46 39.7905C133.962 38.5124 134.048 36.6027 133.64 35.6813C133.538 35.4584 133.083 34.916 132.629 34.4701C132.048 33.9128 131.758 33.5264 131.664 33.2366C131.515 32.7313 131.609 32.5827 131.774 33.0508C131.845 33.244 131.946 33.3926 131.986 33.3926C132.182 33.3926 132.778 32.6199 132.911 32.1889C133.005 31.9214 133.06 31.1783 133.06 30.4352C133.06 29.1645 133.029 29.0308 132.574 28.2134C132.55 28.1688 133.178 27.8344 133.969 27.4852C135.451 26.809 136.267 26.2294 136.518 25.6498C136.596 25.4789 136.643 25.308 136.612 25.2708C136.581 25.2485 135.953 25.4417 135.216 25.7092C134.479 25.9767 133.86 26.1848 133.836 26.1477C133.813 26.1254 133.891 25.9099 134.017 25.6869C134.354 25.0405 135.42 24.1859 136.965 23.3165C138.549 22.4025 139.38 21.8378 140.274 21.0204C141.042 20.3219 141.144 20.0396 140.775 19.6903C140.626 19.5491 140.462 19.4302 140.391 19.4302C140.336 19.4302 140.234 19.668 140.156 19.9653C140.078 20.2551 139.976 20.5003 139.905 20.5003C139.85 20.5003 139.45 20.2328 139.035 19.9132C138.47 19.4823 138.243 19.2296 138.188 18.9918C138.062 18.3899 138.117 16.0715 138.29 15.2021C138.494 14.0875 138.854 13.441 139.819 12.4007C140.634 11.5239 141.066 10.8403 141.066 10.4465C141.066 10.2755 141.262 10.1121 141.826 9.82227C143.222 9.09405 144.829 7.74165 144.978 7.16205C145.088 6.76822 144.798 6.24807 143.967 5.37867C143.104 4.48698 143.057 4.39038 142.767 3.03798C142.383 1.18772 141.975 0.771598 140.47 0.630413C139.96 0.585828 139.348 0.481798 139.121 0.385198C138.509 0.169706 138.164 0.184567 137.772 0.496659Z" fill="black"/>
<path d="M61.1505 26.2978H59.0648V24.5367C59.0648 23.8382 58.4689 23.2734 57.7318 23.2734H29.7081C28.9711 23.2734 28.3751 23.8382 28.3751 24.5367V31.0906C28.3751 31.7891 28.9711 32.3538 29.7081 32.3538H57.7318C58.4689 32.3538 59.0648 31.7891 59.0648 31.0906V28.8242H61.1505V52.0231H59.0648V49.7567C59.0648 49.0582 58.4689 48.4935 57.7318 48.4935H29.7081C28.9711 48.4935 28.3751 49.0582 28.3751 49.7567V52.0231H26.2894V41.6794H28.3751V43.6932C28.3751 44.3917 28.9711 44.9564 29.7081 44.9564H57.7318C58.4689 44.9564 59.0648 44.3917 59.0648 43.6932V37.1392C59.0648 36.4408 58.4689 35.876 57.7318 35.876H29.7081C28.9711 35.876 28.3751 36.4408 28.3751 37.1392V39.153H26.2894C24.8232 39.153 23.6313 40.2825 23.6313 41.672V52.0082C23.6313 53.3978 24.8232 54.5272 26.2894 54.5272H28.3751V56.2958C28.3751 56.9942 28.9711 57.559 29.7081 57.559H57.7318C58.4689 57.559 59.0648 56.9942 59.0648 56.2958V54.5272H61.1505C62.6168 54.5272 63.8086 53.3978 63.8086 52.0082V28.8168C63.8086 27.4272 62.6168 26.2978 61.1505 26.2978ZM34.5931 29.7902C33.4404 29.7902 32.5074 28.906 32.5074 27.8136C32.5074 26.7213 33.4404 25.8371 34.5931 25.8371C35.7457 25.8371 36.6788 26.7213 36.6788 27.8136C36.6709 28.8985 35.7378 29.7902 34.5931 29.7902ZM45.7194 29.0694C45.7194 29.5896 45.2725 30.0131 44.7236 30.0131C44.1748 30.0131 43.7278 29.5896 43.7278 29.0694V26.5504C43.7278 26.0303 44.1748 25.6067 44.7236 25.6067C45.2725 25.6067 45.7194 26.0303 45.7194 26.5504V29.0694ZM50.1496 29.0694C50.1496 29.5896 49.7027 30.0131 49.1538 30.0131C48.6049 30.0131 48.158 29.5896 48.158 29.0694V26.5504C48.158 26.0303 48.6049 25.6067 49.1538 25.6067C49.7027 25.6067 50.1496 26.0303 50.1496 26.5504V29.0694ZM54.5876 29.0694C54.5876 29.5896 54.1407 30.0131 53.5918 30.0131C53.0429 30.0131 52.596 29.5896 52.596 29.0694V26.5504C52.596 26.0303 53.0429 25.6067 53.5918 25.6067C54.1407 25.6067 54.5876 26.0303 54.5876 26.5504V29.0694ZM52.5882 39.1604C52.5882 38.6403 53.0351 38.2167 53.584 38.2167C54.1328 38.2167 54.5798 38.6403 54.5798 39.1604V41.6794C54.5798 42.1996 54.1328 42.6231 53.584 42.6231C53.0351 42.6231 52.5882 42.1996 52.5882 41.6794V39.1604ZM48.158 39.1604C48.158 38.6403 48.6049 38.2167 49.1538 38.2167C49.7027 38.2167 50.1496 38.6403 50.1496 39.1604V41.6794C50.1496 42.1996 49.7027 42.6231 49.1538 42.6231C48.6049 42.6231 48.158 42.1996 48.158 41.6794V39.1604ZM43.72 39.1604C43.72 38.6403 44.1669 38.2167 44.7158 38.2167C45.2647 38.2167 45.7116 38.6403 45.7116 39.1604V41.6794C45.7116 42.1996 45.2647 42.6231 44.7158 42.6231C44.1669 42.6231 43.72 42.1996 43.72 41.6794V39.1604ZM34.5931 38.4396C35.7457 38.4396 36.6788 39.3239 36.6788 40.4162C36.6788 41.5085 35.7457 42.3928 34.5931 42.3928C33.4404 42.3928 32.5074 41.5085 32.5074 40.4162C32.5074 39.3239 33.4404 38.4396 34.5931 38.4396ZM34.5931 54.9954C33.4404 54.9954 32.5074 54.1111 32.5074 53.0188C32.5074 51.9265 33.4404 51.0422 34.5931 51.0422C35.7457 51.0422 36.6788 51.9265 36.6788 53.0188C36.6709 54.1185 35.7378 54.9954 34.5931 54.9954ZM45.7194 54.282C45.7194 54.8022 45.2725 55.2257 44.7236 55.2257C44.1748 55.2257 43.7278 54.8022 43.7278 54.282V51.763C43.7278 51.2428 44.1748 50.8193 44.7236 50.8193C45.2725 50.8193 45.7194 51.2428 45.7194 51.763V54.282ZM50.1496 54.282C50.1496 54.8022 49.7027 55.2257 49.1538 55.2257C48.6049 55.2257 48.158 54.8022 48.158 54.282V51.763C48.158 51.2428 48.6049 50.8193 49.1538 50.8193C49.7027 50.8193 50.1496 51.2428 50.1496 51.763V54.282ZM54.5876 54.282C54.5876 54.8022 54.1407 55.2257 53.5918 55.2257C53.0429 55.2257 52.596 54.8022 52.596 54.282V51.763C52.596 51.2428 53.0429 50.8193 53.5918 50.8193C54.1407 50.8193 54.5876 51.2428 54.5876 51.763V54.282Z" fill="white"/>
<path d="M69.3711 39.9411V33.9668H70.2963V36.5081H73.2524V33.9668H74.1776V39.9411H73.2524V37.3924H70.2963V39.9411H69.3711Z" fill="white"/>
<path d="M78.2313 33.9277C79.9406 33.9277 81.1324 35.1761 81.1324 36.9521C81.1324 38.728 79.9406 39.9838 78.2313 39.9838C76.5219 39.9838 75.3223 38.7354 75.3223 36.9521C75.3301 35.1835 76.5298 33.9277 78.2313 33.9277ZM76.2553 36.9521C76.2553 38.2301 77.0708 39.1144 78.2391 39.1144C79.4074 39.1144 80.215 38.2301 80.215 36.9521C80.215 35.674 79.4153 34.7971 78.2391 34.7971C77.0708 34.7971 76.2553 35.6888 76.2553 36.9521Z" fill="white"/>
<path d="M83.0365 38.1038C83.0836 38.7206 83.6873 39.1441 84.3773 39.1441C85.0752 39.1441 85.6554 38.8246 85.6633 38.245C85.6711 37.6431 85.1144 37.4425 84.4479 37.2864C83.4756 37.0635 82.2995 36.9075 82.2995 35.5848C82.3073 34.4479 83.2326 33.9277 84.3617 33.9277C85.4516 33.9277 86.4317 34.4702 86.4474 35.6071H85.5221C85.4751 35.0423 84.9733 34.7748 84.3617 34.7748C83.7422 34.7748 83.2326 35.0498 83.2247 35.5774C83.2169 36.1867 83.8442 36.2907 84.6126 36.4616C85.5613 36.6697 86.6042 37.0189 86.5963 38.2376C86.5885 39.3002 85.6005 39.9764 84.393 39.9838C83.209 39.9838 82.1427 39.2927 82.1191 38.1038H83.0365Z" fill="white"/>
<path d="M89.2675 39.9411V34.8436H87.4014V33.9668H92.0668V34.8436H90.2006V39.9411H89.2675Z" fill="white"/>
<path d="M93.1772 39.9411V33.9668H94.1025V39.9411H93.1772Z" fill="white"/>
<path d="M95.3804 39.9411V33.9668H96.3056L99.638 38.4327V33.9668H100.563V39.6736L100.571 39.6811H100.563V39.9411H99.638L96.3056 35.4827V39.9411H95.3804Z" fill="white"/>
<path d="M104.294 36.5285H107.65C107.666 36.6845 107.681 36.8332 107.681 36.9669C107.681 38.7577 106.372 39.9764 104.717 39.9764C103.055 39.9764 101.753 38.7503 101.753 36.9521C101.753 35.1984 103 33.9277 104.709 33.9277C106.011 33.9277 106.983 34.5668 107.43 35.6368H106.427C106.089 35.1167 105.462 34.812 104.709 34.812C103.541 34.812 102.671 35.6368 102.671 36.9521C102.671 38.2747 103.533 39.0921 104.717 39.0921C105.76 39.0921 106.568 38.4531 106.717 37.3682H104.294V36.5285Z" fill="white"/>
<path d="M72.2274 42.7188C73.9367 42.7188 75.1285 43.9671 75.1285 45.7431C75.1285 47.519 73.9367 48.7748 72.2274 48.7748C70.518 48.7748 69.3184 47.5265 69.3184 45.7431C69.3184 43.9671 70.518 42.7188 72.2274 42.7188ZM70.2436 45.7431C70.2436 47.0212 71.0591 47.9054 72.2274 47.9054C73.3957 47.9054 74.2033 47.0212 74.2033 45.7431C74.2033 44.465 73.4035 43.5881 72.2274 43.5881C71.0591 43.5807 70.2436 44.4798 70.2436 45.7431Z" fill="white"/>
<path d="M76.2979 48.7302V42.7559H77.2231L80.5555 47.2218V42.7559H81.4808V48.4627L81.4886 48.4701H81.4808V48.7302H80.5555L77.2231 44.2717V48.7302H76.2979Z" fill="white"/>
<path d="M86.552 48.7302H82.7334V42.7559H83.6586V47.8534H86.552V48.7302Z" fill="white"/>
<path d="M89.902 48.7298H88.9768V46.1885L86.7656 42.748H87.832L89.4394 45.4083L91.039 42.748H92.1132L89.8942 46.1885V48.7298H89.902Z" fill="white"/>
<path d="M95.5449 48.7302V42.7559H96.4702V48.7302H95.5449Z" fill="white"/>
<path d="M97.7485 48.7302V42.7559H98.6738L102.006 47.2218V42.7559H102.931V48.4627L102.939 48.4701H102.931V48.7302H102.006L98.6738 44.2717V48.7302H97.7485Z" fill="white"/>
<path d="M71.0659 57.5212V52.4237H69.1997V51.5469H73.8651V52.4237H71.9989V57.5212H71.0659Z" fill="white"/>
<path d="M74.9312 57.5212V51.5469H75.8564V54.0882H78.8124V51.5469H79.7377V57.5212H78.8124V54.9725H75.8564V57.5212H74.9312Z" fill="white"/>
<path d="M81.8715 52.4233V54.0878H84.6316V54.9646H81.8715V56.6366H84.7649V57.5134H80.9463V51.5391H84.7021V52.4159H81.8715V52.4233Z" fill="white"/>
<path d="M88.3369 51.5469H89.2622V54.534C89.2622 56.0276 89.764 56.6964 90.9009 56.6964C92.03 56.6964 92.5318 56.0276 92.5318 54.534V51.5469H93.4571V54.534C93.4571 56.5106 92.5711 57.5658 90.9009 57.5658C89.2229 57.5658 88.3369 56.5181 88.3369 54.534V51.5469Z" fill="white"/>
<path d="M95.6547 55.6859C95.7018 56.3026 96.3055 56.7262 96.9955 56.7262C97.6934 56.7262 98.2736 56.4066 98.2814 55.827C98.2893 55.2252 97.7326 55.0245 97.0661 54.8685C96.0938 54.6456 94.9177 54.4895 94.9177 53.1668C94.9255 52.0299 95.8507 51.5098 96.9798 51.5098C98.0697 51.5098 99.0499 52.0522 99.0655 53.1891H98.1403C98.0933 52.6244 97.5914 52.3569 96.9798 52.3569C96.3604 52.3569 95.8507 52.6318 95.8429 53.1594C95.835 53.7687 96.4623 53.8728 97.2307 54.0437C98.1795 54.2517 99.2224 54.601 99.2145 55.8196C99.2067 56.8822 98.2187 57.5584 97.0112 57.5658C95.8272 57.5658 94.7608 56.8748 94.7373 55.6859H95.6547Z" fill="white"/>
</svg>
